  0
SECTION
  2
HEADER
  9
$ACADVER
  1
AC1015
  9
$ACADMAINTVER
 70
     6
  9
$DWGCODEPAGE
  3
ANSI_1252
  9
$INSBASE
 10
0.0
 20
0.0
 30
0.0
  9
$EXTMIN
 10
5669.569510641969
 20
-3865.701219074819
 30
0.0
  9
$EXTMAX
 10
5774.569510641969
 20
-3744.201219074819
 30
0.0
  9
$LIMMIN
 10
0.0
 20
0.0
  9
$LIMMAX
 10
420.0
 20
297.0
  9
$ORTHOMODE
 70
     1
  9
$REGENMODE
 70
     1
  9
$FILLMODE
 70
     1
  9
$QTEXTMODE
 70
     0
  9
$MIRRTEXT
 70
     1
  9
$LTSCALE
 40
1.0
  9
$ATTMODE
 70
     1
  9
$TEXTSIZE
 40
2.0
  9
$TRACEWID
 40
1.0
  9
$TEXTSTYLE
  7
romans
  9
$CLAYER
  8
DP
  9
$CELTYPE
  6
Continuous
  9
$CECOLOR
 62
   256
  9
$CELTSCALE
 40
1.0
  9
$DISPSILH
 70
     0
  9
$DIMSCALE
 40
1.0
  9
$DIMASZ
 40
3.0
  9
$DIMEXO
 40
0.5
  9
$DIMDLI
 40
4.5
  9
$DIMRND
 40
0.0
  9
$DIMDLE
 40
0.0
  9
$DIMEXE
 40
0.5
  9
$DIMTP
 40
0.0
  9
$DIMTM
 40
0.0
  9
$DIMTXT
 40
3.0
  9
$DIMCEN
 40
-2.0
  9
$DIMTSZ
 40
0.0
  9
$DIMTOL
 70
     0
  9
$DIMLIM
 70
     0
  9
$DIMTIH
 70
     0
  9
$DIMTOH
 70
     1
  9
$DIMSE1
 70
     0
  9
$DIMSE2
 70
     0
  9
$DIMTAD
 70
     1
  9
$DIMZIN
 70
     1
  9
$DIMBLK
  1

  9
$DIMASO
 70
     1
  9
$DIMSHO
 70
     1
  9
$DIMPOST
  1

  9
$DIMAPOST
  1

  9
$DIMALT
 70
     0
  9
$DIMALTD
 70
     3
  9
$DIMALTF
 40
0.03937007874016
  9
$DIMLFAC
 40
1.0
  9
$DIMTOFL
 70
     1
  9
$DIMTVP
 40
0.0
  9
$DIMTIX
 70
     0
  9
$DIMSOXD
 70
     0
  9
$DIMSAH
 70
     0
  9
$DIMBLK1
  1

  9
$DIMBLK2
  1

  9
$DIMSTYLE
  2
+3.000
  9
$DIMCLRD
 70
     0
  9
$DIMCLRE
 70
     0
  9
$DIMCLRT
 70
     0
  9
$DIMTFAC
 40
1.0
  9
$DIMGAP
 40
0.7
  9
$DIMJUST
 70
     0
  9
$DIMSD1
 70
     0
  9
$DIMSD2
 70
     0
  9
$DIMTOLJ
 70
     0
  9
$DIMTZIN
 70
     8
  9
$DIMALTZ
 70
     0
  9
$DIMALTTZ
 70
     0
  9
$DIMUPT
 70
     0
  9
$DIMDEC
 70
     3
  9
$DIMTDEC
 70
     3
  9
$DIMALTU
 70
     2
  9
$DIMALTTD
 70
     3
  9
$DIMTXSTY
  7
Standard
  9
$DIMAUNIT
 70
     0
  9
$DIMADEC
 70
     3
  9
$DIMALTRND
 40
0.0
  9
$DIMAZIN
 70
     0
  9
$DIMDSEP
 70
    46
  9
$DIMATFIT
 70
     3
  9
$DIMFRAC
 70
     0
  9
$DIMLDRBLK
  1

  9
$DIMLUNIT
 70
     2
  9
$DIMLWD
 70
    -2
  9
$DIMLWE
 70
    -2
  9
$DIMTMOVE
 70
     0
  9
$LUNITS
 70
     2
  9
$LUPREC
 70
     1
  9
$SKETCHINC
 40
1.0
  9
$FILLETRAD
 40
0.0
  9
$AUNITS
 70
     0
  9
$AUPREC
 70
     0
  9
$MENU
  1
.
  9
$ELEVATION
 40
0.0
  9
$PELEVATION
 40
0.0
  9
$THICKNESS
 40
0.0
  9
$LIMCHECK
 70
     0
  9
$CHAMFERA
 40
0.0
  9
$CHAMFERB
 40
0.0
  9
$CHAMFERC
 40
0.0
  9
$CHAMFERD
 40
0.0
  9
$SKPOLY
 70
     0
  9
$TDCREATE
 40
2452741.658646713
  9
$TDUCREATE
 40
2452741.32531338
  9
$TDUPDATE
 40
2456981.642728588
  9
$TDUUPDATE
 40
2456981.309395255
  9
$TDINDWG
 40
19.1279535648
  9
$TDUSRTIMER
 40
2456981.307484444
  9
$USRTIMER
 70
     1
  9
$ANGBASE
 50
0.0
  9
$ANGDIR
 70
     0
  9
$PDMODE
 70
     0
  9
$PDSIZE
 40
0.0
  9
$PLINEWID
 40
0.0
  9
$SPLFRAME
 70
     0
  9
$SPLINETYPE
 70
     6
  9
$SPLINESEGS
 70
     8
  9
$HANDSEED
  5
49EFE
  9
$SURFTAB1
 70
     6
  9
$SURFTAB2
 70
     6
  9
$SURFTYPE
 70
     6
  9
$SURFU
 70
     6
  9
$SURFV
 70
     6
  9
$UCSBASE
  2

  9
$UCSNAME
  2

  9
$UCSORG
 10
1762.796487791095
 20
126.4509280592357
 30
0.0
  9
$UCSXDIR
 10
1.0
 20
0.0
 30
0.0
  9
$UCSYDIR
 10
0.0
 20
1.0
 30
0.0
  9
$UCSORTHOREF
  2

  9
$UCSORTHOVIEW
 70
     0
  9
$UCSORGTOP
 10
0.0
 20
0.0
 30
0.0
  9
$UCSORGBOTTOM
 10
0.0
 20
0.0
 30
0.0
  9
$UCSORGLEFT
 10
0.0
 20
0.0
 30
0.0
  9
$UCSORGRIGHT
 10
0.0
 20
0.0
 30
0.0
  9
$UCSORGFRONT
 10
0.0
 20
0.0
 30
0.0
  9
$UCSORGBACK
 10
0.0
 20
0.0
 30
0.0
  9
$PUCSBASE
  2

  9
$PUCSNAME
  2

  9
$PUCSORG
 10
0.0
 20
0.0
 30
0.0
  9
$PUCSXDIR
 10
1.0
 20
0.0
 30
0.0
  9
$PUCSYDIR
 10
0.0
 20
1.0
 30
0.0
  9
$PUCSORTHOREF
  2

  9
$PUCSORTHOVIEW
 70
     0
  9
$PUCSORGTOP
 10
0.0
 20
0.0
 30
0.0
  9
$PUCSORGBOTTOM
 10
0.0
 20
0.0
 30
0.0
  9
$PUCSORGLEFT
 10
0.0
 20
0.0
 30
0.0
  9
$PUCSORGRIGHT
 10
0.0
 20
0.0
 30
0.0
  9
$PUCSORGFRONT
 10
0.0
 20
0.0
 30
0.0
  9
$PUCSORGBACK
 10
0.0
 20
0.0
 30
0.0
  9
$USERI1
 70
     0
  9
$USERI2
 70
     0
  9
$USERI3
 70
     0
  9
$USERI4
 70
     0
  9
$USERI5
 70
     0
  9
$USERR1
 40
0.0
  9
$USERR2
 40
0.0
  9
$USERR3
 40
0.0
  9
$USERR4
 40
0.0
  9
$USERR5
 40
0.0
  9
$WORLDVIEW
 70
     1
  9
$SHADEDGE
 70
     3
  9
$SHADEDIF
 70
    70
  9
$TILEMODE
 70
     1
  9
$MAXACTVP
 70
    64
  9
$PINSBASE
 10
0.0
 20
0.0
 30
0.0
  9
$PLIMCHECK
 70
     0
  9
$PEXTMIN
 10
1.000000000000000E+20
 20
1.000000000000000E+20
 30
1.000000000000000E+20
  9
$PEXTMAX
 10
-1.000000000000000E+20
 20
-1.000000000000000E+20
 30
-1.000000000000000E+20
  9
$PLIMMIN
 10
0.0
 20
0.0
  9
$PLIMMAX
 10
0.0
 20
0.0
  9
$UNITMODE
 70
     0
  9
$VISRETAIN
 70
     1
  9
$PLINEGEN
 70
     0
  9
$PSLTSCALE
 70
     1
  9
$TREEDEPTH
 70
  3020
  9
$CMLSTYLE
  2
Standard
  9
$CMLJUST
 70
     0
  9
$CMLSCALE
 40
20.0
  9
$PROXYGRAPHICS
 70
     1
  9
$MEASUREMENT
 70
     1
  9
$CELWEIGHT
370
    -1
  9
$ENDCAPS
280
     0
  9
$JOINSTYLE
280
     0
  9
$LWDISPLAY
290
     0
  9
$INSUNITS
 70
     4
  9
$HYPERLINKBASE
  1

  9
$STYLESHEET
  1
monochrome.ctb
  9
$XEDIT
290
     1
  9
$CEPSNTYPE
380
     0
  9
$PSTYLEMODE
290
     1
  9
$FINGERPRINTGUID
  2
{81999858-C864-4CBF-9E98-9A271A2191D7}
  9
$VERSIONGUID
  2
{2CA4D8B2-9798-4C83-91A9-0AE44222F455}
  9
$EXTNAMES
290
     1
  9
$PSVPSCALE
 40
0.0
  9
$OLESTARTUP
290
     0
  0
ENDSEC
  0
SECTION
  2
CLASSES
  0
CLASS
  1
ACDBDICTIONARYWDFLT
  2
AcDbDictionaryWithDefault
  3
ObjectDBX Classes
 90
        0
280
     0
281
     0
  0
CLASS
  1
ACDBPLACEHOLDER
  2
AcDbPlaceHolder
  3
ObjectDBX Classes
 90
        0
280
     0
281
     0
  0
CLASS
  1
LAYOUT
  2
AcDbLayout
  3
ObjectDBX Classes
 90
        0
280
     0
281
     0
  0
CLASS
  1
DICTIONARYVAR
  2
AcDbDictionaryVar
  3
ObjectDBX Classes
 90
        0
280
     0
281
     0
  0
CLASS
  1
DIMASSOC
  2
AcDbDimAssoc
  3
"AcDbDimAssoc|Product Desc:     AcDim ARX App For Dimension|Company:          Autodesk, Inc.|WEB Address:      www.autodesk.com"
 90
        0
280
     0
281
     0
  0
CLASS
  1
SORTENTSTABLE
  2
AcDbSortentsTable
  3
ObjectDBX Classes
 90
        0
280
     0
281
     0
  0
CLASS
  1
TABLESTYLE
  2
AcDbTableStyle
  3
ObjectDBX Classes
 90
     4095
280
     0
281
     0
  0
CLASS
  1
MATERIAL
  2
AcDbMaterial
  3
ObjectDBX Classes
 90
     1153
280
     0
281
     0
  0
CLASS
  1
VISUALSTYLE
  2
AcDbVisualStyle
  3
ObjectDBX Classes
 90
     4095
280
     0
281
     0
  0
CLASS
  1
SCALE
  2
AcDbScale
  3
ObjectDBX Classes
 90
     1153
280
     0
281
     0
  0
CLASS
  1
MLEADERSTYLE
  2
AcDbMLeaderStyle
  3
ACDB_MLEADERSTYLE_CLASS
 90
     4095
280
     0
281
     0
  0
CLASS
  1
CELLSTYLEMAP
  2
AcDbCellStyleMap
  3
ObjectDBX Classes
 90
     1152
280
     0
281
     0
  0
CLASS
  1
ACAD_TABLE
  2
AcDbTable
  3
ObjectDBX Classes
 90
     1025
280
     0
281
     1
  0
CLASS
  1
TABLECONTENT
  2
AcDbTableContent
  3
ObjectDBX Classes
 90
     1152
280
     0
281
     0
  0
CLASS
  1
TABLEGEOMETRY
  2
AcDbTableGeometry
  3
ObjectDBX Classes
 90
     1152
280
     0
281
     0
  0
CLASS
  1
DATATABLE
  2
AcDbDataTable
  3
ObjectDBX Classes
 90
        0
280
     0
281
     0
  0
CLASS
  1
MULTILEADER
  2
AcDbMLeader
  3
ACDB_MLEADER_CLASS
 90
     1025
280
     0
281
     1
  0
CLASS
  1
AEC_REFEDIT_STATUS_TRACKER
  2
AecDbRefEditStatusTracker
  3
AecArchBase60|Product Desc: Autodesk Architectural Desktop 2007 |Company: Autodesk,Inc. |WEB Address: www.autodesk.com
 90
   -65407
280
     1
281
     0
  0
CLASS
  1
NPOCOLLECTION
  2
AcDbImpNonPersistentObjectsCollection
  3
ObjectDBX Classes
 90
   -64383
280
     1
281
     0
  0
CLASS
  1
EXACXREFPANELOBJECT
  2
ExAcXREFPanelObject
  3
EXAC_ESW
 90
   -64511
280
     1
281
     0
  0
CLASS
  1
SUN
  2
AcDbSun
  3
SCENEOE
 90
     1153
280
     0
281
     0
  0
CLASS
  1
RASTERVARIABLES
  2
AcDbRasterVariables
  3
ISM
 90
        0
280
     0
281
     0
  0
ENDSEC
  0
SECTION
  2
TABLES
  0
TABLE
  2
VPORT
  5
2B
330
0
100
AcDbSymbolTable
 70
     1
  0
VPORT
  5
1809D
330
2B
100
AcDbSymbolTableRecord
100
AcDbViewportTableRecord
  2
*Active
 70
     0
 10
0.0
 20
0.0
 11
1.0
 21
1.0
 12
5722.069510641969
 22
-3804.951219074819
 13
0.0
 23
0.0
 14
10.0
 24
10.0
 15
10.0
 25
10.0
 16
0.0
 26
0.0
 36
1.0
 17
0.0
 27
0.0
 37
0.0
 40
123.93
 41
2.358895705521472
 42
50.0
 43
0.0
 44
0.0
 50
0.0
 51
0.0
 71
    16
 72
   100
 73
     1
 74
     3
 75
     0
 76
     0
 77
     0
 78
     0
281
     0
 65
     1
110
1762.796487791095
120
126.4509280592357
130
0.0
111
1.0
121
0.0
131
0.0
112
0.0
122
1.0
132
0.0
 79
     0
146
0.0
1001
ACAD_NAV_VCDISPLAY
1070
     3
  0
ENDTAB
  0
TABLE
  2
LTYPE
  5
26
330
0
100
AcDbSymbolTable
 70
     3
  0
LTYPE
  5
27
330
26
100
AcDbSymbolTableRecord
100
AcDbLinetypeTableRecord
  2
ByBlock
 70
     0
  3

 72
    65
 73
     0
 40
0.0
  0
LTYPE
  5
28
330
26
100
AcDbSymbolTableRecord
100
AcDbLinetypeTableRecord
  2
ByLayer
 70
     0
  3

 72
    65
 73
     0
 40
0.0
  0
LTYPE
  5
11
330
26
100
AcDbSymbolTableRecord
100
AcDbLinetypeTableRecord
  2
Continuous
 70
     0
  3
Solid line
 72
    65
 73
     0
 40
0.0
  0
LTYPE
  5
4859E
330
26
100
AcDbSymbolTableRecord
100
AcDbLinetypeTableRecord
  2
CENTERX2
 70
     0
  3
Center (2x) ________  __  ________  __  _____
 72
    65
 73
     4
 40
101.6
 49
63.5
 74
     0
 49
-12.7
 74
     0
 49
12.7
 74
     0
 49
-12.7
 74
     0
  0
LTYPE
  5
48638
330
26
100
AcDbSymbolTableRecord
100
AcDbLinetypeTableRecord
  2
PHANTOM
 70
     0
  3
Phantom ______  __  __  ______  __  __  ______
 72
    65
 73
     6
 40
63.5
 49
31.75
 74
     0
 49
-6.35
 74
     0
 49
6.35
 74
     0
 49
-6.35
 74
     0
 49
6.35
 74
     0
 49
-6.35
 74
     0
  0
ENDTAB
  0
TABLE
  2
LAYER
  5
1F
102
{ACAD_XDICTIONARY
360
20
102
}
330
0
100
AcDbSymbolTable
 70
     5
  0
LAYER
  5
6
102
{ACAD_XDICTIONARY
360
7
102
}
330
1F
100
AcDbSymbolTableRecord
100
AcDbLayerTableRecord
  2
0
 70
     0
 62
    -7
  6
Continuous
370
     0
390
F
  0
LAYER
  5
29F
330
1F
100
AcDbSymbolTableRecord
100
AcDbLayerTableRecord
  2
Defpoints
 70
     0
 62
    -7
  6
Continuous
290
     0
370
     0
390
F
  0
LAYER
  5
918
330
1F
100
AcDbSymbolTableRecord
100
AcDbLayerTableRecord
  2
DP
 70
     0
 62
     7
  6
Continuous
370
     0
390
F
  0
LAYER
  5
191CD
330
1F
100
AcDbSymbolTableRecord
100
AcDbLayerTableRecord
  2
0-dimension
 70
     0
 62
  -140
  6
Continuous
370
     5
390
F
  0
LAYER
  5
49CB1
330
1F
100
AcDbSymbolTableRecord
100
AcDbLayerTableRecord
  2
TITLEBLOCK
 70
     0
 62
    -3
  6
Continuous
370
    -3
390
F
  0
ENDTAB
  0
TABLE
  2
STYLE
  5
23
330
0
100
AcDbSymbolTable
 70
     4
  0
STYLE
  5
24
330
23
100
AcDbSymbolTableRecord
100
AcDbTextStyleTableRecord
  2
Standard
 70
     0
 40
0.0
 41
1.0
 50
0.0
 71
     0
 42
2.5
  3
txt
  4

  0
STYLE
  5
42
330
23
100
AcDbSymbolTableRecord
100
AcDbTextStyleTableRecord
  2
romans
 70
     0
 40
0.0
 41
0.7
 50
0.0
 71
     0
 42
2.0
  3
romans.shx
  4

  0
STYLE
  5
49CB3
330
23
100
AcDbSymbolTableRecord
100
AcDbTextStyleTableRecord
  2
MONOTXT
 70
     0
 40
0.0
 41
1.0
 50
0.0
 71
     0
 42
3.5
  3
monotxt.shx
  4

  0
STYLE
  5
49CB4
330
23
100
AcDbSymbolTableRecord
100
AcDbTextStyleTableRecord
  2
RomanC
 70
     0
 40
0.0
 41
1.0
 50
0.0
 71
     0
 42
2.5
  3
romanc.shx
  4

  0
ENDTAB
  0
TABLE
  2
VIEW
  5
29
330
0
100
AcDbSymbolTable
 70
     2
  0
VIEW
  5
15
330
29
100
AcDbSymbolTableRecord
100
AcDbViewTableRecord
  2
OLE1
 70
     0
 40
694.5589147988173
 10
2218.114561828295
 20
-1111.283875838701
 41
962.6342854229223
 11
0.0
 21
0.0
 31
1.0
 12
0.0
 22
0.0
 32
0.0
 42
50.0
 43
0.0
 44
0.0
 50
0.0
 71
     0
281
     0
 72
     0
  0
VIEW
  5
3FA80
102
{ACAD_XDICTIONARY
360
3FA81
102
}
330
29
100
AcDbSymbolTableRecord
100
AcDbViewTableRecord
  2
OLE2
 70
     0
 40
266.6942279908035
 10
9894.401986228613
 20
-84.81317025620228
 41
507.2864677101666
 11
0.0
 21
0.0
 31
1.0
 12
0.0
 22
0.0
 32
0.0
 42
50.0
 43
0.0
 44
0.0
 50
0.0
 71
     0
281
     0
 72
     0
  0
ENDTAB
  0
TABLE
  2
UCS
  5
2A
330
0
100
AcDbSymbolTable
 70
     0
  0
ENDTAB
  0
TABLE
  2
APPID
  5
2F
330
0
100
AcDbSymbolTable
 70
    39
  0
APPID
  5
1A
330
2F
100
AcDbSymbolTableRecord
100
AcDbRegAppTableRecord
  2
ACAD
 70
     0
  0
APPID
  5
57
330
2F
100
AcDbSymbolTableRecord
100
AcDbRegAppTableRecord
  2
DRAWBASE
 70
     0
  0
APPID
  5
52
330
2F
100
AcDbSymbolTableRecord
100
AcDbRegAppTableRecord
  2
AcAecLayerStandard
 70
     0
  0
APPID
  5
295
330
2F
100
AcDbSymbolTableRecord
100
AcDbRegAppTableRecord
  2
ACAD_DSTYLE_DIMJAG
 70
     0
  0
APPID
  5
296
330
2F
100
AcDbSymbolTableRecord
100
AcDbRegAppTableRecord
  2
ACAD_DSTYLE_DIMTALN
 70
     0
  0
APPID
  5
DA9
330
2F
100
AcDbSymbolTableRecord
100
AcDbRegAppTableRecord
  2
ACAD_DSTYLE_DIMEXT_LENGTH
 70
     0
  0
APPID
  5
DAA
330
2F
100
AcDbSymbolTableRecord
100
AcDbRegAppTableRecord
  2
ACAD_DSTYLE_DIMEXT_ENABLED
 70
     0
  0
APPID
  5
DAB
330
2F
100
AcDbSymbolTableRecord
100
AcDbRegAppTableRecord
  2
ACAD_DSTYLE_DIMJOGGED_JOGANGLE_SYMBOL
 70
     0
  0
APPID
  5
DAC
330
2F
100
AcDbSymbolTableRecord
100
AcDbRegAppTableRecord
  2
ACAD_DSTYLE_DIMARC_LENGTH_SYMBOL
 70
     0
  0
APPID
  5
1360
330
2F
100
AcDbSymbolTableRecord
100
AcDbRegAppTableRecord
  2
AcDbAttr
 70
     0
  0
APPID
  5
3450
330
2F
100
AcDbSymbolTableRecord
100
AcDbRegAppTableRecord
  2
ACAD_EXEMPT_FROM_CAD_STANDARDS
 70
     0
  0
APPID
  5
3722
330
2F
100
AcDbSymbolTableRecord
100
AcDbRegAppTableRecord
  2
ACAD_DSTYLE_DIMTEXT_FILL
 70
     0
  0
APPID
  5
3725
330
2F
100
AcDbSymbolTableRecord
100
AcDbRegAppTableRecord
  2
ACAD_DSTYLE_DIM_LINETYPE
 70
     0
  0
APPID
  5
3726
330
2F
100
AcDbSymbolTableRecord
100
AcDbRegAppTableRecord
  2
ACAD_DSTYLE_DIM_EXT1_LINETYPE
 70
     0
  0
APPID
  5
3727
330
2F
100
AcDbSymbolTableRecord
100
AcDbRegAppTableRecord
  2
ACAD_DSTYLE_DIM_EXT2_LINETYPE
 70
     0
  0
APPID
  5
3FAB
330
2F
100
AcDbSymbolTableRecord
100
AcDbRegAppTableRecord
  2
DCO15
 70
     0
  0
APPID
  5
4D54
330
2F
100
AcDbSymbolTableRecord
100
AcDbRegAppTableRecord
  2
autodim
 70
     0
  0
APPID
  5
66C1
330
2F
100
AcDbSymbolTableRecord
100
AcDbRegAppTableRecord
  2
ACAD_PSEXT
 70
     0
  0
APPID
  5
66C2
330
2F
100
AcDbSymbolTableRecord
100
AcDbRegAppTableRecord
  2
AcLayerTools
 70
     0
  0
APPID
  5
E86B
330
2F
100
AcDbSymbolTableRecord
100
AcDbRegAppTableRecord
  2
WC_GLOBAL
 70
     0
  0
APPID
  5
E86C
330
2F
100
AcDbSymbolTableRecord
100
AcDbRegAppTableRecord
  2
WC_OFFADD
 70
     0
  0
APPID
  5
E87C
330
2F
100
AcDbSymbolTableRecord
100
AcDbRegAppTableRecord
  2
WC_DEPPT
 70
     0
  0
APPID
  5
E87D
330
2F
100
AcDbSymbolTableRecord
100
AcDbRegAppTableRecord
  2
WC_HOLDSEG
 70
     0
  0
APPID
  5
E87E
330
2F
100
AcDbSymbolTableRecord
100
AcDbRegAppTableRecord
  2
WC_ROTATE_CPT
 70
     0
  0
APPID
  5
E87F
330
2F
100
AcDbSymbolTableRecord
100
AcDbRegAppTableRecord
  2
WC_CIRCLE_DIA
 70
     0
  0
APPID
  5
E883
330
2F
100
AcDbSymbolTableRecord
100
AcDbRegAppTableRecord
  2
WC_IDENT
 70
     0
  0
APPID
  5
E884
330
2F
100
AcDbSymbolTableRecord
100
AcDbRegAppTableRecord
  2
WC_LOCAL
 70
     0
  0
APPID
  5
E885
330
2F
100
AcDbSymbolTableRecord
100
AcDbRegAppTableRecord
  2
WC_TAPER
 70
     0
  0
APPID
  5
E886
330
2F
100
AcDbSymbolTableRecord
100
AcDbRegAppTableRecord
  2
WC_APPRSEG
 70
     0
  0
APPID
  5
E887
330
2F
100
AcDbSymbolTableRecord
100
AcDbRegAppTableRecord
  2
WC_PREDATA
 70
     0
  0
APPID
  5
E888
330
2F
100
AcDbSymbolTableRecord
100
AcDbRegAppTableRecord
  2
WC_HOLDLEN
 70
     0
  0
APPID
  5
E894
330
2F
100
AcDbSymbolTableRecord
100
AcDbRegAppTableRecord
  2
WC_COND
 70
     0
  0
APPID
  5
180D7
330
2F
100
AcDbSymbolTableRecord
100
AcDbRegAppTableRecord
  2
ACAD_MLEADERVER
 70
     0
  0
APPID
  5
180E1
330
2F
100
AcDbSymbolTableRecord
100
AcDbRegAppTableRecord
  2
AcadStringInfo
 70
     0
  0
APPID
  5
191D7
330
2F
100
AcDbSymbolTableRecord
100
AcDbRegAppTableRecord
  2
AcDbBlockRepETag
 70
     0
  0
APPID
  5
191D8
330
2F
100
AcDbSymbolTableRecord
100
AcDbRegAppTableRecord
  2
AcDbDynamicBlockGUID
 70
     0
  0
APPID
  5
1CBF0
330
2F
100
AcDbSymbolTableRecord
100
AcDbRegAppTableRecord
  2
ACAD_DSTYLE_DIMRADIAL_EXTENSION
 70
     0
  0
APPID
  5
481BE
330
2F
100
AcDbSymbolTableRecord
100
AcDbRegAppTableRecord
  2
ACAD_DSTYLE_DIMBREAK
 70
     0
  0
APPID
  5
48FFD
330
2F
100
AcDbSymbolTableRecord
100
AcDbRegAppTableRecord
  2
ACAD_NAV_VCDISPLAY
 70
     0
  0
ENDTAB
  0
TABLE
  2
DIMSTYLE
  5
30
330
0
100
AcDbSymbolTable
 70
     5
100
AcDbDimStyleTable
  0
DIMSTYLE
105
3FA9
330
30
100
AcDbSymbolTableRecord
100
AcDbDimStyleTableRecord
  2
STANDARD
 70
     0
178
     0
274
     4
279
     2
284
     8
285
     8
286
     8
340
24
  0
DIMSTYLE
105
48FFC
330
30
100
AcDbSymbolTableRecord
100
AcDbDimStyleTableRecord
  2
+3.000
 70
     0
 41
3.0
 42
0.5
 43
4.5
 44
0.5
 73
     0
 77
     1
 78
     1
140
3.0
141
-2.0
143
0.03937007874016
147
0.7
171
     3
172
     1
178
     0
179
     3
271
     3
272
     3
274
     3
283
     0
284
     8
340
24
1001
ACAD_DSTYLE_DIMBREAK
1070
   391
1040
3.75
1001
ACAD_DSTYLE_DIMJAG
1070
   388
1040
1.5
1001
ACAD_DSTYLE_DIMTALN
1070
   392
1070
     0
  0
DIMSTYLE
105
496DF
330
30
100
AcDbSymbolTableRecord
100
AcDbDimStyleTableRecord
  2
inch
 70
     0
  3
"
 41
3.0
 42
0.5
 43
4.5
 44
0.5
 73
     0
 77
     1
 78
     1
140
3.0
141
-2.0
143
0.03937007874016
144
0.039370078
147
0.7
171
     3
172
     1
178
     0
179
     3
271
     3
272
     3
274
     3
283
     0
284
     8
340
24
1001
ACAD_DSTYLE_DIMBREAK
1070
   391
1040
3.75
1001
ACAD_DSTYLE_DIMJAG
1070
   388
1040
1.5
1001
ACAD_DSTYLE_DIMTALN
1070
   392
1070
     0
  0
ENDTAB
  0
TABLE
  2
BLOCK_RECORD
  5
1
330
0
100
AcDbSymbolTable
 70
   107
  0
BLOCK_RECORD
  5
2
102
{ACAD_XDICTIONARY
360
3
102
}
330
1
100
AcDbSymbolTableRecord
100
AcDbBlockTableRecord
  2
*Model_Space
340
13
  0
BLOCK_RECORD
  5
1B
330
1
100
AcDbSymbolTableRecord
100
AcDbBlockTableRecord
  2
*Paper_Space
340
1E
  0
BLOCK_RECORD
  5
4980D
330
1
100
AcDbSymbolTableRecord
100
AcDbBlockTableRecord
  2
*D73
340
0
  0
BLOCK_RECORD
  5
49816
330
1
100
AcDbSymbolTableRecord
100
AcDbBlockTableRecord
  2
*D74
340
0
  0
BLOCK_RECORD
  5
4981F
330
1
100
AcDbSymbolTableRecord
100
AcDbBlockTableRecord
  2
*D75
340
0
  0
BLOCK_RECORD
  5
49828
330
1
100
AcDbSymbolTableRecord
100
AcDbBlockTableRecord
  2
*D76
340
0
  0
BLOCK_RECORD
  5
49831
330
1
100
AcDbSymbolTableRecord
100
AcDbBlockTableRecord
  2
*D77
340
0
  0
BLOCK_RECORD
  5
4983A
330
1
100
AcDbSymbolTableRecord
100
AcDbBlockTableRecord
  2
*D78
340
0
  0
BLOCK_RECORD
  5
49843
330
1
100
AcDbSymbolTableRecord
100
AcDbBlockTableRecord
  2
*D79
340
0
  0
BLOCK_RECORD
  5
4984C
330
1
100
AcDbSymbolTableRecord
100
AcDbBlockTableRecord
  2
*D80
340
0
  0
BLOCK_RECORD
  5
49855
330
1
100
AcDbSymbolTableRecord
100
AcDbBlockTableRecord
  2
*D81
340
0
  0
BLOCK_RECORD
  5
4985E
330
1
100
AcDbSymbolTableRecord
100
AcDbBlockTableRecord
  2
*D82
340
0
  0
BLOCK_RECORD
  5
49867
330
1
100
AcDbSymbolTableRecord
100
AcDbBlockTableRecord
  2
*D83
340
0
  0
BLOCK_RECORD
  5
49870
330
1
100
AcDbSymbolTableRecord
100
AcDbBlockTableRecord
  2
*D84
340
0
  0
BLOCK_RECORD
  5
498B5
330
1
100
AcDbSymbolTableRecord
100
AcDbBlockTableRecord
  2
*D85
340
0
  0
BLOCK_RECORD
  5
4999E
330
1
100
AcDbSymbolTableRecord
100
AcDbBlockTableRecord
  2
*D86
340
0
  0
BLOCK_RECORD
  5
49A70
330
1
100
AcDbSymbolTableRecord
100
AcDbBlockTableRecord
  2
*D87
340
0
  0
BLOCK_RECORD
  5
49A79
330
1
100
AcDbSymbolTableRecord
100
AcDbBlockTableRecord
  2
*D88
340
0
  0
BLOCK_RECORD
  5
49A82
330
1
100
AcDbSymbolTableRecord
100
AcDbBlockTableRecord
  2
*D89
340
0
  0
BLOCK_RECORD
  5
49A96
330
1
100
AcDbSymbolTableRecord
100
AcDbBlockTableRecord
  2
*D90
340
0
  0
BLOCK_RECORD
  5
49BF4
102
{ACAD_XDICTIONARY
360
49BF5
102
}
330
1
100
AcDbSymbolTableRecord
100
AcDbBlockTableRecord
  2
mmi
340
0
310
2800000020000000200000000100080000000000000400000000000000000000000000000000000000000000000080000080000000808000800000008000800080800000C0C0C000C0DCC000F0CAA6000020400000206000002080000020A0000020C0000020E00000400000004020000040400000406000004080000040A0
310
000040C0000040E00000600000006020000060400000606000006080000060A0000060C0000060E00000800000008020000080400000806000008080000080A0000080C0000080E00000A0000000A0200000A0400000A0600000A0800000A0A00000A0C00000A0E00000C0000000C0200000C0400000C0600000C0800000C0
310
A00000C0C00000C0E00000E0000000E0200000E0400000E0600000E0800000E0A00000E0C00000E0E00040000000400020004000400040006000400080004000A0004000C0004000E00040200000402020004020400040206000402080004020A0004020C0004020E000404000004040200040404000404060004040800040
310
40A0004040C0004040E00040600000406020004060400040606000406080004060A0004060C0004060E00040800000408020004080400040806000408080004080A0004080C0004080E00040A0000040A0200040A0400040A0600040A0800040A0A00040A0C00040A0E00040C0000040C0200040C0400040C0600040C08000
310
40C0A00040C0C00040C0E00040E0000040E0200040E0400040E0600040E0800040E0A00040E0C00040E0E00080000000800020008000400080006000800080008000A0008000C0008000E00080200000802020008020400080206000802080008020A0008020C0008020E00080400000804020008040400080406000804080
310
008040A0008040C0008040E00080600000806020008060400080606000806080008060A0008060C0008060E00080800000808020008080400080806000808080008080A0008080C0008080E00080A0000080A0200080A0400080A0600080A0800080A0A00080A0C00080A0E00080C0000080C0200080C0400080C0600080C0
310
800080C0A00080C0C00080C0E00080E0000080E0200080E0400080E0600080E0800080E0A00080E0C00080E0E000C0000000C0002000C0004000C0006000C0008000C000A000C000C000C000E000C0200000C0202000C0204000C0206000C0208000C020A000C020C000C020E000C0400000C0402000C0404000C0406000C0
310
408000C040A000C040C000C040E000C0600000C0602000C0604000C0606000C0608000C060A000C060C000C060E000C0800000C0802000C0804000C0806000C0808000C080A000C080C000C080E000C0A00000C0A02000C0A04000C0A06000C0A08000C0A0A000C0A0C000C0A0E000C0C00000C0C02000C0C04000C0C06000
310
C0C08000C0C0A000F0FBFF00A4A0A000808080000000FF0000FF000000FFFF00FF000000FF00FF00FFFF0000FFFFFF0000000000000000000000000000000000000000000000000000000000000000000000000000000000000000000000000000000000000000000000000000000000000000000000000000000000000000
310
00000000000000000000000000000000000000000000000000000000000000000000000000000000000000000000000000000000000000000000000000000000000000000000000000000000000000000000000000000000000000000000000000000000000000000000000000000000000000000000000000000000000000
310
00000000000000000000000000000000000000000000000000000000000000000000000000000000000000000000000000000000000000000000000000000000000000000000000000000000000000000000000000000000000000000000000000000000000000000000000000000000000000000000000000000000000000
310
0000000000000000000000000000000000000000000000000000000000000000000000000000000000000000000000000000000000000000000000000000000000000000000000000000000000000000000000000000000000000000000000000000000000000000000000000000000000000000FCFCFCFCFCFCFCFCFCFCFC
310
FCFCFCFCFCFCFCFCFCFCFCFCFCFC0000000000000000FCFCFCFCFCFCFCFCFCFCFCFCFCFCFCFCFCFCFCFCFCFCFCFC0000000000000000FCFCFCFCFCFCFC00000000000000000000000000000000000000000000000000000000000000FC00000000000000000000000000000000000000000000000000000000000000000000
310
00000000000000000000000000000000000000000000000000000000000000000000000000000000000000000000000000000000000000000000000000000000000000000000000000000000000000000000000000000000000000000000000000000000000000000000000000000000000000000000000000000000000000
310
00000000000000000000000000000000000000000000000000000000000000000000000000000000000000000000000000000000000000000000000000000000000000000000000000000000000000000000000000000000000000000000000000000000000000000000000000000000000000000000000000000000000000
310
00000000000000000000000000000000000000000000000000000000000000000000000000000000000000000000000000000000000000000000000000000000000000000000000000000000000000000000000000000000000000000000000000000000000000000000000000000000000000000000000000000000000000
310
0000000000000000000000000000000000000000000000000000000000000000000000000000000000000000000000000000000000000000
102
{BLKREFS
331
49C57
102
}
1001
ACAD
1000
DesignCenter Data
1002
{
1070
     1
1070
     4
1002
}
  0
BLOCK_RECORD
  5
49C00
330
1
100
AcDbSymbolTableRecord
100
AcDbBlockTableRecord
  2
3rd
340
0
310
2800000020000000200000000100080000000000000400000000000000000000000000000000000000000000000080000080000000808000800000008000800080800000C0C0C000C0DCC000F0CAA6000020400000206000002080000020A0000020C0000020E00000400000004020000040400000406000004080000040A0
310
000040C0000040E00000600000006020000060400000606000006080000060A0000060C0000060E00000800000008020000080400000806000008080000080A0000080C0000080E00000A0000000A0200000A0400000A0600000A0800000A0A00000A0C00000A0E00000C0000000C0200000C0400000C0600000C0800000C0
310
A00000C0C00000C0E00000E0000000E0200000E0400000E0600000E0800000E0A00000E0C00000E0E00040000000400020004000400040006000400080004000A0004000C0004000E00040200000402020004020400040206000402080004020A0004020C0004020E000404000004040200040404000404060004040800040
310
40A0004040C0004040E00040600000406020004060400040606000406080004060A0004060C0004060E00040800000408020004080400040806000408080004080A0004080C0004080E00040A0000040A0200040A0400040A0600040A0800040A0A00040A0C00040A0E00040C0000040C0200040C0400040C0600040C08000
310
40C0A00040C0C00040C0E00040E0000040E0200040E0400040E0600040E0800040E0A00040E0C00040E0E00080000000800020008000400080006000800080008000A0008000C0008000E00080200000802020008020400080206000802080008020A0008020C0008020E00080400000804020008040400080406000804080
310
008040A0008040C0008040E00080600000806020008060400080606000806080008060A0008060C0008060E00080800000808020008080400080806000808080008080A0008080C0008080E00080A0000080A0200080A0400080A0600080A0800080A0A00080A0C00080A0E00080C0000080C0200080C0400080C0600080C0
310
800080C0A00080C0C00080C0E00080E0000080E0200080E0400080E0600080E0800080E0A00080E0C00080E0E000C0000000C0002000C0004000C0006000C0008000C000A000C000C000C000E000C0200000C0202000C0204000C0206000C0208000C020A000C020C000C020E000C0400000C0402000C0404000C0406000C0
310
408000C040A000C040C000C040E000C0600000C0602000C0604000C0606000C0608000C060A000C060C000C060E000C0800000C0802000C0804000C0806000C0808000C080A000C080C000C080E000C0A00000C0A02000C0A04000C0A06000C0A08000C0A0A000C0A0C000C0A0E000C0C00000C0C02000C0C04000C0C06000
310
C0C08000C0C0A000F0FBFF00A4A0A000808080000000FF0000FF000000FFFF00FF000000FF00FF00FFFF0000FFFFFF0000000000000000000000000000000000000000000000000000000000000000000000000000000000000000000000000000000000000000000000000000000000000000000000000000000000000000
310
00000000000000000000000000000000000000000000000000000000000000000000000000000000000000000000000000000000000000000000000000000000000000000000000000000000000000000000000000000000000000000000000000000000000000000000000000000000000000000000000000000000000000
310
00000000000000000000000000000000000000000000000000000000000000000000000000000000000000000000000000000000000000000000000000000000000000000000000000000000000000000000000000000000000000000000000000000000000000000000000000000000000000000000000000000000000000
310
00000000000000000000000000000000000000000000FAFA0000000000000000000000000000000000000000FA000000000000000000FA00FAFAFAFA0000000000000000000000000000FAFAFAFAFA00000000000000FA0000000000FAFAFAFA000000000000000000FA0000FA0000FA000000000000FA0000000000000000
310
00FAFAFA000000000000FA0000FA0000FA00000000FAFAFAFAFAFAFAFAFAFAFAFAFAFAFAFAFA0000FAFAFAFAFAFAFAFAFAFAFA00000000FA0000000000000000000000FA000000000000FA00FAFAFA0000FA0000000000FA000000000000000000FAFAFA000000000000FA0000FA0000FA000000000000FA000000FAFAFAFA
310
FAFA00000000000000000000FA00FA0000FA000000000000FAFAFAFA00000000000000000000000000000000FAFAFAFAFA0000000000000000000000000000000000000000000000000000000000FA000000000000000000000000000000000000000000000000000000000000000000000000000000000000000000000000
310
00000000000000000000000000000000000000000000000000000000000000000000000000000000000000000000000000000000000000000000000000000000000000000000000000000000000000000000000000000000000000000000000000000000000000000000000000000000000000000000000000000000000000
310
00000000000000000000000000000000000000000000000000000000000000000000000000000000000000000000000000000000000000000000000000000000000000000000000000000000000000000000000000000000000000000000000000000000000000000000000000000000000000000000000000000000000000
310
0000000000000000000000000000000000000000000000000000000000000000000000000000000000000000000000000000000000000000
102
{BLKREFS
331
49CF2
102
}
1001
ACAD
1000
DesignCenter Data
1002
{
1070
     1
1070
     4
1002
}
  0
BLOCK_RECORD
  5
49C0C
330
1
100
AcDbSymbolTableRecord
100
AcDbBlockTableRecord
  2
TB
340
0
310
2800000020000000200000000100080000000000000400000000000000000000000000000000000000000000000080000080000000808000800000008000800080800000C0C0C000C0DCC000F0CAA6000020400000206000002080000020A0000020C0000020E00000400000004020000040400000406000004080000040A0
310
000040C0000040E00000600000006020000060400000606000006080000060A0000060C0000060E00000800000008020000080400000806000008080000080A0000080C0000080E00000A0000000A0200000A0400000A0600000A0800000A0A00000A0C00000A0E00000C0000000C0200000C0400000C0600000C0800000C0
310
A00000C0C00000C0E00000E0000000E0200000E0400000E0600000E0800000E0A00000E0C00000E0E00040000000400020004000400040006000400080004000A0004000C0004000E00040200000402020004020400040206000402080004020A0004020C0004020E000404000004040200040404000404060004040800040
310
40A0004040C0004040E00040600000406020004060400040606000406080004060A0004060C0004060E00040800000408020004080400040806000408080004080A0004080C0004080E00040A0000040A0200040A0400040A0600040A0800040A0A00040A0C00040A0E00040C0000040C0200040C0400040C0600040C08000
310
40C0A00040C0C00040C0E00040E0000040E0200040E0400040E0600040E0800040E0A00040E0C00040E0E00080000000800020008000400080006000800080008000A0008000C0008000E00080200000802020008020400080206000802080008020A0008020C0008020E00080400000804020008040400080406000804080
310
008040A0008040C0008040E00080600000806020008060400080606000806080008060A0008060C0008060E00080800000808020008080400080806000808080008080A0008080C0008080E00080A0000080A0200080A0400080A0600080A0800080A0A00080A0C00080A0E00080C0000080C0200080C0400080C0600080C0
310
800080C0A00080C0C00080C0E00080E0000080E0200080E0400080E0600080E0800080E0A00080E0C00080E0E000C0000000C0002000C0004000C0006000C0008000C000A000C000C000C000E000C0200000C0202000C0204000C0206000C0208000C020A000C020C000C020E000C0400000C0402000C0404000C0406000C0
310
408000C040A000C040C000C040E000C0600000C0602000C0604000C0606000C0608000C060A000C060C000C060E000C0800000C0802000C0804000C0806000C0808000C080A000C080C000C080E000C0A00000C0A02000C0A04000C0A06000C0A08000C0A0A000C0A0C000C0A0E000C0C00000C0C02000C0C04000C0C06000
310
C0C08000C0C0A000F0FBFF00A4A0A000808080000000FF0000FF000000FFFF00FF000000FF00FF00FFFF0000FFFFFF0000000000000000000000000000000000000000000000000000000000000000000000000000000000000000000000000000000000000000000000000000000000000000000000000000000000000000
310
000000000000000000000000000000000000000000000000000000000000000000000000000000000000000000000000000000000000000000000000000000000000000000000000000000000000000000000000000000000000000000000000000000000000000000000000000000000000FAFAFAFAFAFAFAFAFAFAFAFAFA
310
FAFAFAFAFAFAFAFAFAFAFAFAFAFAFAFAFA0000FAFAFAFAFAFAFAFAFAFAFAFAFAFAFAFAFAFAFAFAFAFAFAFAFAFAFAFAFAFA0000FAFA0000000000000000000000000000000000000000000000000000FAFA0000FAFA0000000000000000000000000000000000000000000000000000FAFA0000FAFA00000000000000000000
310
00000000000000000000000000000000FAFA0000FAFA0000000000000000000000000000000000000000000000000000FAFA0000FAFA0000000000000000000000000000000000000000000000000000FAFA0000FAFA0000000000000000000000000000000000000000000000000000FAFA0000FAFA000000000000000000
310
0000000000000000000000000000000000FAFA0000FAFA0000000000000000000000000000000000000000000000000000FAFA0000FAFA0000000000000000000000000000000000000000000000000000FAFA0000FAFA0000000000000000000000000000000000000000000000000000FAFA0000FAFA0000000000000000
310
000000000000000000000000000000000000FAFA0000FAFA0000000000000000000000000000000000000000000000000000FAFA0000FAFA0000000000000000000000000000000000000000000000000000FAFA0000FAFA0000000000000000000000000000000000000000000000000000FAFA0000FAFA00000000000000
310
00000000000000000000000000000000000000FAFA0000FAFA0000000000000000000000000000000000000000000000000000FAFA0000FAFAFAFAFAFAFAFAFAFAFAFAFAFAFAFAFAFAFAFAFAFAFAFAFAFAFAFAFAFA0000FAFAFAFAFAFAFAFAFAFAFAFAFAFAFAFAFAFAFAFAFAFAFAFAFAFAFAFAFAFA00000000000000000000
310
00000000000000000000000000000000000000000000000000000000000000000000000000000000000000000000000000000000000000000000000000000000000000000000000000000000000000000000000000000000000000000000000000000000000000000000000000000000000000000000000000000000000000
310
0000000000000000000000000000000000000000000000000000000000000000000000000000000000000000000000000000000000000000
102
{BLKREFS
331
0
102
}
1001
ACAD
1000
DesignCenter Data
1002
{
1070
     1
1070
     4
1002
}
  0
BLOCK_RECORD
  5
49C53
102
{ACAD_XDICTIONARY
360
49C54
102
}
330
1
100
AcDbSymbolTableRecord
100
AcDbBlockTableRecord
  2
MMI PRECISION FORMING
340
0
102
{BLKREFS
331
49CF3
102
}
1001
ACAD
1000
DesignCenter Data
1002
{
1070
     1
1070
     4
1002
}
  0
BLOCK_RECORD
  5
49CC9
330
1
100
AcDbSymbolTableRecord
100
AcDbBlockTableRecord
  2
*T104
340
0
102
{BLKREFS
331
0
102
}
  0
BLOCK_RECORD
  5
49CDE
330
1
100
AcDbSymbolTableRecord
100
AcDbBlockTableRecord
  2
*T105
340
0
102
{BLKREFS
331
0
102
}
  0
BLOCK_RECORD
  5
49D10
330
1
100
AcDbSymbolTableRecord
100
AcDbBlockTableRecord
  2
*T106
340
0
102
{BLKREFS
331
0
102
}
  0
ENDTAB
  0
ENDSEC
  0
SECTION
  2
BLOCKS
  0
BLOCK
  5
5
330
2
100
AcDbEntity
  8
0
100
AcDbBlockBegin
  2
*Model_Space
 70
     0
 10
0.0
 20
0.0
 30
0.0
  3
*Model_Space
  1
*Model_Space
  0
ENDBLK
  5
12
330
2
100
AcDbEntity
  8
0
100
AcDbBlockEnd
  0
BLOCK
  5
1C
330
1B
100
AcDbEntity
 67
     1
  8
0
100
AcDbBlockBegin
  2
*Paper_Space
 70
     0
 10
0.0
 20
0.0
 30
0.0
  3
*Paper_Space
  1
*Paper_Space
  0
ENDBLK
  5
1D
330
1B
100
AcDbEntity
 67
     1
  8
0
100
AcDbBlockEnd
  0
BLOCK
  5
4980E
330
4980D
100
AcDbEntity
  8
0
100
AcDbBlockBegin
  2
*D73
 70
     1
 10
0.0
 20
0.0
 30
0.0
  3
*D73
  1
*D73
  0
LINE
  5
49878
330
4980D
100
AcDbEntity
  8
0-dimension
  6
Continuous
 62
     0
370
    -2
100
AcDbLine
 10
5775.069510641969
 20
-3744.201219074819
 30
0.0
 11
5802.445624089406
 21
-3744.201219074819
 31
0.0
  0
MTEXT
  5
49879
330
4980D
100
AcDbEntity
  8
0-dimension
  6
Continuous
 62
     0
100
AcDbMText
 10
5796.445624089406
 20
-3742.001219074819
 30
0.0
 40
3.0
 41
0.0
 71
     5
 72
     1
  1
0.000"
 73
     1
 44
1.0
  0
POINT
  5
4987A
330
4980D
100
AcDbEntity
  8
Defpoints
  6
Continuous
 62
     0
100
AcDbPoint
 10
5774.569510641969
 20
-3744.201219074819
 30
0.0
  0
POINT
  5
4987B
330
4980D
100
AcDbEntity
  8
Defpoints
  6
Continuous
 62
     0
100
AcDbPoint
 10
5789.745624089406
 20
-3744.201219074819
 30
0.0
  0
POINT
  5
4987C
330
4980D
100
AcDbEntity
  8
Defpoints
  6
Continuous
 62
     0
100
AcDbPoint
 10
5774.569510641969
 20
-3744.201219074819
 30
0.0
  0
ENDBLK
  5
4980F
330
4980D
100
AcDbEntity
  8
0
100
AcDbBlockEnd
  0
BLOCK
  5
49817
330
49816
100
AcDbEntity
  8
0
100
AcDbBlockBegin
  2
*D74
 70
     1
 10
0.0
 20
0.0
 30
0.0
  3
*D74
  1
*D74
  0
LINE
  5
49AB9
330
49816
100
AcDbEntity
  8
0-dimension
  6
Continuous
 62
     0
370
    -2
100
AcDbLine
 10
5774.569510641969
 20
-3743.701219074819
 30
0.0
 11
5774.569510641969
 21
-3719.37181622223
 31
0.0
  0
MTEXT
  5
49ABA
330
49816
100
AcDbEntity
  8
0-dimension
  6
Continuous
 62
     0
100
AcDbMText
 10
5772.36951064197
 20
-3725.371816222229
 30
0.0
 40
3.0
 41
0.0
 71
     5
 72
     1
  1
0.000"
 11
6.123233995736766E-17
 21
1.0
 31
0.0
 73
     1
 44
1.0
  0
POINT
  5
49ABB
330
49816
100
AcDbEntity
  8
Defpoints
  6
Continuous
 62
     0
100
AcDbPoint
 10
5774.569510641969
 20
-3744.201219074819
 30
0.0
  0
POINT
  5
49ABC
330
49816
100
AcDbEntity
  8
Defpoints
  6
Continuous
 62
     0
100
AcDbPoint
 10
5774.569510641969
 20
-3732.07181622223
 30
0.0
  0
POINT
  5
49ABD
330
49816
100
AcDbEntity
  8
Defpoints
  6
Continuous
 62
     0
100
AcDbPoint
 10
5774.569510641969
 20
-3744.201219074819
 30
0.0
  0
ENDBLK
  5
49818
330
49816
100
AcDbEntity
  8
0
100
AcDbBlockEnd
  0
BLOCK
  5
49820
330
4981F
100
AcDbEntity
  8
0
100
AcDbBlockBegin
  2
*D75
 70
     1
 10
0.0
 20
0.0
 30
0.0
  3
*D75
  1
*D75
  0
LINE
  5
499C4
330
4981F
100
AcDbEntity
  8
0-dimension
  6
Continuous
 62
     0
370
    -2
100
AcDbLine
 10
5757.069510641969
 20
-3775.701219074819
 30
0.0
 11
5802.945624089406
 21
-3775.701219074819
 31
0.0
  0
MTEXT
  5
499C5
330
4981F
100
AcDbEntity
  8
0-dimension
  6
Continuous
 62
     0
100
AcDbMText
 10
5796.695624089406
 20
-3773.501219074819
 30
0.0
 40
3.0
 41
0.0
 71
     5
 72
     1
  1
1.240"
 73
     1
 44
1.0
  0
POINT
  5
499C6
330
4981F
100
AcDbEntity
  8
Defpoints
  6
Continuous
 62
     0
100
AcDbPoint
 10
5756.569510641969
 20
-3775.701219074819
 30
0.0
  0
POINT
  5
499C7
330
4981F
100
AcDbEntity
  8
Defpoints
  6
Continuous
 62
     0
100
AcDbPoint
 10
5789.745624089406
 20
-3775.701219074819
 30
0.0
  0
POINT
  5
499C8
330
4981F
100
AcDbEntity
  8
Defpoints
  6
Continuous
 62
     0
100
AcDbPoint
 10
5774.569510641969
 20
-3744.201219074819
 30
0.0
  0
ENDBLK
  5
49821
330
4981F
100
AcDbEntity
  8
0
100
AcDbBlockEnd
  0
BLOCK
  5
49829
330
49828
100
AcDbEntity
  8
0
100
AcDbBlockBegin
  2
*D76
 70
     1
 10
0.0
 20
0.0
 30
0.0
  3
*D76
  1
*D76
  0
LINE
  5
49887
330
49828
100
AcDbEntity
  8
0-dimension
  6
Continuous
 62
     0
370
    -2
100
AcDbLine
 10
5757.069510641969
 20
-3785.701219074819
 30
0.0
 11
5803.445624089406
 21
-3785.701219074819
 31
0.0
  0
MTEXT
  5
49888
330
49828
100
AcDbEntity
  8
0-dimension
  6
Continuous
 62
     0
100
AcDbMText
 10
5796.945624089406
 20
-3783.501219074819
 30
0.0
 40
3.0
 41
0.0
 71
     5
 72
     1
  1
1.634"
 73
     1
 44
1.0
  0
POINT
  5
49889
330
49828
100
AcDbEntity
  8
Defpoints
  6
Continuous
 62
     0
100
AcDbPoint
 10
5756.569510641969
 20
-3785.701219074819
 30
0.0
  0
POINT
  5
4988A
330
49828
100
AcDbEntity
  8
Defpoints
  6
Continuous
 62
     0
100
AcDbPoint
 10
5789.745624089406
 20
-3785.701219074819
 30
0.0
  0
POINT
  5
4988B
330
49828
100
AcDbEntity
  8
Defpoints
  6
Continuous
 62
     0
100
AcDbPoint
 10
5774.569510641969
 20
-3744.201219074819
 30
0.0
  0
ENDBLK
  5
4982A
330
49828
100
AcDbEntity
  8
0
100
AcDbBlockEnd
  0
BLOCK
  5
49832
330
49831
100
AcDbEntity
  8
0
100
AcDbBlockBegin
  2
*D77
 70
     1
 10
0.0
 20
0.0
 30
0.0
  3
*D77
  1
*D77
  0
LINE
  5
4988C
330
49831
100
AcDbEntity
  8
0-dimension
  6
Continuous
 62
     0
370
    -2
100
AcDbLine
 10
5757.069510641969
 20
-3795.701219074819
 30
0.0
 11
5803.945624089406
 21
-3795.701219074819
 31
0.0
  0
MTEXT
  5
4988D
330
49831
100
AcDbEntity
  8
0-dimension
  6
Continuous
 62
     0
100
AcDbMText
 10
5797.195624089406
 20
-3793.501219074819
 30
0.0
 40
3.0
 41
0.0
 71
     5
 72
     1
  1
2.028"
 73
     1
 44
1.0
  0
POINT
  5
4988E
330
49831
100
AcDbEntity
  8
Defpoints
  6
Continuous
 62
     0
100
AcDbPoint
 10
5756.569510641969
 20
-3795.701219074819
 30
0.0
  0
POINT
  5
4988F
330
49831
100
AcDbEntity
  8
Defpoints
  6
Continuous
 62
     0
100
AcDbPoint
 10
5789.745624089406
 20
-3795.701219074819
 30
0.0
  0
POINT
  5
49890
330
49831
100
AcDbEntity
  8
Defpoints
  6
Continuous
 62
     0
100
AcDbPoint
 10
5774.569510641969
 20
-3744.201219074819
 30
0.0
  0
ENDBLK
  5
49833
330
49831
100
AcDbEntity
  8
0
100
AcDbBlockEnd
  0
BLOCK
  5
4983B
330
4983A
100
AcDbEntity
  8
0
100
AcDbBlockBegin
  2
*D78
 70
     1
 10
0.0
 20
0.0
 30
0.0
  3
*D78
  1
*D78
  0
LINE
  5
49891
330
4983A
100
AcDbEntity
  8
0-dimension
  6
Continuous
 62
     0
370
    -2
100
AcDbLine
 10
5757.069510641969
 20
-3805.701219074819
 30
0.0
 11
5803.445624089406
 21
-3805.701219074819
 31
0.0
  0
MTEXT
  5
49892
330
4983A
100
AcDbEntity
  8
0-dimension
  6
Continuous
 62
     0
100
AcDbMText
 10
5796.945624089406
 20
-3803.501219074819
 30
0.0
 40
3.0
 41
0.0
 71
     5
 72
     1
  1
2.421"
 73
     1
 44
1.0
  0
POINT
  5
49893
330
4983A
100
AcDbEntity
  8
Defpoints
  6
Continuous
 62
     0
100
AcDbPoint
 10
5756.569510641969
 20
-3805.701219074819
 30
0.0
  0
POINT
  5
49894
330
4983A
100
AcDbEntity
  8
Defpoints
  6
Continuous
 62
     0
100
AcDbPoint
 10
5789.745624089406
 20
-3805.701219074819
 30
0.0
  0
POINT
  5
49895
330
4983A
100
AcDbEntity
  8
Defpoints
  6
Continuous
 62
     0
100
AcDbPoint
 10
5774.569510641969
 20
-3744.201219074819
 30
0.0
  0
ENDBLK
  5
4983C
330
4983A
100
AcDbEntity
  8
0
100
AcDbBlockEnd
  0
BLOCK
  5
49844
330
49843
100
AcDbEntity
  8
0
100
AcDbBlockBegin
  2
*D79
 70
     1
 10
0.0
 20
0.0
 30
0.0
  3
*D79
  1
*D79
  0
LINE
  5
49896
330
49843
100
AcDbEntity
  8
0-dimension
  6
Continuous
 62
     0
370
    -2
100
AcDbLine
 10
5757.069510641969
 20
-3815.701219074819
 30
0.0
 11
5803.445624089406
 21
-3815.701219074819
 31
0.0
  0
MTEXT
  5
49897
330
49843
100
AcDbEntity
  8
0-dimension
  6
Continuous
 62
     0
100
AcDbMText
 10
5796.945624089406
 20
-3813.501219074819
 30
0.0
 40
3.0
 41
0.0
 71
     5
 72
     1
  1
2.815"
 73
     1
 44
1.0
  0
POINT
  5
49898
330
49843
100
AcDbEntity
  8
Defpoints
  6
Continuous
 62
     0
100
AcDbPoint
 10
5756.569510641969
 20
-3815.701219074819
 30
0.0
  0
POINT
  5
49899
330
49843
100
AcDbEntity
  8
Defpoints
  6
Continuous
 62
     0
100
AcDbPoint
 10
5789.745624089406
 20
-3815.701219074819
 30
0.0
  0
POINT
  5
4989A
330
49843
100
AcDbEntity
  8
Defpoints
  6
Continuous
 62
     0
100
AcDbPoint
 10
5774.569510641969
 20
-3744.201219074819
 30
0.0
  0
ENDBLK
  5
49845
330
49843
100
AcDbEntity
  8
0
100
AcDbBlockEnd
  0
BLOCK
  5
4984D
330
4984C
100
AcDbEntity
  8
0
100
AcDbBlockBegin
  2
*D80
 70
     1
 10
0.0
 20
0.0
 30
0.0
  3
*D80
  1
*D80
  0
LINE
  5
4989B
330
4984C
100
AcDbEntity
  8
0-dimension
  6
Continuous
 62
     0
370
    -2
100
AcDbLine
 10
5757.069510641969
 20
-3825.701219074819
 30
0.0
 11
5803.945624089406
 21
-3825.701219074819
 31
0.0
  0
MTEXT
  5
4989C
330
4984C
100
AcDbEntity
  8
0-dimension
  6
Continuous
 62
     0
100
AcDbMText
 10
5797.195624089406
 20
-3823.501219074819
 30
0.0
 40
3.0
 41
0.0
 71
     5
 72
     1
  1
3.209"
 73
     1
 44
1.0
  0
POINT
  5
4989D
330
4984C
100
AcDbEntity
  8
Defpoints
  6
Continuous
 62
     0
100
AcDbPoint
 10
5756.569510641969
 20
-3825.701219074819
 30
0.0
  0
POINT
  5
4989E
330
4984C
100
AcDbEntity
  8
Defpoints
  6
Continuous
 62
     0
100
AcDbPoint
 10
5789.745624089406
 20
-3825.701219074819
 30
0.0
  0
POINT
  5
4989F
330
4984C
100
AcDbEntity
  8
Defpoints
  6
Continuous
 62
     0
100
AcDbPoint
 10
5774.569510641969
 20
-3744.201219074819
 30
0.0
  0
ENDBLK
  5
4984E
330
4984C
100
AcDbEntity
  8
0
100
AcDbBlockEnd
  0
BLOCK
  5
49856
330
49855
100
AcDbEntity
  8
0
100
AcDbBlockBegin
  2
*D81
 70
     1
 10
0.0
 20
0.0
 30
0.0
  3
*D81
  1
*D81
  0
LINE
  5
498A0
330
49855
100
AcDbEntity
  8
0-dimension
  6
Continuous
 62
     0
370
    -2
100
AcDbLine
 10
5757.069510641969
 20
-3835.701219074819
 30
0.0
 11
5803.945624089406
 21
-3835.701219074819
 31
0.0
  0
MTEXT
  5
498A1
330
49855
100
AcDbEntity
  8
0-dimension
  6
Continuous
 62
     0
100
AcDbMText
 10
5797.195624089406
 20
-3833.501219074819
 30
0.0
 40
3.0
 41
0.0
 71
     5
 72
     1
  1
3.602"
 73
     1
 44
1.0
  0
POINT
  5
498A2
330
49855
100
AcDbEntity
  8
Defpoints
  6
Continuous
 62
     0
100
AcDbPoint
 10
5756.569510641969
 20
-3835.701219074819
 30
0.0
  0
POINT
  5
498A3
330
49855
100
AcDbEntity
  8
Defpoints
  6
Continuous
 62
     0
100
AcDbPoint
 10
5789.745624089406
 20
-3835.701219074819
 30
0.0
  0
POINT
  5
498A4
330
49855
100
AcDbEntity
  8
Defpoints
  6
Continuous
 62
     0
100
AcDbPoint
 10
5774.569510641969
 20
-3744.201219074819
 30
0.0
  0
ENDBLK
  5
49857
330
49855
100
AcDbEntity
  8
0
100
AcDbBlockEnd
  0
BLOCK
  5
4985F
330
4985E
100
AcDbEntity
  8
0
100
AcDbBlockBegin
  2
*D82
 70
     1
 10
0.0
 20
0.0
 30
0.0
  3
*D82
  1
*D82
  0
LINE
  5
498A5
330
4985E
100
AcDbEntity
  8
0-dimension
  6
Continuous
 62
     0
370
    -2
100
AcDbLine
 10
5757.069510641969
 20
-3845.701219074819
 30
0.0
 11
5804.445624089406
 21
-3845.701219074819
 31
0.0
  0
MTEXT
  5
498A6
330
4985E
100
AcDbEntity
  8
0-dimension
  6
Continuous
 62
     0
100
AcDbMText
 10
5797.445624089406
 20
-3843.501219074819
 30
0.0
 40
3.0
 41
0.0
 71
     5
 72
     1
  1
3.996"
 73
     1
 44
1.0
  0
POINT
  5
498A7
330
4985E
100
AcDbEntity
  8
Defpoints
  6
Continuous
 62
     0
100
AcDbPoint
 10
5756.569510641969
 20
-3845.701219074819
 30
0.0
  0
POINT
  5
498A8
330
4985E
100
AcDbEntity
  8
Defpoints
  6
Continuous
 62
     0
100
AcDbPoint
 10
5789.745624089406
 20
-3845.701219074819
 30
0.0
  0
POINT
  5
498A9
330
4985E
100
AcDbEntity
  8
Defpoints
  6
Continuous
 62
     0
100
AcDbPoint
 10
5774.569510641969
 20
-3744.201219074819
 30
0.0
  0
ENDBLK
  5
49860
330
4985E
100
AcDbEntity
  8
0
100
AcDbBlockEnd
  0
BLOCK
  5
49868
330
49867
100
AcDbEntity
  8
0
100
AcDbBlockBegin
  2
*D83
 70
     1
 10
0.0
 20
0.0
 30
0.0
  3
*D83
  1
*D83
  0
LINE
  5
498AA
330
49867
100
AcDbEntity
  8
0-dimension
  6
Continuous
 62
     0
370
    -2
100
AcDbLine
 10
5757.069510641969
 20
-3855.701219074819
 30
0.0
 11
5803.945624089406
 21
-3855.701219074819
 31
0.0
  0
MTEXT
  5
498AB
330
49867
100
AcDbEntity
  8
0-dimension
  6
Continuous
 62
     0
100
AcDbMText
 10
5797.195624089406
 20
-3853.501219074819
 30
0.0
 40
3.0
 41
0.0
 71
     5
 72
     1
  1
4.390"
 73
     1
 44
1.0
  0
POINT
  5
498AC
330
49867
100
AcDbEntity
  8
Defpoints
  6
Continuous
 62
     0
100
AcDbPoint
 10
5756.569510641969
 20
-3855.701219074819
 30
0.0
  0
POINT
  5
498AD
330
49867
100
AcDbEntity
  8
Defpoints
  6
Continuous
 62
     0
100
AcDbPoint
 10
5789.745624089406
 20
-3855.701219074819
 30
0.0
  0
POINT
  5
498AE
330
49867
100
AcDbEntity
  8
Defpoints
  6
Continuous
 62
     0
100
AcDbPoint
 10
5774.569510641969
 20
-3744.201219074819
 30
0.0
  0
ENDBLK
  5
49869
330
49867
100
AcDbEntity
  8
0
100
AcDbBlockEnd
  0
BLOCK
  5
49871
330
49870
100
AcDbEntity
  8
0
100
AcDbBlockBegin
  2
*D84
 70
     1
 10
0.0
 20
0.0
 30
0.0
  3
*D84
  1
*D84
  0
LINE
  5
498AF
330
49870
100
AcDbEntity
  8
0-dimension
  6
Continuous
 62
     0
370
    -2
100
AcDbLine
 10
5757.069510641969
 20
-3865.701219074819
 30
0.0
 11
5804.445624089406
 21
-3865.701219074819
 31
0.0
  0
MTEXT
  5
498B0
330
49870
100
AcDbEntity
  8
0-dimension
  6
Continuous
 62
     0
100
AcDbMText
 10
5797.445624089406
 20
-3863.501219074819
 30
0.0
 40
3.0
 41
0.0
 71
     5
 72
     1
  1
4.783"
 73
     1
 44
1.0
  0
POINT
  5
498B1
330
49870
100
AcDbEntity
  8
Defpoints
  6
Continuous
 62
     0
100
AcDbPoint
 10
5756.569510641969
 20
-3865.701219074819
 30
0.0
  0
POINT
  5
498B2
330
49870
100
AcDbEntity
  8
Defpoints
  6
Continuous
 62
     0
100
AcDbPoint
 10
5789.745624089406
 20
-3865.701219074819
 30
0.0
  0
POINT
  5
498B3
330
49870
100
AcDbEntity
  8
Defpoints
  6
Continuous
 62
     0
100
AcDbPoint
 10
5774.569510641969
 20
-3744.201219074819
 30
0.0
  0
ENDBLK
  5
49872
330
49870
100
AcDbEntity
  8
0
100
AcDbBlockEnd
  0
BLOCK
  5
498B6
330
498B5
100
AcDbEntity
  8
0
100
AcDbBlockBegin
  2
*D85
 70
     1
 10
0.0
 20
0.0
 30
0.0
  3
*D85
  1
*D85
  0
LINE
  5
498C0
330
498B5
100
AcDbEntity
  8
0-dimension
  6
Continuous
 62
     0
370
    -2
100
AcDbLine
 10
5805.349557238967
 20
-3767.165692841111
 30
0.0
 11
5786.149557238967
 21
-3767.165692841111
 31
0.0
  0
LINE
  5
498C1
330
498B5
100
AcDbEntity
  8
0-dimension
  6
Continuous
 62
     0
370
    -2
100
AcDbLine
 10
5786.149557238967
 20
-3767.165692841111
 30
0.0
 11
5763.844076680632
 21
-3777.372452193655
 31
0.0
  0
MTEXT
  5
498C2
330
498B5
100
AcDbEntity
  8
0-dimension
  6
Continuous
 62
     0
100
AcDbMText
 10
5796.099557238967
 20
-3764.965692841111
 30
0.0
 40
3.0
 41
0.0
 71
     5
 72
     1
  1
9-0.197"
 73
     1
 44
1.0
  0
LINE
  5
498C3
330
498B5
100
AcDbEntity
  8
0-dimension
  6
Continuous
 62
     0
370
    -2
100
AcDbLine
 10
5756.569510641963
 20
-3780.701219074813
 30
0.0
 11
5761.116114416132
 21
-3778.620739774089
 31
0.0
  0
SOLID
  5
498C4
330
498B5
100
AcDbEntity
  8
0-dimension
  6
Continuous
 62
     0
100
AcDbTrace
 10
5763.636028750559
 20
-3776.917791816238
 30
0.0
 11
5764.052124610704
 21
-3777.827112571072
 31
0.0
 12
5761.116114416132
 22
-3778.620739774089
 32
0.0
 13
5761.116114416132
 23
-3778.620739774089
 33
0.0
  0
POINT
  5
498C5
330
498B5
100
AcDbEntity
  8
Defpoints
  6
Continuous
 62
     0
100
AcDbPoint
 10
5761.116114416132
 20
-3778.620739774089
 30
0.0
  0
POINT
  5
498C6
330
498B5
100
AcDbEntity
  8
Defpoints
  6
Continuous
 62
     0
100
AcDbPoint
 10
5756.569510641963
 20
-3780.701219074813
 30
0.0
  0
ENDBLK
  5
498B7
330
498B5
100
AcDbEntity
  8
0
100
AcDbBlockEnd
  0
BLOCK
  5
4999F
330
4999E
100
AcDbEntity
  8
0
100
AcDbBlockBegin
  2
*D86
 70
     1
 10
0.0
 20
0.0
 30
0.0
  3
*D86
  1
*D86
  0
LINE
  5
49AB4
330
4999E
100
AcDbEntity
  8
0-dimension
  6
Continuous
 62
     0
370
    -2
100
AcDbLine
 10
5756.569510641969
 20
-3775.201219074819
 30
0.0
 11
5756.569510641969
 21
-3703.87181622223
 31
0.0
  0
MTEXT
  5
49AB5
330
4999E
100
AcDbEntity
  8
0-dimension
  6
Continuous
 62
     0
100
AcDbMText
 10
5754.36951064197
 20
-3717.621816222229
 30
0.0
 40
3.0
 41
0.0
 71
     5
 72
     1
  1
0.709" (10X)
 11
6.123233995736766E-17
 21
1.0
 31
0.0
 73
     1
 44
1.0
  0
POINT
  5
49AB6
330
4999E
100
AcDbEntity
  8
Defpoints
  6
Continuous
 62
     0
100
AcDbPoint
 10
5756.569510641969
 20
-3775.701219074819
 30
0.0
  0
POINT
  5
49AB7
330
4999E
100
AcDbEntity
  8
Defpoints
  6
Continuous
 62
     0
100
AcDbPoint
 10
5756.569510641969
 20
-3732.07181622223
 30
0.0
  0
POINT
  5
49AB8
330
4999E
100
AcDbEntity
  8
Defpoints
  6
Continuous
 62
     0
100
AcDbPoint
 10
5774.569510641969
 20
-3744.201219074819
 30
0.0
  0
ENDBLK
  5
499A0
330
4999E
100
AcDbEntity
  8
0
100
AcDbBlockEnd
  0
BLOCK
  5
49A71
330
49A70
100
AcDbEntity
  8
0
100
AcDbBlockBegin
  2
*D87
 70
     1
 10
0.0
 20
0.0
 30
0.0
  3
*D87
  1
*D87
  0
LINE
  5
49AAA
330
49A70
100
AcDbEntity
  8
0-dimension
  6
Continuous
 62
     0
370
    -2
100
AcDbLine
 10
5682.569510641969
 20
-3775.201219074819
 30
0.0
 11
5682.569510641969
 21
-3717.37181622223
 31
0.0
  0
MTEXT
  5
49AAB
330
49A70
100
AcDbEntity
  8
0-dimension
  6
Continuous
 62
     0
100
AcDbMText
 10
5680.36951064197
 20
-3724.371816222229
 30
0.0
 40
3.0
 41
0.0
 71
     5
 72
     1
  1
3.622"
 11
6.123233995736766E-17
 21
1.0
 31
0.0
 73
     1
 44
1.0
  0
POINT
  5
49AAC
330
49A70
100
AcDbEntity
  8
Defpoints
  6
Continuous
 62
     0
100
AcDbPoint
 10
5682.569510641969
 20
-3775.701219074819
 30
0.0
  0
POINT
  5
49AAD
330
49A70
100
AcDbEntity
  8
Defpoints
  6
Continuous
 62
     0
100
AcDbPoint
 10
5682.569510641969
 20
-3732.07181622223
 30
0.0
  0
POINT
  5
49AAE
330
49A70
100
AcDbEntity
  8
Defpoints
  6
Continuous
 62
     0
100
AcDbPoint
 10
5774.569510641969
 20
-3744.201219074819
 30
0.0
  0
ENDBLK
  5
49A72
330
49A70
100
AcDbEntity
  8
0
100
AcDbBlockEnd
  0
BLOCK
  5
49A7A
330
49A79
100
AcDbEntity
  8
0
100
AcDbBlockBegin
  2
*D88
 70
     1
 10
0.0
 20
0.0
 30
0.0
  3
*D88
  1
*D88
  0
LINE
  5
49AA5
330
49A79
100
AcDbEntity
  8
0-dimension
  6
Continuous
 62
     0
370
    -2
100
AcDbLine
 10
5682.569510641969
 20
-3866.201219074819
 30
0.0
 11
5682.569510641969
 21
-3922.774156407016
 31
0.0
  0
MTEXT
  5
49AA6
330
49A79
100
AcDbEntity
  8
0-dimension
  6
Continuous
 62
     0
100
AcDbMText
 10
5680.36951064197
 20
-3915.774156407015
 30
0.0
 40
3.0
 41
0.0
 71
     5
 72
     1
  1
3.622"
 11
6.123233995736766E-17
 21
1.0
 31
0.0
 73
     1
 44
1.0
  0
POINT
  5
49AA7
330
49A79
100
AcDbEntity
  8
Defpoints
  6
Continuous
 62
     0
100
AcDbPoint
 10
5682.569510641969
 20
-3865.701219074819
 30
0.0
  0
POINT
  5
49AA8
330
49A79
100
AcDbEntity
  8
Defpoints
  6
Continuous
 62
     0
100
AcDbPoint
 10
5682.569510641969
 20
-3908.074156407016
 30
0.0
  0
POINT
  5
49AA9
330
49A79
100
AcDbEntity
  8
Defpoints
  6
Continuous
 62
     0
100
AcDbPoint
 10
5774.569510641969
 20
-3744.201219074819
 30
0.0
  0
ENDBLK
  5
49A7B
330
49A79
100
AcDbEntity
  8
0
100
AcDbBlockEnd
  0
BLOCK
  5
49A83
330
49A82
100
AcDbEntity
  8
0
100
AcDbBlockBegin
  2
*D89
 70
     1
 10
0.0
 20
0.0
 30
0.0
  3
*D89
  1
*D89
  0
LINE
  5
49AAF
330
49A82
100
AcDbEntity
  8
0-dimension
  6
Continuous
 62
     0
370
    -2
100
AcDbLine
 10
5687.569510641969
 20
-3785.201219074819
 30
0.0
 11
5687.569510641969
 21
-3704.37181622223
 31
0.0
  0
MTEXT
  5
49AB0
330
49A82
100
AcDbEntity
  8
0-dimension
  6
Continuous
 62
     0
100
AcDbMText
 10
5685.36951064197
 20
-3717.871816222229
 30
0.0
 40
3.0
 41
0.0
 71
     5
 72
     1
  1
3.425" (8X)
 11
6.123233995736766E-17
 21
1.0
 31
0.0
 73
     1
 44
1.0
  0
POINT
  5
49AB1
330
49A82
100
AcDbEntity
  8
Defpoints
  6
Continuous
 62
     0
100
AcDbPoint
 10
5687.569510641969
 20
-3785.701219074819
 30
0.0
  0
POINT
  5
49AB2
330
49A82
100
AcDbEntity
  8
Defpoints
  6
Continuous
 62
     0
100
AcDbPoint
 10
5687.569510641969
 20
-3732.07181622223
 30
0.0
  0
POINT
  5
49AB3
330
49A82
100
AcDbEntity
  8
Defpoints
  6
Continuous
 62
     0
100
AcDbPoint
 10
5774.569510641969
 20
-3744.201219074819
 30
0.0
  0
ENDBLK
  5
49A84
330
49A82
100
AcDbEntity
  8
0
100
AcDbBlockEnd
  0
BLOCK
  5
49A97
330
49A96
100
AcDbEntity
  8
0
100
AcDbBlockBegin
  2
*D90
 70
     1
 10
0.0
 20
0.0
 30
0.0
  3
*D90
  1
*D90
  0
LINE
  5
49A99
330
49A96
100
AcDbEntity
  8
0-dimension
  6
Continuous
 62
     0
370
    -2
100
AcDbLine
 10
5682.069510641969
 20
-3775.201219074819
 30
0.0
 11
5677.44832596244
 21
-3775.201219074819
 31
0.0
  0
LINE
  5
49A9A
330
49A96
100
AcDbEntity
  8
0-dimension
  6
Continuous
 62
     0
370
    -2
100
AcDbLine
 10
5682.069510641969
 20
-3776.201219074819
 30
0.0
 11
5677.44832596244
 21
-3776.201219074819
 31
0.0
  0
LINE
  5
49A9B
330
49A96
100
AcDbEntity
  8
0-dimension
  6
Continuous
 62
     0
370
    -2
100
AcDbLine
 10
5677.94832596244
 20
-3772.201219074819
 30
0.0
 11
5677.94832596244
 21
-3769.201219074819
 31
0.0
  0
LINE
  5
49A9C
330
49A96
100
AcDbEntity
  8
0-dimension
  6
Continuous
 62
     0
370
    -2
100
AcDbLine
 10
5677.94832596244
 20
-3779.201219074819
 30
0.0
 11
5677.94832596244
 21
-3782.201219074819
 31
0.0
  0
LINE
  5
49A9D
330
49A96
100
AcDbEntity
  8
0-dimension
  6
Continuous
 62
     0
370
    -2
100
AcDbLine
 10
5677.94832596244
 20
-3782.201219074819
 30
0.0
 11
5664.248325962441
 21
-3782.201219074819
 31
0.0
  0
LINE
  5
49A9E
330
49A96
100
AcDbEntity
  8
0-dimension
  6
Continuous
 62
     0
370
    -2
100
AcDbLine
 10
5677.94832596244
 20
-3775.201219074819
 30
0.0
 11
5677.94832596244
 21
-3776.201219074819
 31
0.0
  0
SOLID
  5
49A9F
330
49A96
100
AcDbEntity
  8
0-dimension
  6
Continuous
 62
     0
100
AcDbTrace
 10
5677.44832596244
 20
-3772.201219074819
 30
0.0
 11
5678.44832596244
 21
-3772.201219074819
 31
0.0
 12
5677.94832596244
 22
-3775.201219074819
 32
0.0
 13
5677.94832596244
 23
-3775.201219074819
 33
0.0
  0
SOLID
  5
49AA0
330
49A96
100
AcDbEntity
  8
0-dimension
  6
Continuous
 62
     0
100
AcDbTrace
 10
5677.44832596244
 20
-3779.201219074819
 30
0.0
 11
5678.44832596244
 21
-3779.201219074819
 31
0.0
 12
5677.94832596244
 22
-3776.201219074819
 32
0.0
 13
5677.94832596244
 23
-3776.201219074819
 33
0.0
  0
MTEXT
  5
49AA1
330
49A96
100
AcDbEntity
  8
0-dimension
  6
Continuous
 62
     0
100
AcDbMText
 10
5670.748325962441
 20
-3780.001219074818
 30
0.0
 40
3.0
 41
0.0
 71
     5
 72
     1
  1
0.039"
 73
     1
 44
1.0
  0
POINT
  5
49AA2
330
49A96
100
AcDbEntity
  8
Defpoints
  6
Continuous
 62
     0
100
AcDbPoint
 10
5682.569510641969
 20
-3775.201219074819
 30
0.0
  0
POINT
  5
49AA3
330
49A96
100
AcDbEntity
  8
Defpoints
  6
Continuous
 62
     0
100
AcDbPoint
 10
5682.569510641969
 20
-3776.201219074819
 30
0.0
  0
POINT
  5
49AA4
330
49A96
100
AcDbEntity
  8
Defpoints
  6
Continuous
 62
     0
100
AcDbPoint
 10
5677.94832596244
 20
-3776.201219074819
 30
0.0
  0
ENDBLK
  5
49A98
330
49A96
100
AcDbEntity
  8
0
100
AcDbBlockEnd
  0
BLOCK
  5
49BF6
330
49BF4
100
AcDbEntity
  8
0
 62
     5
100
AcDbBlockBegin
  2
mmi
 70
     0
 10
0.0
 20
0.0
 30
0.0
  3
mmi
  1
mmi
  0
HATCH
  5
49BF7
330
49BF4
100
AcDbEntity
  8
TITLEBLOCK
 62
     5
100
AcDbHatch
 10
0.0
 20
0.0
 30
0.0
210
0.0
220
0.0
230
1.0
  2
SOLID
 70
     1
 71
     0
 91
        1
 92
        7
 72
     1
 73
     1
 93
       19
 10
3.565195526421121
 20
7.508332181477272
 42
0.7433427533459777
 10
1.560089452735156
 20
7.341720714978237
 42
0.0
 10
-0.0086485921136344
 20
-0.04069994048402
 42
0.9793750367894326
 10
0.9734057333889916
 20
-0.228143520542654
 42
0.0
 10
2.435017544198899
 20
6.648199412959912
 42
-0.7433427533459519
 10
2.816730577942053
 20
6.679917320141158
 42
0.0
 10
5.570740955967009
 20
-0.3114933237218859
 42
0.0107836287177934
 10
5.579248651481748
 20
-0.3313089122448218
 42
0.6435717917331887
 10
6.489415214562314
 20
-0.3313089122448218
 42
0.010783628737926
 10
6.497922910092141
 20
-0.3114933236845446
 42
0.0
 10
9.25193328777641
 20
6.679917320141158
 42
-0.7433427533459777
 10
9.633646321519564
 20
6.648199412959912
 42
0.0
 10
11.09525813265509
 20
-0.2281435205427442
 42
0.0105039419095773
 10
11.10005606363116
 20
-0.2485937936560275
 42
0.9590055188907498
 10
12.07731245814998
 20
-0.0406999404392122
 42
0.0
 10
10.50857441298331
 20
7.341720714978237
 42
0.7433427533460031
 10
8.50346833929757
 20
7.508332181477272
 42
0.0
 10
6.220415446455718
 20
1.712464759375052
 42
-0.6808757648994651
 10
5.848248419262745
 20
1.712464759375052
 42
0.0
 97
        0
 75
     0
 76
     1
 47
0.0243667603406349
 98
        1
 10
3.35553351008798
 20
6.742683082394706
1001
ACAD
1010
0.0
1020
0.0
1030
0.0
  0
LWPOLYLINE
  5
49BF8
330
49BF4
100
AcDbEntity
  8
TITLEBLOCK
 62
     5
100
AcDbPolyline
 90
       21
 70
     0
 43
0.0
 10
6.501122146270518
 20
-0.3033716499062393
 42
-0.0151489608638118
 10
6.489415214562314
 20
-0.3313089122448218
 42
-0.6435717917331887
 10
5.579248651481748
 20
-0.3313089122448218
 42
-0.0151489608638216
 10
5.567541719773544
 20
-0.3033716499062393
 10
2.816730577942053
 20
6.679917320141158
 42
0.7433427533459515
 10
2.435017544198899
 20
6.648199412959912
 10
0.9734057333889723
 20
-0.2281435205427442
 42
-0.0103911680768915
 10
0.9686638660441531
 20
-0.2483753502674517
 42
-1.0
 10
0.0
 20
0.0
 10
1.560089452735156
 20
7.341720714978237
 42
-0.7433427533459771
 10
3.565195526421121
 20
7.508332181477272
 10
5.848248419262745
 20
1.712464759375052
 42
0.6808757648994651
 10
6.220415446455718
 20
1.712464759375052
 10
8.50346833929757
 20
7.508332181477272
 42
-0.7433427533460026
 10
10.50857441298331
 20
7.341720714978237
 10
12.06866386604406
 20
0.0
 42
-1.0
 10
11.09999999999991
 20
-0.2483753502674517
 42
-0.0103911680768845
 10
11.09525813265509
 20
-0.2281435205427442
 10
9.633646321519564
 20
6.648199412959912
 42
0.7433427533459774
 10
9.25193328777641
 20
6.679917320141158
 10
6.501122146270518
 20
-0.3033716499062393
  0
HATCH
  5
49BF9
330
49BF4
100
AcDbEntity
  8
TITLEBLOCK
 62
     5
100
AcDbHatch
 10
0.0
 20
0.0
 30
0.0
210
0.0
220
0.0
230
1.0
  2
SOLID
 70
     1
 71
     0
 91
        2
 92
        7
 72
     1
 73
     1
 93
        2
 10
28.78433193273759
 20
9.77026698301006
 42
1.0
 10
26.78433193273759
 20
9.77026698301006
 42
1.0
 97
        0
 92
        7
 72
     1
 73
     1
 93
        4
 10
28.3843319327375
 20
7.570266983010242
 42
1.0
 10
27.18433193273768
 20
7.570266983010242
 42
0.0
 10
27.18433193273768
 20
-0.0241876751338168
 42
1.0
 10
28.3843319327375
 20
-0.0241876751338168
 42
0.0
 97
        0
 75
     0
 76
     1
 47
0.0560412823613726
 98
        2
 10
27.86162462163134
 20
9.774105089903514
 10
27.8055856125045
 20
7.308385117341004
1001
ACAD
1010
0.0
1020
0.0
1030
0.0
  0
LWPOLYLINE
  5
49BFA
330
49BF4
100
AcDbEntity
  8
TITLEBLOCK
 62
     5
100
AcDbPolyline
 90
        4
 70
     1
 43
0.0
 10
28.3843319327375
 20
7.570266983010242
 42
0.9999999999999999
 10
27.18433193273768
 20
7.570266983010242
 10
27.18433193273768
 20
-0.0241876751338168
 42
0.9999999999999999
 10
28.3843319327375
 20
-0.0241876751338168
  0
CIRCLE
  5
49BFB
330
49BF4
100
AcDbEntity
  8
TITLEBLOCK
 62
     5
100
AcDbCircle
 10
27.78433193273759
 20
9.77026698301006
 30
0.0
 40
1.0
  0
MTEXT
  5
49BFC
330
49BF4
100
AcDbEntity
  8
0-dimension
 62
     5
100
AcDbMText
 10
30.9761781109637
 20
3.849855248409312
 30
0.0
 40
4.356
 41
83.853
 71
     1
 72
     1
  1
{\fVerdana|b0|i0|c0|p34;MMI Precision Forming}
 73
     1
 44
1.0
  0
HATCH
  5
49BFD
330
49BF4
100
AcDbEntity
  8
TITLEBLOCK
 62
     5
100
AcDbHatch
 10
0.0
 20
0.0
 30
0.0
210
0.0
220
0.0
230
1.0
  2
SOLID
 70
     1
 71
     0
 91
        1
 92
        7
 72
     1
 73
     1
 93
       18
 10
17.06519552642112
 20
7.508332181477272
 42
0.7433427533459777
 10
15.06008945273516
 20
7.341720714978237
 42
0.0
 10
13.49135140788637
 20
-0.04069994048402
 42
0.9793750367894092
 10
14.47340573338899
 20
-0.2281435205426449
 42
0.0
 10
15.9350175441989
 20
6.648199412959912
 42
-0.7433427533459519
 10
16.31673057794205
 20
6.679917320141158
 42
0.0
 10
19.07074095596699
 20
-0.311493323721833
 42
0.0107836287178216
 10
19.07924865148175
 20
-0.3313089122448218
 42
0.6435717917331887
 10
19.98941521456231
 20
-0.3313089122448218
 42
0.010783628738005
 10
19.9979229100922
 20
-0.3114933236843979
 42
0.0
 10
22.75193328777641
 20
6.679917320141158
 42
-0.7433427533459777
 10
23.13364632151956
 20
6.648199412959912
 42
0.0
 10
24.59525813265978
 20
-0.2281435205648112
 42
0.9793750368088103
 10
25.57731245815059
 20
-0.0406999404420944
 42
0.0
 10
24.00857441298331
 20
7.341720714978237
 42
0.7433427533460031
 10
22.00346833929757
 20
7.508332181477272
 42
0.0
 10
19.72041544645572
 20
1.712464759375052
 42
-0.6808757648994651
 10
19.34824841926275
 20
1.712464759375052
 42
0.0
 97
        0
 75
     0
 76
     1
 47
0.0243667603406349
 98
        1
 10
16.85553351008798
 20
6.742683082394706
1001
ACAD
1010
0.0
1020
0.0
1030
0.0
  0
LWPOLYLINE
  5
49BFE
330
49BF4
100
AcDbEntity
  8
TITLEBLOCK
 62
     5
100
AcDbPolyline
 90
       21
 70
     0
 43
0.0
 10
20.00112214627052
 20
-0.3033716499062393
 42
-0.0151489608638118
 10
19.98941521456231
 20
-0.3313089122448218
 42
-0.6435717917331887
 10
19.07924865148175
 20
-0.3313089122448218
 42
-0.0151489608638216
 10
19.06754171977354
 20
-0.3033716499062393
 10
16.31673057794205
 20
6.679917320141158
 42
0.7433427533459515
 10
15.9350175441989
 20
6.648199412959912
 10
14.47340573338897
 20
-0.2281435205427442
 42
-0.0103911680768915
 10
14.46866386604415
 20
-0.2483753502674517
 42
-1.0
 10
13.5
 20
0.0
 10
15.06008945273516
 20
7.341720714978237
 42
-0.7433427533459771
 10
17.06519552642112
 20
7.508332181477272
 10
19.34824841926275
 20
1.712464759375052
 42
0.6808757648994651
 10
19.72041544645572
 20
1.712464759375052
 10
22.00346833929757
 20
7.508332181477272
 42
-0.7433427533460026
 10
24.00857441298331
 20
7.341720714978237
 10
25.56866386604406
 20
0.0
 42
-1.0
 10
24.59999999999991
 20
-0.2483753502674517
 42
-0.0103911680768845
 10
24.59525813265509
 20
-0.2281435205427442
 10
23.13364632151956
 20
6.648199412959912
 42
0.7433427533459774
 10
22.75193328777641
 20
6.679917320141158
 10
20.00112214627052
 20
-0.3033716499062393
  0
ENDBLK
  5
49BFF
330
49BF4
100
AcDbEntity
  8
0
 62
     5
100
AcDbBlockEnd
  0
BLOCK
  5
49C01
330
49C00
100
AcDbEntity
  8
0
100
AcDbBlockBegin
  2
3rd
 70
     0
 10
0.0
 20
0.0
 30
0.0
  3
3rd
  1
3rd
  0
LINE
  5
49C02
330
49C00
100
AcDbEntity
  8
TITLEBLOCK
  6
Continuous
100
AcDbLine
 10
-17.36076928153375
 20
-3.100141031300893
 30
0.0
 11
-7.440358968873852
 21
-1.240051289082459
 31
0.0
1001
DRAWBASE
1000
OBJINF
1002
{
1070
     1
1071
        4
1071
        4
1070
     0
1002
}
  0
LINE
  5
49C03
330
49C00
100
AcDbEntity
  8
TITLEBLOCK
  6
PHANTOM
100
AcDbLine
 10
-18.22278770609273
 20
0.0
 30
0.0
 11
-6.340766729475035
 21
0.0
 31
0.0
1001
DRAWBASE
1000
OBJINF
1002
{
1070
     1
1071
        4
1071
        4
1070
     0
1002
}
  0
LINE
  5
49C04
330
49C00
100
AcDbEntity
  8
TITLEBLOCK
  6
Continuous
100
AcDbLine
 10
-7.440358968873852
 20
1.240025671893051
 30
0.0
 11
-17.36076928153375
 21
3.10016664849033
 31
0.0
1001
DRAWBASE
1000
OBJINF
1002
{
1070
     1
1071
        4
1071
        4
1070
     0
1002
}
  0
LINE
  5
49C05
330
49C00
100
AcDbEntity
  8
TITLEBLOCK
  6
Continuous
100
AcDbLine
 10
-17.36076928153375
 20
3.10016664849033
 30
0.0
 11
-17.36076928153375
 21
-3.100141031300893
 31
0.0
1001
DRAWBASE
1000
OBJINF
1002
{
1070
     1
1071
        4
1071
        4
1070
     0
1002
}
  0
LINE
  5
49C06
330
49C00
100
AcDbEntity
  8
TITLEBLOCK
  6
PHANTOM
100
AcDbLine
 10
3.930855250367358
 20
0.0
 30
0.0
 11
-3.990492067377545
 21
0.0
 31
0.0
1001
DRAWBASE
1000
OBJINF
1002
{
1070
     1
1071
        4
1071
        4
1070
     0
1002
}
  0
LINE
  5
49C07
330
49C00
100
AcDbEntity
  8
TITLEBLOCK
  6
Continuous
100
AcDbLine
 10
-7.440358968873852
 20
-1.240051289082459
 30
0.0
 11
-7.440358968873852
 21
1.240025671893051
 31
0.0
1001
DRAWBASE
1000
OBJINF
1002
{
1070
     1
1071
        4
1071
        4
1070
     0
1002
}
  0
CIRCLE
  5
49C08
330
49C00
100
AcDbEntity
  8
TITLEBLOCK
  6
Continuous
100
AcDbCircle
 10
0.0
 20
0.0
 30
0.0
 40
3.100145834523923
1001
DRAWBASE
1000
OBJINF
1002
{
1070
     1
1071
        4
1071
        4
1070
     0
1002
}
  0
LINE
  5
49C09
330
49C00
100
AcDbEntity
  8
TITLEBLOCK
  6
PHANTOM
100
AcDbLine
 10
0.0
 20
3.651730354260877
 30
0.0
 11
0.0
 21
-3.544189393003876
 31
0.0
1001
DRAWBASE
1000
OBJINF
1002
{
1070
     1
1071
        4
1071
        4
1070
     0
1002
}
  0
CIRCLE
  5
49C0A
330
49C00
100
AcDbEntity
  8
TITLEBLOCK
  6
Continuous
100
AcDbCircle
 10
0.0
 20
0.0
 30
0.0
 40
1.24005829378271
1001
DRAWBASE
1000
OBJINF
1002
{
1070
     1
1071
        4
1071
        4
1070
     0
1002
}
  0
ENDBLK
  5
49C0B
330
49C00
100
AcDbEntity
  8
0
100
AcDbBlockEnd
  0
BLOCK
  5
49C0D
330
49C0C
100
AcDbEntity
  8
0
100
AcDbBlockBegin
  2
TB
 70
     0
 10
0.0
 20
0.0
 30
0.0
  3
TB
  1
TB
  0
LINE
  5
49C0E
330
49C0C
100
AcDbEntity
  8
TITLEBLOCK
  6
Continuous
100
AcDbLine
 10
403.006591796875
 20
257.4519287109375
 30
0.0
 11
403.006591796875
 21
253.98828125
 31
0.0
1001
DRAWBASE
1000
OBJINF
1002
{
1070
     1
1071
        1
1071
       63
1070
     0
1002
}
  0
LINE
  5
49C0F
330
49C0C
100
AcDbEntity
  8
TITLEBLOCK
  6
Continuous
100
AcDbLine
 10
0.9840087890625
 20
135.5322513580322
 30
0.0
 11
0.9840087890625
 21
136.4677249908448
 31
0.0
1001
DRAWBASE
1000
OBJINF
1002
{
1070
     1
1071
        1
1071
       63
1070
     0
1002
}
  0
LINE
  5
49C10
330
49C0C
100
AcDbEntity
  8
TITLEBLOCK
  6
Continuous
100
AcDbLine
 10
4.725854492187494
 20
137.7540042877197
 30
0.0
 11
4.725854492187494
 21
134.2459960937499
 31
0.0
1001
DRAWBASE
1000
OBJINF
1002
{
1070
     1
1071
        1
1071
       63
1070
     0
1002
}
  0
LINE
  5
49C11
330
49C0C
100
AcDbEntity
  8
TITLEBLOCK
  6
Continuous
100
AcDbLine
 10
205.7436965942383
 20
0.983984375000091
 30
0.0
 11
204.8082458496094
 21
0.983984375000091
 31
0.0
1001
DRAWBASE
1000
OBJINF
1002
{
1070
     1
1071
        1
1071
       63
1070
     0
1002
}
  0
LINE
  5
49C12
330
49C0C
100
AcDbEntity
  8
TITLEBLOCK
  6
Continuous
100
AcDbLine
 10
207.0299758911133
 20
4.725854492187409
 30
0.0
 11
203.5219665527344
 21
4.725854492187409
 31
0.0
1001
DRAWBASE
1000
OBJINF
1002
{
1070
     1
1071
        1
1071
       63
1070
     0
1002
}
  0
LINE
  5
49C13
330
49C0C
100
AcDbEntity
  8
TITLEBLOCK
  6
Continuous
100
AcDbLine
 10
8.0
 20
136.0000003814698
 30
0.0
 11
4.725854492187494
 21
134.2459960937499
 31
0.0
1001
DRAWBASE
1000
OBJINF
1002
{
1070
     1
1071
        1
1071
       63
1070
     0
1002
}
  0
LINE
  5
49C14
330
49C0C
100
AcDbEntity
  8
TITLEBLOCK
  6
Continuous
100
AcDbLine
 10
4.725854492187494
 20
137.7540042877197
 30
0.0
 11
8.0
 21
136.0000003814698
 31
0.0
1001
DRAWBASE
1000
OBJINF
1002
{
1070
     1
1071
        1
1071
       63
1070
     0
1002
}
  0
LINE
  5
49C15
330
49C0C
100
AcDbEntity
  8
TITLEBLOCK
  6
Continuous
100
AcDbLine
 10
207.0299758911133
 20
267.27412109375
 30
0.0
 11
205.2759704589844
 21
264.0
 31
0.0
1001
DRAWBASE
1000
OBJINF
1002
{
1070
     1
1071
        1
1071
       63
1070
     0
1002
}
  0
LINE
  5
49C16
330
49C0C
100
AcDbEntity
  8
TITLEBLOCK
  6
Continuous
100
AcDbLine
 10
207.0299758911133
 20
4.725854492187409
 30
0.0
 11
205.2759704589844
 21
8.0
 31
0.0
1001
DRAWBASE
1000
OBJINF
1002
{
1070
     1
1071
        1
1071
       63
1070
     0
1002
}
  0
LINE
  5
49C17
330
49C0C
100
AcDbEntity
  8
TITLEBLOCK
  6
Continuous
100
AcDbLine
 10
204.8082458496094
 20
271.0159912109375
 30
0.0
 11
204.8082458496094
 21
267.27412109375
 31
0.0
1001
DRAWBASE
1000
OBJINF
1002
{
1070
     1
1071
        1
1071
       63
1070
     0
1002
}
  0
LINE
  5
49C18
330
49C0C
100
AcDbEntity
  8
TITLEBLOCK
  6
Continuous
100
AcDbLine
 10
204.8082458496094
 20
4.725854492187409
 30
0.0
 11
204.8082458496094
 21
0.983984375000091
 31
0.0
1001
DRAWBASE
1000
OBJINF
1002
{
1070
     1
1071
        1
1071
       63
1070
     0
1002
}
  0
LINE
  5
49C19
330
49C0C
100
AcDbEntity
  8
TITLEBLOCK
  6
Continuous
100
AcDbLine
 10
410.022509765625
 20
135.5322513580322
 30
0.0
 11
406.280615234375
 21
135.5322513580322
 31
0.0
1001
DRAWBASE
1000
OBJINF
1002
{
1070
     1
1071
        1
1071
       63
1070
     0
1002
}
  0
LINE
  5
49C1A
330
49C0C
100
AcDbEntity
  8
TITLEBLOCK
  6
Continuous
100
AcDbLine
 10
4.725854492187494
 20
135.5322513580322
 30
0.0
 11
0.9840087890625
 21
135.5322513580322
 31
0.0
1001
DRAWBASE
1000
OBJINF
1002
{
1070
     1
1071
        1
1071
       63
1070
     0
1002
}
  0
LINE
  5
49C1B
330
49C0C
100
AcDbEntity
  8
TITLEBLOCK
  6
Continuous
100
AcDbLine
 10
205.7436965942383
 20
271.0159912109375
 30
0.0
 11
205.7436965942383
 21
267.27412109375
 31
0.0
1001
DRAWBASE
1000
OBJINF
1002
{
1070
     1
1071
        1
1071
       63
1070
     0
1002
}
  0
LINE
  5
49C1C
330
49C0C
100
AcDbEntity
  8
TITLEBLOCK
  6
Continuous
100
AcDbLine
 10
205.7436965942383
 20
4.725854492187409
 30
0.0
 11
205.7436965942383
 21
0.983984375000091
 31
0.0
1001
DRAWBASE
1000
OBJINF
1002
{
1070
     1
1071
        1
1071
       63
1070
     0
1002
}
  0
LINE
  5
49C1D
330
49C0C
100
AcDbEntity
  8
TITLEBLOCK
  6
Continuous
100
AcDbLine
 10
410.022509765625
 20
136.4677249908448
 30
0.0
 11
406.280615234375
 21
136.4677249908448
 31
0.0
1001
DRAWBASE
1000
OBJINF
1002
{
1070
     1
1071
        1
1071
       63
1070
     0
1002
}
  0
LINE
  5
49C1E
330
49C0C
100
AcDbEntity
  8
TITLEBLOCK
  6
Continuous
100
AcDbLine
 10
4.725854492187494
 20
136.4677249908448
 30
0.0
 11
0.9840087890625
 21
136.4677249908448
 31
0.0
1001
DRAWBASE
1000
OBJINF
1002
{
1070
     1
1071
        1
1071
       63
1070
     0
1002
}
  0
LINE
  5
49C1F
330
49C0C
100
AcDbEntity
  8
TITLEBLOCK
  6
Continuous
100
AcDbLine
 10
205.2759704589844
 20
8.0
 30
0.0
 11
203.5219665527344
 21
4.725854492187409
 31
0.0
1001
DRAWBASE
1000
OBJINF
1002
{
1070
     1
1071
        1
1071
       63
1070
     0
1002
}
  0
LINE
  5
49C20
330
49C0C
100
AcDbEntity
  8
TITLEBLOCK
  6
Continuous
100
AcDbLine
 10
203.5219665527344
 20
267.27412109375
 30
0.0
 11
205.2759704589844
 21
264.0
 31
0.0
1001
DRAWBASE
1000
OBJINF
1002
{
1070
     1
1071
        1
1071
       63
1070
     0
1002
}
  0
LINE
  5
49C21
330
49C0C
100
AcDbEntity
  8
TITLEBLOCK
  6
Continuous
100
AcDbLine
 10
406.280615234375
 20
137.7540042877197
 30
0.0
 11
403.0064453125
 21
136.0000003814698
 31
0.0
1001
DRAWBASE
1000
OBJINF
1002
{
1070
     1
1071
        1
1071
       63
1070
     0
1002
}
  0
LINE
  5
49C22
330
49C0C
100
AcDbEntity
  8
TITLEBLOCK
  6
Continuous
100
AcDbLine
 10
406.280615234375
 20
134.2459960937499
 30
0.0
 11
403.0064453125
 21
136.0000003814698
 31
0.0
1001
DRAWBASE
1000
OBJINF
1002
{
1070
     1
1071
        1
1071
       63
1070
     0
1002
}
  0
LINE
  5
49C23
330
49C0C
100
AcDbEntity
  8
TITLEBLOCK
  6
Continuous
100
AcDbLine
 10
207.0299758911133
 20
267.27412109375
 30
0.0
 11
203.5219665527344
 21
267.27412109375
 31
0.0
1001
DRAWBASE
1000
OBJINF
1002
{
1070
     1
1071
        1
1071
       63
1070
     0
1002
}
  0
LINE
  5
49C24
330
49C0C
100
AcDbEntity
  8
TITLEBLOCK
  6
Continuous
100
AcDbLine
 10
205.7436965942383
 20
271.0159912109375
 30
0.0
 11
204.8082458496094
 21
271.0159912109375
 31
0.0
1001
DRAWBASE
1000
OBJINF
1002
{
1070
     1
1071
        1
1071
       63
1070
     0
1002
}
  0
LINE
  5
49C25
330
49C0C
100
AcDbEntity
  8
TITLEBLOCK
  6
Continuous
100
AcDbLine
 10
406.280615234375
 20
137.7540042877197
 30
0.0
 11
406.280615234375
 21
134.2459960937499
 31
0.0
1001
DRAWBASE
1000
OBJINF
1002
{
1070
     1
1071
        1
1071
       63
1070
     0
1002
}
  0
LINE
  5
49C26
330
49C0C
100
AcDbEntity
  8
TITLEBLOCK
  6
Continuous
100
AcDbLine
 10
410.022509765625
 20
135.5322513580322
 30
0.0
 11
410.022509765625
 21
136.4677249908448
 31
0.0
1001
DRAWBASE
1000
OBJINF
1002
{
1070
     1
1071
        1
1071
       63
1070
     0
1002
}
  0
TEXT
  5
49C27
330
49C0C
100
AcDbEntity
  8
TITLEBLOCK
  6
Continuous
100
AcDbText
 10
32.36622257232665
 20
2.86299991607666
 30
0.0
 40
3.27400016784668
  1
8
  7
MONOTXT
100
AcDbText
1001
DRAWBASE
1000
OBJINF
1002
{
1070
     1
1071
        1
1071
       63
1070
     0
1002
}
  0
TEXT
  5
49C28
330
49C0C
100
AcDbEntity
  8
TITLEBLOCK
  6
Continuous
100
AcDbText
 10
81.36622257232665
 20
2.86299991607666
 30
0.0
 40
3.27400016784668
  1
7
  7
MONOTXT
100
AcDbText
1001
DRAWBASE
1000
OBJINF
1002
{
1070
     1
1071
        1
1071
       63
1070
     0
1002
}
  0
TEXT
  5
49C29
330
49C0C
100
AcDbEntity
  8
TITLEBLOCK
  6
Continuous
100
AcDbText
 10
130.3662225723266
 20
2.86299991607666
 30
0.0
 40
3.27400016784668
  1
6
  7
MONOTXT
100
AcDbText
1001
DRAWBASE
1000
OBJINF
1002
{
1070
     1
1071
        1
1071
       63
1070
     0
1002
}
  0
TEXT
  5
49C2A
330
49C0C
100
AcDbEntity
  8
TITLEBLOCK
  6
Continuous
100
AcDbText
 10
179.3662225723266
 20
2.86299991607666
 30
0.0
 40
3.27400016784668
  1
5
  7
MONOTXT
100
AcDbText
1001
DRAWBASE
1000
OBJINF
1002
{
1070
     1
1071
        1
1071
       63
1070
     0
1002
}
  0
TEXT
  5
49C2B
330
49C0C
100
AcDbEntity
  8
TITLEBLOCK
  6
Continuous
100
AcDbText
 10
228.3662225723266
 20
2.86299991607666
 30
0.0
 40
3.27400016784668
  1
4
  7
MONOTXT
100
AcDbText
1001
DRAWBASE
1000
OBJINF
1002
{
1070
     1
1071
        1
1071
       63
1070
     0
1002
}
  0
TEXT
  5
49C2C
330
49C0C
100
AcDbEntity
  8
TITLEBLOCK
  6
Continuous
100
AcDbText
 10
2.86299991607666
 20
38.36299991607666
 30
0.0
 40
3.27400016784668
  1
A
  7
MONOTXT
100
AcDbText
1001
DRAWBASE
1000
OBJINF
1002
{
1070
     1
1071
        1
1071
       63
1070
     0
1002
}
  0
TEXT
  5
49C2D
330
49C0C
100
AcDbEntity
  8
TITLEBLOCK
  6
Continuous
100
AcDbText
 10
2.86299991607666
 20
102.3629999160767
 30
0.0
 40
3.27400016784668
  1
B
  7
MONOTXT
100
AcDbText
1001
DRAWBASE
1000
OBJINF
1002
{
1070
     1
1071
        1
1071
       63
1070
     0
1002
}
  0
TEXT
  5
49C2E
330
49C0C
100
AcDbEntity
  8
TITLEBLOCK
  6
Continuous
100
AcDbText
 10
404.8694452285766
 20
102.3629999160767
 30
0.0
 40
3.27400016784668
  1
B
  7
MONOTXT
100
AcDbText
1001
DRAWBASE
1000
OBJINF
1002
{
1070
     1
1071
        1
1071
       63
1070
     0
1002
}
  0
TEXT
  5
49C2F
330
49C0C
100
AcDbEntity
  8
TITLEBLOCK
  6
Continuous
100
AcDbText
 10
2.86299991607666
 20
166.3629999160767
 30
0.0
 40
3.27400016784668
  1
C
  7
MONOTXT
100
AcDbText
1001
DRAWBASE
1000
OBJINF
1002
{
1070
     1
1071
        1
1071
       63
1070
     0
1002
}
  0
TEXT
  5
49C30
330
49C0C
100
AcDbEntity
  8
TITLEBLOCK
  6
Continuous
100
AcDbText
 10
404.8694452285766
 20
166.3629999160767
 30
0.0
 40
3.27400016784668
  1
C
  7
MONOTXT
100
AcDbText
1001
DRAWBASE
1000
OBJINF
1002
{
1070
     1
1071
        1
1071
       63
1070
     0
1002
}
  0
TEXT
  5
49C31
330
49C0C
100
AcDbEntity
  8
TITLEBLOCK
  6
Continuous
100
AcDbText
 10
2.86299991607666
 20
230.3629999160767
 30
0.0
 40
3.27400016784668
  1
D
  7
MONOTXT
100
AcDbText
1001
DRAWBASE
1000
OBJINF
1002
{
1070
     1
1071
        1
1071
       63
1070
     0
1002
}
  0
TEXT
  5
49C32
330
49C0C
100
AcDbEntity
  8
TITLEBLOCK
  6
Continuous
100
AcDbText
 10
404.8694452285766
 20
230.3629999160767
 30
0.0
 40
3.27400016784668
  1
D
  7
MONOTXT
100
AcDbText
1001
DRAWBASE
1000
OBJINF
1002
{
1070
     1
1071
        1
1071
       63
1070
     0
1002
}
  0
TEXT
  5
49C33
330
49C0C
100
AcDbEntity
  8
TITLEBLOCK
  6
Continuous
100
AcDbText
 10
32.36622257232665
 20
265.8629999160767
 30
0.0
 40
3.27400016784668
  1
8
  7
MONOTXT
100
AcDbText
1001
DRAWBASE
1000
OBJINF
1002
{
1070
     1
1071
        1
1071
       63
1070
     0
1002
}
  0
TEXT
  5
49C34
330
49C0C
100
AcDbEntity
  8
TITLEBLOCK
  6
Continuous
100
AcDbText
 10
81.36622257232665
 20
265.8629999160767
 30
0.0
 40
3.27400016784668
  1
7
  7
MONOTXT
100
AcDbText
1001
DRAWBASE
1000
OBJINF
1002
{
1070
     1
1071
        1
1071
       63
1070
     0
1002
}
  0
TEXT
  5
49C35
330
49C0C
100
AcDbEntity
  8
TITLEBLOCK
  6
Continuous
100
AcDbText
 10
130.3662225723266
 20
265.8629999160767
 30
0.0
 40
3.27400016784668
  1
6
  7
MONOTXT
100
AcDbText
1001
DRAWBASE
1000
OBJINF
1002
{
1070
     1
1071
        1
1071
       63
1070
     0
1002
}
  0
TEXT
  5
49C36
330
49C0C
100
AcDbEntity
  8
TITLEBLOCK
  6
Continuous
100
AcDbText
 10
179.3662225723266
 20
265.8629999160767
 30
0.0
 40
3.27400016784668
  1
5
  7
MONOTXT
100
AcDbText
1001
DRAWBASE
1000
OBJINF
1002
{
1070
     1
1071
        1
1071
       63
1070
     0
1002
}
  0
TEXT
  5
49C37
330
49C0C
100
AcDbEntity
  8
TITLEBLOCK
  6
Continuous
100
AcDbText
 10
228.3662225723266
 20
265.8629999160767
 30
0.0
 40
3.27400016784668
  1
4
  7
MONOTXT
100
AcDbText
1001
DRAWBASE
1000
OBJINF
1002
{
1070
     1
1071
        1
1071
       63
1070
     0
1002
}
  0
TEXT
  5
49C38
330
49C0C
100
AcDbEntity
  8
TITLEBLOCK
  6
Continuous
100
AcDbText
 10
277.3662225723266
 20
265.8629999160767
 30
0.0
 40
3.27400016784668
  1
3
  7
MONOTXT
100
AcDbText
1001
DRAWBASE
1000
OBJINF
1002
{
1070
     1
1071
        1
1071
       63
1070
     0
1002
}
  0
TEXT
  5
49C39
330
49C0C
100
AcDbEntity
  8
TITLEBLOCK
  6
Continuous
100
AcDbText
 10
326.3662225723266
 20
265.8629999160767
 30
0.0
 40
3.27400016784668
  1
2
  7
MONOTXT
100
AcDbText
1001
DRAWBASE
1000
OBJINF
1002
{
1070
     1
1071
        1
1071
       63
1070
     0
1002
}
  0
TEXT
  5
49C3A
330
49C0C
100
AcDbEntity
  8
TITLEBLOCK
  6
Continuous
100
AcDbText
 10
375.3662225723266
 20
265.8629999160767
 30
0.0
 40
3.27400016784668
  1
1
  7
MONOTXT
100
AcDbText
1001
DRAWBASE
1000
OBJINF
1002
{
1070
     1
1071
        1
1071
       63
1070
     0
1002
}
  0
LINE
  5
49C3B
330
49C0C
100
AcDbEntity
  8
TITLEBLOCK
  6
Continuous
100
AcDbLine
 10
1.0
 20
200.0
 30
0.0
 11
8.0
 21
200.0
 31
0.0
1001
DRAWBASE
1000
OBJINF
1002
{
1070
     1
1071
        4
1071
      204
1070
     0
1002
}
  0
LINE
  5
49C3C
330
49C0C
100
AcDbEntity
  8
TITLEBLOCK
  6
Continuous
100
AcDbLine
 10
1.0
 20
72.0
 30
0.0
 11
8.0
 21
72.0
 31
0.0
1001
DRAWBASE
1000
OBJINF
1002
{
1070
     1
1071
        4
1071
      204
1070
     0
1002
}
  0
LINE
  5
49C3D
330
49C0C
100
AcDbEntity
  8
TITLEBLOCK
  6
Continuous
100
AcDbLine
 10
58.50322265624999
 20
8.0
 30
0.0
 11
58.50322265624999
 21
1.0
 31
0.0
1001
DRAWBASE
1000
OBJINF
1002
{
1070
     1
1071
        4
1071
      204
1070
     0
1002
}
  0
LINE
  5
49C3E
330
49C0C
100
AcDbEntity
  8
TITLEBLOCK
  6
Continuous
100
AcDbLine
 10
107.50322265625
 20
8.0
 30
0.0
 11
107.50322265625
 21
1.0
 31
0.0
1001
DRAWBASE
1000
OBJINF
1002
{
1070
     1
1071
        4
1071
      204
1070
     0
1002
}
  0
LINE
  5
49C3F
330
49C0C
100
AcDbEntity
  8
TITLEBLOCK
  6
Continuous
100
AcDbLine
 10
156.50322265625
 20
8.0
 30
0.0
 11
156.50322265625
 21
1.0
 31
0.0
1001
DRAWBASE
1000
OBJINF
1002
{
1070
     1
1071
        4
1071
      204
1070
     0
1002
}
  0
LINE
  5
49C40
330
49C0C
100
AcDbEntity
  8
TITLEBLOCK
  6
Continuous
100
AcDbLine
 10
254.50322265625
 20
8.0
 30
0.0
 11
254.50322265625
 21
1.0
 31
0.0
1001
DRAWBASE
1000
OBJINF
1002
{
1070
     1
1071
        4
1071
      204
1070
     0
1002
}
  0
LINE
  5
49C41
330
49C0C
100
AcDbEntity
  8
TITLEBLOCK
  6
Continuous
100
AcDbLine
 10
303.50322265625
 20
8.0
 30
0.0
 11
303.50322265625
 21
1.0
 31
0.0
1001
DRAWBASE
1000
OBJINF
1002
{
1070
     1
1071
        4
1071
      204
1070
     0
1002
}
  0
LINE
  5
49C42
330
49C0C
100
AcDbEntity
  8
TITLEBLOCK
  6
Continuous
100
AcDbLine
 10
352.50322265625
 20
8.0
 30
0.0
 11
352.50322265625
 21
1.0
 31
0.0
1001
DRAWBASE
1000
OBJINF
1002
{
1070
     1
1071
        4
1071
      204
1070
     0
1002
}
  0
LINE
  5
49C43
330
49C0C
100
AcDbEntity
  8
TITLEBLOCK
  6
Continuous
100
AcDbLine
 10
403.0064453125
 20
72.0
 30
0.0
 11
410.0064453125
 21
72.0
 31
0.0
1001
DRAWBASE
1000
OBJINF
1002
{
1070
     1
1071
        4
1071
      204
1070
     0
1002
}
  0
LINE
  5
49C44
330
49C0C
100
AcDbEntity
  8
TITLEBLOCK
  6
Continuous
100
AcDbLine
 10
403.0064453125
 20
200.0
 30
0.0
 11
410.0064453125
 21
200.0
 31
0.0
1001
DRAWBASE
1000
OBJINF
1002
{
1070
     1
1071
        4
1071
      204
1070
     0
1002
}
  0
LINE
  5
49C45
330
49C0C
100
AcDbEntity
  8
TITLEBLOCK
  6
Continuous
100
AcDbLine
 10
352.50322265625
 20
271.0
 30
0.0
 11
352.50322265625
 21
264.0
 31
0.0
1001
DRAWBASE
1000
OBJINF
1002
{
1070
     1
1071
        4
1071
      204
1070
     0
1002
}
  0
LINE
  5
49C46
330
49C0C
100
AcDbEntity
  8
TITLEBLOCK
  6
Continuous
100
AcDbLine
 10
303.50322265625
 20
271.0
 30
0.0
 11
303.50322265625
 21
264.0
 31
0.0
1001
DRAWBASE
1000
OBJINF
1002
{
1070
     1
1071
        4
1071
      204
1070
     0
1002
}
  0
LINE
  5
49C47
330
49C0C
100
AcDbEntity
  8
TITLEBLOCK
  6
Continuous
100
AcDbLine
 10
254.50322265625
 20
271.0
 30
0.0
 11
254.50322265625
 21
264.0
 31
0.0
1001
DRAWBASE
1000
OBJINF
1002
{
1070
     1
1071
        4
1071
      204
1070
     0
1002
}
  0
LINE
  5
49C48
330
49C0C
100
AcDbEntity
  8
TITLEBLOCK
  6
Continuous
100
AcDbLine
 10
156.50322265625
 20
271.0
 30
0.0
 11
156.50322265625
 21
264.0
 31
0.0
1001
DRAWBASE
1000
OBJINF
1002
{
1070
     1
1071
        4
1071
      204
1070
     0
1002
}
  0
LINE
  5
49C49
330
49C0C
100
AcDbEntity
  8
TITLEBLOCK
  6
Continuous
100
AcDbLine
 10
107.50322265625
 20
271.0
 30
0.0
 11
107.50322265625
 21
264.0
 31
0.0
1001
DRAWBASE
1000
OBJINF
1002
{
1070
     1
1071
        4
1071
      204
1070
     0
1002
}
  0
LINE
  5
49C4A
330
49C0C
100
AcDbEntity
  8
TITLEBLOCK
  6
Continuous
100
AcDbLine
 10
58.50322265624999
 20
271.0
 30
0.0
 11
58.50322265624999
 21
264.0
 31
0.0
1001
DRAWBASE
1000
OBJINF
1002
{
1070
     1
1071
        4
1071
      204
1070
     0
1002
}
  0
TEXT
  5
49C4B
330
49C0C
100
AcDbEntity
  8
TITLEBLOCK
  6
Continuous
100
AcDbText
 10
277.3662225723266
 20
2.86299991607666
 30
0.0
 40
3.27400016784668
  1
3
  7
MONOTXT
100
AcDbText
1001
DRAWBASE
1000
OBJINF
1002
{
1070
     1
1071
        4
1071
      204
1070
     0
1002
}
  0
TEXT
  5
49C4C
330
49C0C
100
AcDbEntity
  8
TITLEBLOCK
  6
Continuous
100
AcDbText
 10
324.95908203125
 20
3.5565185546875
 30
0.0
 40
3.27400016784668
  1
2
  7
MONOTXT
100
AcDbText
1001
DRAWBASE
1000
OBJINF
1002
{
1070
     1
1071
        4
1071
      204
1070
     0
1002
}
  0
TEXT
  5
49C4D
330
49C0C
100
AcDbEntity
  8
TITLEBLOCK
  6
Continuous
100
AcDbText
 10
375.3662225723266
 20
2.86299991607666
 30
0.0
 40
3.27400016784668
  1
1
  7
MONOTXT
100
AcDbText
1001
DRAWBASE
1000
OBJINF
1002
{
1070
     1
1071
        4
1071
      204
1070
     0
1002
}
  0
TEXT
  5
49C4E
330
49C0C
100
AcDbEntity
  8
TITLEBLOCK
  6
Continuous
100
AcDbText
 10
404.8694452285766
 20
35.36299991607666
 30
0.0
 40
3.27400016784668
  1
A
  7
MONOTXT
100
AcDbText
1001
DRAWBASE
1000
OBJINF
1002
{
1070
     1
1071
        4
1071
      204
1070
     0
1002
}
  0
LINE
  5
49C4F
330
49C0C
100
AcDbEntity
  8
TITLEBLOCK
  6
Continuous
100
AcDbLine
 10
279.578857421875
 20
8.0
 30
0.0
 11
279.578857421875
 21
7.999291992187409
 31
0.0
1001
DRAWBASE
1000
OBJINF
1002
{
1070
     1
1071
        5
1071
      208
1070
     0
1002
}
  0
LWPOLYLINE
  5
49C50
330
49C0C
100
AcDbEntity
  8
TITLEBLOCK
  6
Continuous
100
AcDbPolyline
 90
        4
 70
   129
 43
0.0
 10
403.0064453125
 20
8.0
 10
403.0064453125
 20
264.0
 10
8.0
 20
264.0
 10
8.0
 20
8.0
1001
DRAWBASE
1000
OBJINF
1002
{
1070
     1
1071
        4
1071
      204
1070
     0
1002
}
  0
LWPOLYLINE
  5
49C51
330
49C0C
100
AcDbEntity
  8
TITLEBLOCK
  6
Continuous
100
AcDbPolyline
 90
        4
 70
   129
 43
0.0
 10
411.0064453125
 20
0.0
 10
411.0064453125
 20
272.0
 10
0.0
 20
272.0
 10
0.0
 20
0.0
1001
DRAWBASE
1000
OBJINF
1002
{
1070
     1
1071
        4
1071
      204
1070
     0
1002
}
  0
ENDBLK
  5
49C52
330
49C0C
100
AcDbEntity
  8
0
100
AcDbBlockEnd
  0
BLOCK
  5
49C56
330
49C53
100
AcDbEntity
  8
0
100
AcDbBlockBegin
  2
MMI PRECISION FORMING
 70
     0
 10
0.0
 20
0.0
 30
0.0
  3
MMI PRECISION FORMING
  1
MMI PRECISION FORMING
  0
INSERT
  5
49C57
330
49C53
100
AcDbEntity
  8
0-dimension
 62
     5
100
AcDbBlockReference
  2
mmi
 10
4.396803060443403
 20
-34.72805201975052
 30
0.0
  0
ENDBLK
  5
49C58
330
49C53
100
AcDbEntity
  8
0
100
AcDbBlockEnd
  0
BLOCK
  5
49CDC
330
49CC9
100
AcDbEntity
  8
0
100
AcDbBlockBegin
  2
*T104
 70
     1
 10
0.0
 20
0.0
 30
0.0
  3
*T104
  1
*T104
  0
MTEXT
  5
49CCA
330
49CC9
100
AcDbEntity
  8
TITLEBLOCK
  6
Continuous
 62
     0
100
AcDbMText
 10
71.81834466531564
 20
-2.218623402054163
 30
0.0
 40
2.308331520010212
 41
142.4825235706278
 71
     5
 72
     5
  1
Revisions
  7
RomanC
 73
     1
 44
1.0
  0
MTEXT
  5
49CCB
330
49CC9
100
AcDbEntity
  8
TITLEBLOCK
  6
Continuous
 62
     0
100
AcDbMText
 10
4.553259877651726
 20
-6.602009137362074
 30
0.0
 40
2.308331520010212
 41
7.952353995298755
 71
     5
 72
     5
  1
Rev
  7
RomanC
 73
     1
 44
1.0
  0
MTEXT
  5
49CCC
330
49CC9
100
AcDbEntity
  8
TITLEBLOCK
  6
Continuous
 62
     0
100
AcDbMText
 10
14.2245053071465
 20
-6.602009137362074
 30
0.0
 40
2.308331520010212
 41
9.081805343682262
 71
     5
 72
     5
  1
Zone
  7
RomanC
 73
     1
 44
1.0
  0
MTEXT
  5
49CCD
330
49CC9
100
AcDbEntity
  8
TITLEBLOCK
  6
Continuous
 62
     0
100
AcDbMText
 10
73.83437515343394
 20
-6.602009137362074
 30
0.0
 40
2.308331520010212
 41
107.8296028288811
 71
     5
 72
     5
  1
Description
  7
RomanC
 73
     1
 44
1.0
  0
MTEXT
  5
49CCE
330
49CC9
100
AcDbEntity
  8
TITLEBLOCK
  6
Continuous
 62
     0
100
AcDbMText
 10
135.9814743892539
 20
-6.602009137362074
 30
0.0
 40
2.308331520010212
 41
14.1562641227504
 71
     5
 72
     5
  1
Date
  7
RomanC
 73
     1
 44
1.0
  0
MTEXT
  5
49CCF
330
49CC9
100
AcDbEntity
  8
TITLEBLOCK
  6
Continuous
 62
     0
100
AcDbMText
 10
4.553259877651726
 20
-11.72388404662888
 30
0.0
 40
1.803384000007959
 41
7.952353995298755
 71
     5
 72
     5
  1
00
 73
     1
 44
1.0
  0
MTEXT
  5
49CD0
330
49CC9
100
AcDbEntity
  8
TITLEBLOCK
  6
Continuous
 62
     0
100
AcDbMText
 10
19.91957373899277
 20
-11.72388404662888
 30
0.0
 40
1.803384000007959
 41
107.8296028288811
 71
     4
 72
     5
  1
Initial released
 73
     1
 44
1.0
  0
MTEXT
  5
49CD1
330
49CC9
100
AcDbEntity
  8
TITLEBLOCK
  6
Continuous
 62
     0
100
AcDbMText
 10
135.9814743892539
 20
-11.72388404662888
 30
0.0
 40
1.701818181825692
 41
14.1562641227504
 71
     5
 72
     5
  1
18.11.14
 73
     1
 44
1.0
  0
LINE
  5
49CD2
330
49CC9
100
AcDbEntity
  8
TITLEBLOCK
  6
ByBlock
 62
     0
370
    -2
100
AcDbLine
 10
0.0
 20
0.0
 30
0.0
 11
143.6366893306322
 21
0.0
 31
0.0
  0
LINE
  5
49CD3
330
49CC9
100
AcDbEntity
  8
TITLEBLOCK
  6
ByBlock
 62
     0
370
    -2
100
AcDbLine
 10
0.0
 20
-4.437246804108327
 30
0.0
 11
143.6366893306322
 21
-4.437246804108327
 31
0.0
  0
LINE
  5
49CD4
330
49CC9
100
AcDbEntity
  8
TITLEBLOCK
  6
ByBlock
 62
     0
370
    -2
100
AcDbLine
 10
0.0
 20
-8.766771470616277
 30
0.0
 11
143.6366893306322
 21
-8.766771470616277
 31
0.0
  0
LINE
  5
49CD5
330
49CC9
100
AcDbEntity
  8
TITLEBLOCK
  6
ByBlock
 62
     0
370
    -2
100
AcDbLine
 10
0.0
 20
-14.6809966226424
 30
0.0
 11
143.6366893306322
 21
-14.6809966226424
 31
0.0
  0
LINE
  5
49CD6
330
49CC9
100
AcDbEntity
  8
TITLEBLOCK
  6
ByBlock
 62
     0
370
    -2
100
AcDbLine
 10
0.0
 20
0.0
 30
0.0
 11
0.0
 21
-14.6809966226424
 31
0.0
  0
LINE
  5
49CD7
330
49CC9
100
AcDbEntity
  8
TITLEBLOCK
  6
ByBlock
 62
     0
370
    -2
100
AcDbLine
 10
9.106519755303452
 20
-4.437246804108327
 30
0.0
 11
9.106519755303452
 21
-14.6809966226424
 31
0.0
  0
LINE
  5
49CD8
330
49CC9
100
AcDbEntity
  8
TITLEBLOCK
  6
ByBlock
 62
     0
370
    -2
100
AcDbLine
 10
19.34249085899046
 20
-4.437246804108327
 30
0.0
 11
19.34249085899046
 21
-14.6809966226424
 31
0.0
  0
LINE
  5
49CD9
330
49CC9
100
AcDbEntity
  8
TITLEBLOCK
  6
ByBlock
 62
     0
370
    -2
100
AcDbLine
 10
128.3262594478765
 20
-4.437246804108327
 30
0.0
 11
128.3262594478765
 21
-14.6809966226424
 31
0.0
  0
LINE
  5
49CDA
330
49CC9
100
AcDbEntity
  8
TITLEBLOCK
  6
ByBlock
 62
     0
370
    -2
100
AcDbLine
 10
143.6366893306322
 20
0.0
 30
0.0
 11
143.6366893306322
 21
-14.6809966226424
 31
0.0
  0
LINE
  5
49CDB
330
49CC9
100
AcDbEntity
  8
Defpoints
 62
     8
 60
     1
370
     0
100
AcDbLine
 10
0.0
 20
0.0
 30
0.0
 11
0.0
 21
0.0
 31
0.0
  0
ENDBLK
  5
49CDD
330
49CC9
100
AcDbEntity
  8
0
100
AcDbBlockEnd
  0
BLOCK
  5
49D0E
330
49CDE
100
AcDbEntity
  8
0
100
AcDbBlockBegin
  2
*T105
 70
     1
 10
0.0
 20
0.0
 30
0.0
  3
*T105
  1
*T105
  0
MTEXT
  5
49CDF
330
49CDE
100
AcDbEntity
  8
TITLEBLOCK
  6
Continuous
100
AcDbMText
 10
0.5770828800023082
 20
-3.382277685210283
 30
0.0
 40
2.077498368009191
 41
22.23382840833878
 71
     4
 72
     5
  1
Drawn by
  7
RomanC
 73
     1
 44
1.0
  0
MTEXT
  5
49CE0
330
49CDE
100
AcDbEntity
  8
TITLEBLOCK
  6
Continuous
100
AcDbMText
 10
33.38781422993998
 20
-3.382277685210283
 30
0.0
 40
1.963636363645029
 41
18.84547436318813
 71
     5
 72
     5
  1
{\Fscriptc|c0;Huifen}
  7
RomanC
 73
     1
 44
1.0
  0
MTEXT
  5
49CE1
330
49CDE
100
AcDbEntity
  8
TITLEBLOCK
  6
Continuous
100
AcDbMText
 10
43.96471717153872
 20
-3.382277685210283
 30
0.0
 40
2.077498368009191
 41
8.680412227735978
 71
     4
 72
     5
  1
Date
  7
RomanC
 73
     1
 44
1.0
  0
MTEXT
  5
49CE2
330
49CDE
100
AcDbEntity
  8
TITLEBLOCK
  6
Continuous
100
AcDbMText
 10
62.0655524484464
 20
-3.382277685210283
 30
0.0
 40
2.077498368009191
 41
16.53251457833347
 71
     5
 72
     5
  1
18.11.14
  7
RomanC
 73
     1
 44
1.0
  0
MTEXT
  5
49CE3
330
49CDE
100
AcDbEntity
  8
TITLEBLOCK
  6
Continuous
100
AcDbMText
 10
71.4859754976178
 20
-3.382277685210283
 30
0.0
 40
2.077498368009191
 41
11.63545910803689
 71
     4
 72
     5
  1
Matl
  7
RomanC
 73
     1
 44
1.0
  0
MTEXT
  5
49CE4
330
49CDE
100
AcDbEntity
  8
TITLEBLOCK
  6
Continuous
100
AcDbMText
 10
143.7381340106695
 20
-3.382277685210283
 30
0.0
 40
2.077498368009191
 41
15.78760446574843
 71
     4
 72
     5
  1
Rev
  7
RomanC
 73
     1
 44
1.0
  0
MTEXT
  5
49CE5
330
49CDE
100
AcDbEntity
  8
TITLEBLOCK
  6
Continuous
100
AcDbMText
 10
165.7500780983382
 20
-3.382277685210283
 30
0.0
 40
2.077498368009191
 41
10.14034772383056
 71
     5
 72
     5
  1
00
  7
RomanC
 73
     1
 44
1.0
  0
MTEXT
  5
49CE6
330
49CDE
100
AcDbEntity
  8
TITLEBLOCK
  6
Continuous
100
AcDbMText
 10
0.5770828800023082
 20
-9.588183741378543
 30
0.0
 40
2.077498368009191
 41
22.23382840833878
 71
     4
 72
     5
  1
Checked by
  7
RomanC
 73
     1
 44
1.0
  0
MTEXT
  5
49CE7
330
49CDE
100
AcDbEntity
  8
TITLEBLOCK
  6
Continuous
100
AcDbMText
 10
43.96471717153872
 20
-9.588183741378543
 30
0.0
 40
2.077498368009191
 41
8.680412227735978
 71
     4
 72
     5
  1
Date
  7
RomanC
 73
     1
 44
1.0
  0
MTEXT
  5
49CE8
330
49CDE
100
AcDbEntity
  8
TITLEBLOCK
  6
Continuous
100
AcDbMText
 10
71.4859754976178
 20
-9.588183741378543
 30
0.0
 40
2.077498368009191
 41
11.63545910803689
 71
     4
 72
     5
  1
HRC
  7
RomanC
 73
     1
 44
1.0
  0
MTEXT
  5
49CE9
330
49CDE
100
AcDbEntity
  8
TITLEBLOCK
  6
Continuous
100
AcDbMText
 10
143.7381340106695
 20
-9.588183741378543
 30
0.0
 40
2.077498368009191
 41
15.78760446574843
 71
     4
 72
     5
  1
Scale
  7
RomanC
 73
     1
 44
1.0
  0
MTEXT
  5
49CEA
330
49CDE
100
AcDbEntity
  8
TITLEBLOCK
  6
Continuous
100
AcDbMText
 10
165.7500780983382
 20
-9.588183741378543
 30
0.0
 40
2.077498368009191
 41
10.14034772383056
 71
     5
 72
     5
  1
NTS
  7
RomanC
 73
     1
 44
1.0
  0
MTEXT
  5
49CEB
330
49CDE
100
AcDbEntity
  8
TITLEBLOCK
  6
Continuous
100
AcDbMText
 10
0.5770828800023082
 20
-15.23544048329632
 30
0.0
 40
2.077498368009191
 41
22.23382840833878
 71
     4
 72
     5
  1
Approved by
  7
RomanC
 73
     1
 44
1.0
  0
MTEXT
  5
49CEC
330
49CDE
100
AcDbEntity
  8
TITLEBLOCK
  6
Continuous
100
AcDbMText
 10
43.96471717153872
 20
-15.23544048329632
 30
0.0
 40
2.077498368009191
 41
8.680412227735978
 71
     4
 72
     5
  1
Date
  7
RomanC
 73
     1
 44
1.0
  0
MTEXT
  5
49CED
330
49CDE
100
AcDbEntity
  8
TITLEBLOCK
  6
Continuous
100
AcDbMText
 10
71.4859754976178
 20
-15.23544048329632
 30
0.0
 40
2.077498368009191
 41
11.63545910803689
 71
     4
 72
     5
  1
Model
  7
RomanC
 73
     1
 44
1.0
  0
MTEXT
  5
49CEE
330
49CDE
100
AcDbEntity
  8
TITLEBLOCK
  6
Continuous
100
AcDbMText
 10
84.27560036565956
 20
-15.23544048329632
 30
0.0
 40
2.077498368009191
 41
58.30836788500506
 71
     4
 72
     5
  1
-
  7
RomanC
 73
     1
 44
1.0
  0
MTEXT
  5
49CEF
330
49CDE
100
AcDbEntity
  8
TITLEBLOCK
  6
Continuous
100
AcDbMText
 10
143.7381340106695
 20
-15.23544048329632
 30
0.0
 40
2.077498368009191
 41
27.0821179495841
 71
     4
 72
     5
  1
Drawing No
  7
RomanC
 73
     1
 44
1.0
  0
MTEXT
  5
49CF0
330
49CDE
100
AcDbEntity
  8
TITLEBLOCK
  6
Continuous
100
AcDbMText
 10
71.4859754976178
 20
-24.7439883569059
 30
0.0
 40
2.920039372812918
 41
71.09799275304707
 71
     4
 72
     5
  1
Part Name:                   {\H0.93574x;COUPON BLANK}
  7
RomanC
 73
     1
 44
1.0
  0
MTEXT
  5
49CF1
330
49CDE
100
AcDbEntity
  8
TITLEBLOCK
  6
Continuous
100
AcDbMText
 10
157.279192985462
 20
-24.7439883569059
 30
0.0
 40
2.885414400012765
 41
27.0821179495841
 71
     5
 72
     5
  1
KKB FIPG
  7
RomanC
 73
     1
 44
1.0
  0
INSERT
  5
49CF2
330
49CDE
100
AcDbEntity
  8
TITLEBLOCK
  6
Continuous
100
AcDbBlockReference
  2
3rd
 10
135.4564424813234
 20
-6.290027207650382
 30
0.0000000156444857
 41
1.564448569150689
 42
1.564448569150689
 43
1.564448569150689
1001
ACAD
1000
_DRAW_ANNO
  0
INSERT
  5
49CF3
330
49CDE
100
AcDbEntity
  8
TITLEBLOCK
  6
Continuous
100
AcDbBlockReference
  2
MMI PRECISION FORMING
 10
-2.083940964270369
 20
-6.383215279047818
 30
0.000000006073823
 41
0.6073823003207237
 42
0.6073823003207237
 43
0.6073823003207237
1001
ACAD
1000
_DRAW_ANNO
  0
LINE
  5
49CF4
330
49CDE
100
AcDbEntity
  8
TITLEBLOCK
  6
ByBlock
 62
     0
370
    -2
100
AcDbLine
 10
0.0
 20
0.0
 30
0.0
 11
171.397334840256
 21
0.0
 31
0.0
  0
LINE
  5
49CF5
330
49CDE
100
AcDbEntity
  8
TITLEBLOCK
  6
ByBlock
370
    20
100
AcDbLine
 10
0.0
 20
-6.764555370419657
 30
0.0
 11
106.3707454485875
 21
-6.764555370419657
 31
0.0
  0
LINE
  5
49CF6
330
49CDE
100
AcDbEntity
  8
TITLEBLOCK
  6
ByBlock
370
    20
100
AcDbLine
 10
143.1610511306671
 20
-6.764555370419657
 30
0.0
 11
171.397334840256
 21
-6.764555370419657
 31
0.0
  0
LINE
  5
49CF7
330
49CDE
100
AcDbEntity
  8
TITLEBLOCK
  6
ByBlock
370
    20
100
AcDbLine
 10
0.0
 20
-12.41181211233697
 30
0.0
 11
171.397334840256
 21
-12.41181211233697
 31
0.0
  0
LINE
  5
49CF8
330
49CDE
100
AcDbEntity
  8
TITLEBLOCK
  6
ByBlock
370
    20
100
AcDbLine
 10
0.0
 20
-18.05906885425475
 30
0.0
 11
171.397334840256
 21
-18.05906885425475
 31
0.0
  0
LINE
  5
49CF9
330
49CDE
100
AcDbEntity
  8
TITLEBLOCK
  6
ByBlock
370
    20
100
AcDbLine
 10
0.0
 20
-31.4289078595566
 30
0.0
 11
171.397334840256
 21
-31.4289078595566
 31
0.0
  0
LINE
  5
49CFA
330
49CDE
100
AcDbEntity
  8
TITLEBLOCK
  6
ByBlock
 62
     0
370
    -2
100
AcDbLine
 10
0.0
 20
0.0
 30
0.0
 11
0.0
 21
-6.764555370419657
 31
0.0
  0
LINE
  5
49CFB
330
49CDE
100
AcDbEntity
  8
TITLEBLOCK
  6
ByBlock
370
    20
100
AcDbLine
 10
0.0
 20
-6.764555370419657
 30
0.0
 11
0.0
 21
-31.4289078595566
 31
0.0
  0
LINE
  5
49CFC
330
49CDE
100
AcDbEntity
  8
TITLEBLOCK
  6
ByBlock
 62
     0
370
    -2
100
AcDbLine
 10
23.38799416834354
 20
0.0
 30
0.0
 11
23.38799416834354
 21
-6.764555370419657
 31
0.0
  0
LINE
  5
49CFD
330
49CDE
100
AcDbEntity
  8
TITLEBLOCK
  6
ByBlock
370
    20
100
AcDbLine
 10
23.38799416834354
 20
-6.764555370419657
 30
0.0
 11
23.38799416834354
 21
-18.05906885425475
 31
0.0
  0
LINE
  5
49CFE
330
49CDE
100
AcDbEntity
  8
TITLEBLOCK
  6
ByBlock
 62
     0
370
    -2
100
AcDbLine
 10
43.38763429153641
 20
0.0
 30
0.0
 11
43.38763429153641
 21
-6.764555370419657
 31
0.0
  0
LINE
  5
49CFF
330
49CDE
100
AcDbEntity
  8
TITLEBLOCK
  6
ByBlock
370
    20
100
AcDbLine
 10
43.38763429153641
 20
-6.764555370419657
 30
0.0
 11
43.38763429153641
 21
-18.05906885425475
 31
0.0
  0
LINE
  5
49D00
330
49CDE
100
AcDbEntity
  8
TITLEBLOCK
  6
ByBlock
 62
     0
370
    -2
100
AcDbLine
 10
53.2222122792773
 20
0.0
 30
0.0
 11
53.2222122792773
 21
-6.764555370419657
 31
0.0
  0
LINE
  5
49D01
330
49CDE
100
AcDbEntity
  8
TITLEBLOCK
  6
ByBlock
370
    20
100
AcDbLine
 10
53.2222122792773
 20
-6.764555370419657
 30
0.0
 11
53.2222122792773
 21
-18.05906885425475
 31
0.0
  0
LINE
  5
49D02
330
49CDE
100
AcDbEntity
  8
TITLEBLOCK
  6
ByBlock
 62
     0
370
    -2
100
AcDbLine
 10
70.90889261761549
 20
0.0
 30
0.0
 11
70.90889261761549
 21
-6.764555370419657
 31
0.0
  0
LINE
  5
49D03
330
49CDE
100
AcDbEntity
  8
TITLEBLOCK
  6
ByBlock
370
    20
100
AcDbLine
 10
70.90889261761549
 20
-6.764555370419657
 30
0.0
 11
70.90889261761549
 21
-31.4289078595566
 31
0.0
  0
LINE
  5
49D04
330
49CDE
100
AcDbEntity
  8
TITLEBLOCK
  6
ByBlock
 62
     0
370
    -2
100
AcDbLine
 10
83.69851748565725
 20
0.0
 30
0.0
 11
83.69851748565725
 21
-6.764555370419657
 31
0.0
  0
LINE
  5
49D05
330
49CDE
100
AcDbEntity
  8
TITLEBLOCK
  6
ByBlock
370
    20
100
AcDbLine
 10
83.69851748565725
 20
-6.764555370419657
 30
0.0
 11
83.69851748565725
 21
-18.05906885425475
 31
0.0
  0
LINE
  5
49D06
330
49CDE
100
AcDbEntity
  8
TITLEBLOCK
  6
ByBlock
 62
     0
370
    -2
100
AcDbLine
 10
106.3707454485875
 20
0.0
 30
0.0
 11
106.3707454485875
 21
-12.41181211233697
 31
0.0
  0
LINE
  5
49D07
330
49CDE
100
AcDbEntity
  8
TITLEBLOCK
  6
ByBlock
 62
     0
370
    -2
100
AcDbLine
 10
143.1610511306671
 20
0.0
 30
0.0
 11
143.1610511306671
 21
-6.764555370419657
 31
0.0
  0
LINE
  5
49D08
330
49CDE
100
AcDbEntity
  8
TITLEBLOCK
  6
ByBlock
370
    20
100
AcDbLine
 10
143.1610511306671
 20
-6.764555370419657
 30
0.0
 11
143.1610511306671
 21
-31.4289078595566
 31
0.0
  0
LINE
  5
49D09
330
49CDE
100
AcDbEntity
  8
TITLEBLOCK
  6
ByBlock
 62
     0
370
    -2
100
AcDbLine
 10
160.1028213564205
 20
0.0
 30
0.0
 11
160.1028213564205
 21
-6.764555370419657
 31
0.0
  0
LINE
  5
49D0A
330
49CDE
100
AcDbEntity
  8
TITLEBLOCK
  6
ByBlock
370
    20
100
AcDbLine
 10
160.1028213564205
 20
-6.764555370419657
 30
0.0
 11
160.1028213564205
 21
-12.41181211233697
 31
0.0
  0
LINE
  5
49D0B
330
49CDE
100
AcDbEntity
  8
TITLEBLOCK
  6
ByBlock
 62
     0
370
    -2
100
AcDbLine
 10
171.397334840256
 20
0.0
 30
0.0
 11
171.397334840256
 21
-6.764555370419657
 31
0.0
  0
LINE
  5
49D0C
330
49CDE
100
AcDbEntity
  8
TITLEBLOCK
  6
ByBlock
370
    20
100
AcDbLine
 10
171.397334840256
 20
-6.764555370419657
 30
0.0
 11
171.397334840256
 21
-31.4289078595566
 31
0.0
  0
LINE
  5
49D0D
330
49CDE
100
AcDbEntity
  8
Defpoints
 62
     8
 60
     1
370
     0
100
AcDbLine
 10
0.0
 20
0.0
 30
0.0
 11
0.0
 21
0.0
 31
0.0
  0
ENDBLK
  5
49D0F
330
49CDE
100
AcDbEntity
  8
0
100
AcDbBlockEnd
  0
BLOCK
  5
49D1F
330
49D10
100
AcDbEntity
  8
0
100
AcDbBlockBegin
  2
*T106
 70
     1
 10
0.0
 20
0.0
 30
0.0
  3
*T106
  1
*T106
  0
MTEXT
  5
49D11
330
49D10
100
AcDbEntity
  8
TITLEBLOCK
100
AcDbMText
 10
0.9799098325775049
 20
-4.610092350484592
 30
0.0
 40
2.584565551412719
 41
83.99556749918982
 71
     4
 72
     5
  1
TOLERANCE UNLESS OTHERWISE STATED
  7
RomanC
 73
     1
 44
1.0
  0
MTEXT
  5
49D12
330
49D10
100
AcDbEntity
  8
TITLEBLOCK
100
AcDbMText
 10
0.9799098325775049
 20
-12.92163856073375
 30
0.0
 40
2.584565551412719
 41
83.99556749918982
 71
     4
 72
     5
  1
LINEAR .XXX 0.{\Fromanc|c128;1} .XX  0.{\Fromanc|c128;2}
  7
RomanC
 73
     1
 44
1.0
  0
MTEXT
  5
49D13
330
49D10
100
AcDbEntity
  8
TITLEBLOCK
100
AcDbMText
 10
0.9799098325775049
 20
-20.32454628026289
 30
0.0
 40
2.584565551412719
 41
83.99556749918982
 71
     4
 72
     5
  1
ANGULAR  %%P1%%D
  7
RomanC
 73
     1
 44
1.0
  0
MTEXT
  5
49D14
330
49D10
100
AcDbEntity
  8
TITLEBLOCK
100
AcDbMText
 10
0.9799098325775049
 20
-27.72745399979203
 30
0.0
 40
2.584565551412719
 41
83.99556749918982
 71
     4
 72
     5
  1
UNIT : MM
  7
RomanC
 73
     1
 44
1.0
  0
LINE
  5
49D15
330
49D10
100
AcDbEntity
  8
TITLEBLOCK
  6
ByBlock
370
    20
100
AcDbLine
 10
0.0
 20
0.0
 30
0.0
 11
85.95538716434385
 21
0.0
 31
0.0
  0
LINE
  5
49D16
330
49D10
100
AcDbEntity
  8
TITLEBLOCK
  6
ByBlock
370
    20
100
AcDbLine
 10
0.0
 20
-9.220184700969185
 30
0.0
 11
85.95538716434385
 21
-9.220184700969185
 31
0.0
  0
LINE
  5
49D17
330
49D10
100
AcDbEntity
  8
TITLEBLOCK
  6
ByBlock
370
    20
100
AcDbLine
 10
0.0
 20
-16.62309242049832
 30
0.0
 11
85.95538716434385
 21
-16.62309242049832
 31
0.0
  0
LINE
  5
49D18
330
49D10
100
AcDbEntity
  8
TITLEBLOCK
  6
ByBlock
370
    20
100
AcDbLine
 10
0.0
 20
-24.02600014002746
 30
0.0
 11
85.95538716434385
 21
-24.02600014002746
 31
0.0
  0
LINE
  5
49D19
330
49D10
100
AcDbEntity
  8
TITLEBLOCK
  6
ByBlock
370
    20
100
AcDbLine
 10
0.0
 20
-31.4289078595566
 30
0.0
 11
85.95538716434385
 21
-31.4289078595566
 31
0.0
  0
LINE
  5
49D1A
330
49D10
100
AcDbEntity
  8
TITLEBLOCK
  6
ByBlock
 62
     0
370
    -2
100
AcDbLine
 10
0.0
 20
0.0
 30
0.0
 11
0.0
 21
-9.220184700969185
 31
0.0
  0
LINE
  5
49D1B
330
49D10
100
AcDbEntity
  8
TITLEBLOCK
  6
ByBlock
370
    20
100
AcDbLine
 10
0.0
 20
-9.220184700969185
 30
0.0
 11
0.0
 21
-31.4289078595566
 31
0.0
  0
LINE
  5
49D1C
330
49D10
100
AcDbEntity
  8
TITLEBLOCK
  6
ByBlock
 62
     0
370
    -2
100
AcDbLine
 10
85.95538716434385
 20
0.0
 30
0.0
 11
85.95538716434385
 21
-9.220184700969185
 31
0.0
  0
LINE
  5
49D1D
330
49D10
100
AcDbEntity
  8
TITLEBLOCK
  6
ByBlock
370
    20
100
AcDbLine
 10
85.95538716434385
 20
-9.220184700969185
 30
0.0
 11
85.95538716434385
 21
-31.4289078595566
 31
0.0
  0
LINE
  5
49D1E
330
49D10
100
AcDbEntity
  8
Defpoints
 62
     8
 60
     1
370
     0
100
AcDbLine
 10
0.0
 20
0.0
 30
0.0
 11
0.0
 21
0.0
 31
0.0
  0
ENDBLK
  5
49D20
330
49D10
100
AcDbEntity
  8
0
100
AcDbBlockEnd
  0
ENDSEC
  0
SECTION
  2
ENTITIES
  0
ARC
  5
491D8
330
2
100
AcDbEntity
  8
DP
  6
Continuous
 62
     1
 48
0.2
100
AcDbCircle
 10
5756.569510641969
 20
-3820.701219074819
 30
0.0
 40
5.0
100
AcDbArc
 50
270.0
 51
90.0
  0
LINE
  5
491F0
330
2
100
AcDbEntity
  8
DP
  6
Continuous
 62
     1
 48
0.2
100
AcDbLine
 10
5687.569510641969
 20
-3815.701219074819
 30
0.0
 11
5756.569510641969
 21
-3815.701219074819
 31
0.0
  0
LINE
  5
491F1
330
2
100
AcDbEntity
  8
DP
  6
Continuous
 62
     1
 48
0.2
100
AcDbLine
 10
5687.569510641969
 20
-3825.701219074819
 30
0.0
 11
5756.569510641969
 21
-3825.701219074819
 31
0.0
  0
ARC
  5
491F4
330
2
100
AcDbEntity
  8
DP
  6
Continuous
 62
     1
 48
0.2
100
AcDbCircle
 10
5687.569510641969
 20
-3810.701219074819
 30
0.0
 40
5.0
100
AcDbArc
 50
90.0
 51
270.0
  0
LINE
  5
491F5
330
2
100
AcDbEntity
  8
DP
  6
Continuous
 62
     1
 48
0.2
100
AcDbLine
 10
5687.569510641969
 20
-3805.701219074819
 30
0.0
 11
5756.569510641969
 21
-3805.701219074819
 31
0.0
  0
ARC
  5
491F8
330
2
100
AcDbEntity
  8
DP
  6
Continuous
 62
     1
 48
0.2
100
AcDbCircle
 10
5756.569510641969
 20
-3800.701219074819
 30
0.0
 40
5.0
100
AcDbArc
 50
270.0
 51
90.0
  0
LINE
  5
491F9
330
2
100
AcDbEntity
  8
DP
  6
Continuous
 62
     1
 48
0.2
100
AcDbLine
 10
5687.569510641969
 20
-3795.701219074819
 30
0.0
 11
5756.569510641969
 21
-3795.701219074819
 31
0.0
  0
LINE
  5
491FA
330
2
100
AcDbEntity
  8
DP
  6
Continuous
 62
     1
 48
0.2
100
AcDbLine
 10
5687.569510641969
 20
-3785.701219074819
 30
0.0
 11
5756.569510641969
 21
-3785.701219074819
 31
0.0
  0
ARC
  5
491FD
330
2
100
AcDbEntity
  8
DP
  6
Continuous
 62
     1
 48
0.2
100
AcDbCircle
 10
5687.569510641969
 20
-3790.701219074819
 30
0.0
 40
5.0
100
AcDbArc
 50
90.0
 51
270.0
  0
LINE
  5
491FF
330
2
100
AcDbEntity
  8
DP
  6
Continuous
 62
     1
 48
0.2
100
AcDbLine
 10
5682.569510641969
 20
-3775.701219074819
 30
0.0
 11
5756.569510641969
 21
-3775.701219074819
 31
0.0
  0
ARC
  5
49200
330
2
100
AcDbEntity
  8
DP
  6
Continuous
 62
     1
 48
0.2
100
AcDbCircle
 10
5756.569510641969
 20
-3780.701219074819
 30
0.0
 40
5.0
100
AcDbArc
 50
270.0
 51
90.0
  0
LINE
  5
49204
330
2
100
AcDbEntity
  8
DP
  6
Continuous
 62
     1
 48
0.2
100
AcDbLine
 10
5687.569510641969
 20
-3845.701219074819
 30
0.0
 11
5756.569510641969
 21
-3845.701219074819
 31
0.0
  0
LINE
  5
49205
330
2
100
AcDbEntity
  8
DP
  6
Continuous
 62
     1
 48
0.2
100
AcDbLine
 10
5687.569510641969
 20
-3835.701219074819
 30
0.0
 11
5756.569510641969
 21
-3835.701219074819
 31
0.0
  0
ARC
  5
49206
330
2
100
AcDbEntity
  8
DP
  6
Continuous
 62
     1
 48
0.2
100
AcDbCircle
 10
5756.569510641969
 20
-3840.701219074819
 30
0.0
 40
5.0
100
AcDbArc
 50
270.0
 51
90.0
  0
ARC
  5
49207
330
2
100
AcDbEntity
  8
DP
  6
Continuous
 62
     1
 48
0.2
100
AcDbCircle
 10
5687.569510641969
 20
-3830.701219074819
 30
0.0
 40
5.0
100
AcDbArc
 50
90.0
 51
270.0
  0
LINE
  5
49208
330
2
100
AcDbEntity
  8
DP
  6
Continuous
 62
     1
 48
0.2
100
AcDbLine
 10
5682.569510641969
 20
-3865.701219074819
 30
0.0
 11
5756.569510641969
 21
-3865.701219074819
 31
0.0
  0
LINE
  5
49209
330
2
100
AcDbEntity
  8
DP
  6
Continuous
 62
     1
 48
0.2
100
AcDbLine
 10
5687.569510641969
 20
-3855.701219074819
 30
0.0
 11
5756.569510641969
 21
-3855.701219074819
 31
0.0
  0
ARC
  5
4920A
330
2
100
AcDbEntity
  8
DP
  6
Continuous
 62
     1
 48
0.2
100
AcDbCircle
 10
5756.569510641969
 20
-3860.701219074819
 30
0.0
 40
5.0
100
AcDbArc
 50
270.0
 51
90.0
  0
ARC
  5
4920B
330
2
100
AcDbEntity
  8
DP
  6
Continuous
 62
     1
 48
0.2
100
AcDbCircle
 10
5687.569510641969
 20
-3850.701219074819
 30
0.0
 40
5.0
100
AcDbArc
 50
90.0
 51
270.0
  0
POINT
  5
49EFB
330
2
100
AcDbEntity
  8
DP
  6
Continuous
100
AcDbPoint
 10
5669.569510641969
 20
-3744.201219074819
 30
0.0
  0
POINT
  5
49EFC
330
2
100
AcDbEntity
  8
DP
  6
Continuous
100
AcDbPoint
 10
5774.569510641969
 20
-3744.201219074819
 30
0.0
  0
ENDSEC
  0
SECTION
  2
OBJECTS
  0
DICTIONARY
  5
B
330
0
100
AcDbDictionary
281
     1
  3
ACAD_CIP_PREVIOUS_PRODUCT_INFO
350
48E3D
  3
ACAD_GROUP
350
3C
  3
ACAD_IMAGE_VARS
350
49EF3
  3
ACAD_LAYOUT
350
14
  3
ACAD_MLINESTYLE
350
3D
  3
ACAD_PLOTSETTINGS
350
3E
  3
ACAD_PLOTSTYLENAME
350
10
  3
ACAD_SCALELIST
350
180C3
  3
AcadDim
350
F7FA
  3
AcDbVariableDictionary
350
CA4
  3
AEC_PROPERTY_SET_DEFS
350
2D854
  3
APPDATA
350
49EF1
  3
ASE_INDEX_DICTIONARY
350
16952
  3
DWGPROPS
350
49EFD
  0
DICTIONARY
  5
20
330
1F
100
AcDbDictionary
280
     1
281
     1
  3
ACAD_LAYERFILTERS
360
21
  3
ACAD_LAYERSTATES
360
22
  0
DICTIONARY
  5
7
330
6
100
AcDbDictionary
280
     1
281
     1
  3
ADSK_XREC_LAYER_RECONCILED
360
E
  0
DICTIONARY
  5
3FA81
330
3FA80
100
AcDbDictionary
280
     1
281
     1
  3
ADSK_XREC_VTR_ANNOSCALE_DATA
360
3FA82
  0
DICTIONARY
  5
3
330
2
100
AcDbDictionary
280
     1
281
     1
  3
ACAD_SORTENTS
360
C9F
  0
DICTIONARY
  5
49BF5
330
49BF4
100
AcDbDictionary
280
     1
281
     1
  3
AcDbBlockTableRecordData
360
49E67
  0
DICTIONARY
  5
49C54
330
49C53
100
AcDbDictionary
280
     1
281
     1
  3
ACAD_SORTENTS
360
49C55
  0
XRECORD
  5
48E3D
102
{ACAD_REACTORS
330
B
102
}
330
B
100
AcDbXrecord
280
     1
300
ACDLT
300
2012
300
ACDLT_F_S
  0
DICTIONARY
  5
3C
102
{ACAD_REACTORS
330
B
102
}
330
B
100
AcDbDictionary
281
     1
  0
RASTERVARIABLES
  5
49EF3
102
{ACAD_REACTORS
330
B
102
}
330
B
100
AcDbRasterVariables
 90
        0
 70
     1
 71
     1
 72
     1
  0
DICTIONARY
  5
14
102
{ACAD_REACTORS
330
B
102
}
330
B
100
AcDbDictionary
281
     1
  3
Layout1
350
1E
  3
Model
350
13
  0
DICTIONARY
  5
3D
102
{ACAD_REACTORS
330
B
102
}
330
B
100
AcDbDictionary
281
     1
  3
Standard
350
49
  0
DICTIONARY
  5
3E
102
{ACAD_REACTORS
330
B
102
}
330
B
100
AcDbDictionary
281
     1
  0
ACDBDICTIONARYWDFLT
  5
10
102
{ACAD_REACTORS
330
B
102
}
330
B
100
AcDbDictionary
281
     1
  3
Normal
350
F
100
AcDbDictionaryWithDefault
340
F
  0
DICTIONARY
  5
180C3
102
{ACAD_REACTORS
330
B
102
}
330
B
100
AcDbDictionary
281
     1
  3
A0
350
180C4
  3
A1
350
180C5
  3
A2
350
180C6
  3
A3
350
180C7
  3
A4
350
180C8
  3
A5
350
180C9
  3
A6
350
180CA
  3
A7
350
180CB
  3
A8
350
180CC
  3
A9
350
180CD
  3
B0
350
180CE
  3
B1
350
180CF
  3
B2
350
180D0
  3
B3
350
180D1
  3
B4
350
180D2
  3
B5
350
180D3
  3
B6
350
180D4
  0
XRECORD
  5
F7FA
102
{ACAD_REACTORS
330
B
102
}
330
B
100
AcDbXrecord
280
     1
 90
   990106
  3

 60
     0
 61
     0
 62
     1
 63
     3
 64
     0
 65
     0
 66
     0
 67
     3
 68
     1
 69
     0
 70
     0
 71
     0
 72
     0
 40
0.0
170
     0
  0
DICTIONARY
  5
CA4
102
{ACAD_REACTORS
330
B
102
}
330
B
100
AcDbDictionary
281
     1
  3
DIMASSOC
350
3E34
  3
HIDETEXT
350
3E33
  3
INDEXCTL
350
182A5
  3
PROJECTNAME
350
3E35
  3
SORTENTS
350
182A4
  0
DICTIONARY
  5
2D854
102
{ACAD_REACTORS
330
B
102
}
330
B
100
AcDbDictionary
281
     1
  0
DICTIONARY
  5
49EF1
102
{ACAD_REACTORS
330
B
102
}
330
B
100
AcDbDictionary
281
     1
  0
DICTIONARY
  5
16952
102
{ACAD_REACTORS
330
B
102
}
330
B
100
AcDbDictionary
281
     1
  3
ASEBlockHierarchyIndexRecord
350
16953
1001
DCO15
1040
1704433704.687
  0
XRECORD
  5
49EFD
102
{ACAD_REACTORS
330
B
102
}
330
B
100
AcDbXrecord
280
     1
  1
DWGPROPS COOKIE
  2

  3

  4

  6

  7

  8
Francis
  9

300
=
301
=
302
=
303
=
304
=
305
=
306
=
307
=
308
=
309
=
 40
0.0
 41
2452741.32531338
 42
2456981.309395255
  1

 90
        0
  0
DICTIONARY
  5
21
102
{ACAD_REACTORS
330
20
102
}
330
20
100
AcDbDictionary
281
     1
  0
DICTIONARY
  5
22
102
{ACAD_REACTORS
330
20
102
}
330
20
100
AcDbDictionary
281
     1
  3
ARGON_LAYERP_1
350
49EF4
  3
ARGON_LAYERP_2
350
49EF5
  3
ARGON_LAYERP_3
350
49EF6
  3
ARGON_LAYERP_4
350
49EF7
  3
ARGON_LAYERP_5
350
49EF8
  3
ARGON_LAYERP_6
350
49EF9
  3
ARGON_LAYERP_7
350
49EFA
1001
AcLayerTools
1000
13
1000
0
  0
XRECORD
  5
E
102
{ACAD_REACTORS
330
7
102
}
330
7
100
AcDbXrecord
280
     1
290
     1
  0
XRECORD
  5
3FA82
102
{ACAD_REACTORS
330
3FA81
102
}
330
3FA81
100
AcDbXrecord
280
     1
340
180C4
  0
SORTENTSTABLE
  5
C9F
102
{ACAD_REACTORS
330
3
102
}
330
3
100
AcDbSortentsTable
330
2
331
0
  5
490E4
331
0
  5
491CE
331
491D8
  5
4920B
331
491F0
  5
49208
331
491F1
  5
49205
331
491F4
  5
49216
331
491F5
  5
491F3
331
491F8
  5
49219
331
491F9
  5
491F8
331
491FA
  5
491FE
331
491FD
  5
4921C
331
491FF
  5
49201
331
49200
  5
4921F
331
49204
  5
49222
331
49205
  5
49225
331
49206
  5
49228
331
49207
  5
4922B
331
49208
  5
4922E
331
49209
  5
49231
331
4920A
  5
49234
331
4920B
  5
49237
331
0
  5
49230
331
0
  5
49236
331
0
  5
49235
331
0
  5
4922F
331
0
  5
4923A
331
0
  5
49233
331
0
  5
49232
331
0
  5
49239
331
0
  5
49238
331
0
  5
49224
331
0
  5
49223
331
0
  5
4922A
331
0
  5
49229
331
0
  5
49227
331
0
  5
49226
331
0
  5
4922D
331
0
  5
4922C
331
0
  5
49207
331
0
  5
49206
331
0
  5
49215
331
0
  5
49214
331
0
  5
4920A
331
0
  5
49209
331
0
  5
49218
331
0
  5
49217
331
0
  5
491F6
331
0
  5
491F4
331
0
  5
491FD
331
0
  5
491FC
331
0
  5
4921B
331
0
  5
4921A
331
0
  5
4921E
331
0
  5
4921D
331
0
  5
49200
331
0
  5
491FF
331
0
  5
49221
331
0
  5
49220
331
0
  5
49204
331
0
  5
49202
  0
DICTIONARY
  5
49E67
102
{ACAD_REACTORS
330
49BF5
102
}
330
49BF5
100
AcDbDictionary
280
     1
281
     1
  0
SORTENTSTABLE
  5
49C55
102
{ACAD_REACTORS
330
49C54
102
}
330
49C54
100
AcDbSortentsTable
330
49C53
  0
LAYOUT
  5
1E
102
{ACAD_REACTORS
330
14
102
}
330
14
100
AcDbPlotSettings
  1

  2
HP LaserJet 5000 Series PS
  4

  6

 40
0.0
 41
0.0
 42
0.0
 43
0.0
 44
0.0
 45
0.0
 46
0.0
 47
0.0
 48
0.0
 49
0.0
140
0.0
141
0.0
142
1.0
143
1.0
 70
   688
 72
     0
 73
     0
 74
     5
  7
monochrome.ctb
 75
    16
147
1.0
148
0.0
149
0.0
100
AcDbLayout
  1
Layout1
 70
     1
 71
     1
 10
0.0
 20
0.0
 11
420.0
 21
297.0
 12
0.0
 22
0.0
 32
0.0
 14
1.000000000000000E+20
 24
1.000000000000000E+20
 34
1.000000000000000E+20
 15
-1.000000000000000E+20
 25
-1.000000000000000E+20
 35
-1.000000000000000E+20
146
0.0
 13
0.0
 23
0.0
 33
0.0
 16
1.0
 26
0.0
 36
0.0
 17
0.0
 27
1.0
 37
0.0
 76
     0
330
1B
  0
LAYOUT
  5
13
102
{ACAD_REACTORS
330
14
102
}
330
14
100
AcDbPlotSettings
  1

  2
HP LaserJet 8150 PCL 5
  4
A4
  6
OLE1
 40
6.805083274841309
 41
5.027069091796875
 42
6.805068969726562
 43
5.027069091796875
 44
209.9733276367188
 45
296.9683227539062
 46
3.243103040861001
 47
0.0
 48
3851.425278472953
 49
-3898.868703837826
140
4418.606281682321
141
-3523.513926237239
142
1.0
143
1.976831518660494
 70
 11956
 72
     1
 73
     1
 74
     4
  7
monochrome.ctb
 75
     0
147
0.5058600040319079
148
-3851.425278472953
149
3898.868703837826
100
AcDbLayout
  1
Model
 70
     1
 71
     0
 10
0.0
 20
0.0
 11
12.0
 21
9.0
 12
0.0
 22
0.0
 32
0.0
 14
5669.569510641969
 24
-3865.701219074819
 34
0.0
 15
5774.569510641969
 25
-3744.201219074819
 35
0.0
146
0.0
 13
0.0
 23
0.0
 33
0.0
 16
1.0
 26
0.0
 36
0.0
 17
0.0
 27
1.0
 37
0.0
 76
     0
330
2
331
1809D
1001
ACAD_PSEXT
1000
HP LaserJet 8150 PCL 5
1000
HP LaserJet 8150 PCL 5
1000
192.168.4.31
1000

1070
     0
  0
MLINESTYLE
  5
49
102
{ACAD_REACTORS
330
3D
102
}
330
3D
100
AcDbMlineStyle
  2
STANDARD
 70
     0
  3

 62
   256
 51
90.0
 52
90.0
 71
     2
 49
0.5
 62
   256
  6
BYLAYER
 49
-0.5
 62
   256
  6
BYLAYER
  0
ACDBPLACEHOLDER
  5
F
102
{ACAD_REACTORS
330
10
102
}
330
10
  0
SCALE
  5
180C4
102
{ACAD_REACTORS
330
180C3
102
}
330
180C3
100
AcDbScale
 70
     0
300
1:1
140
1.0
141
1.0
290
     1
  0
SCALE
  5
180C5
102
{ACAD_REACTORS
330
180C3
102
}
330
180C3
100
AcDbScale
 70
     0
300
1:2
140
1.0
141
2.0
290
     0
  0
SCALE
  5
180C6
102
{ACAD_REACTORS
330
180C3
102
}
330
180C3
100
AcDbScale
 70
     0
300
1:4
140
1.0
141
4.0
290
     0
  0
SCALE
  5
180C7
102
{ACAD_REACTORS
330
180C3
102
}
330
180C3
100
AcDbScale
 70
     0
300
1:5
140
1.0
141
5.0
290
     0
  0
SCALE
  5
180C8
102
{ACAD_REACTORS
330
180C3
102
}
330
180C3
100
AcDbScale
 70
     0
300
1:8
140
1.0
141
8.0
290
     0
  0
SCALE
  5
180C9
102
{ACAD_REACTORS
330
180C3
102
}
330
180C3
100
AcDbScale
 70
     0
300
1:10
140
1.0
141
10.0
290
     0
  0
SCALE
  5
180CA
102
{ACAD_REACTORS
330
180C3
102
}
330
180C3
100
AcDbScale
 70
     0
300
1:16
140
1.0
141
16.0
290
     0
  0
SCALE
  5
180CB
102
{ACAD_REACTORS
330
180C3
102
}
330
180C3
100
AcDbScale
 70
     0
300
1:20
140
1.0
141
20.0
290
     0
  0
SCALE
  5
180CC
102
{ACAD_REACTORS
330
180C3
102
}
330
180C3
100
AcDbScale
 70
     0
300
1:30
140
1.0
141
30.0
290
     0
  0
SCALE
  5
180CD
102
{ACAD_REACTORS
330
180C3
102
}
330
180C3
100
AcDbScale
 70
     0
300
1:40
140
1.0
141
40.0
290
     0
  0
SCALE
  5
180CE
102
{ACAD_REACTORS
330
180C3
102
}
330
180C3
100
AcDbScale
 70
     0
300
1:50
140
1.0
141
50.0
290
     0
  0
SCALE
  5
180CF
102
{ACAD_REACTORS
330
180C3
102
}
330
180C3
100
AcDbScale
 70
     0
300
1:100
140
1.0
141
100.0
290
     0
  0
SCALE
  5
180D0
102
{ACAD_REACTORS
330
180C3
102
}
330
180C3
100
AcDbScale
 70
     0
300
2:1
140
2.0
141
1.0
290
     0
  0
SCALE
  5
180D1
102
{ACAD_REACTORS
330
180C3
102
}
330
180C3
100
AcDbScale
 70
     0
300
4:1
140
4.0
141
1.0
290
     0
  0
SCALE
  5
180D2
102
{ACAD_REACTORS
330
180C3
102
}
330
180C3
100
AcDbScale
 70
     0
300
8:1
140
8.0
141
1.0
290
     0
  0
SCALE
  5
180D3
102
{ACAD_REACTORS
330
180C3
102
}
330
180C3
100
AcDbScale
 70
     0
300
10:1
140
10.0
141
1.0
290
     0
  0
SCALE
  5
180D4
102
{ACAD_REACTORS
330
180C3
102
}
330
180C3
100
AcDbScale
 70
     0
300
100:1
140
100.0
141
1.0
290
     0
  0
DICTIONARYVAR
  5
3E34
102
{ACAD_REACTORS
330
CA4
102
}
330
CA4
100
DictionaryVariables
280
     0
  1
1
  0
DICTIONARYVAR
  5
3E33
102
{ACAD_REACTORS
330
CA4
102
}
330
CA4
100
DictionaryVariables
280
     0
  1
1
  0
DICTIONARYVAR
  5
182A5
102
{ACAD_REACTORS
330
CA4
102
}
330
CA4
100
DictionaryVariables
280
     0
  1
0
  0
DICTIONARYVAR
  5
3E35
102
{ACAD_REACTORS
330
CA4
102
}
330
CA4
100
DictionaryVariables
280
     0
  1

  0
DICTIONARYVAR
  5
182A4
102
{ACAD_REACTORS
330
CA4
102
}
330
CA4
100
DictionaryVariables
280
     0
  1
127
  0
XRECORD
  5
16953
102
{ACAD_REACTORS
330
16952
102
}
330
16952
100
AcDbXrecord
280
     1
330
0
330
0
330
0
330
0
330
0
330
0
330
0
330
0
330
0
330
0
330
0
330
0
330
0
330
0
330
0
330
0
330
0
330
0
330
0
330
0
330
0
330
0
330
0
330
0
330
0
330
0
330
0
330
0
330
0
330
0
330
0
330
0
330
0
330
0
330
0
330
0
330
0
330
0
330
0
330
0
330
0
330
0
330
0
330
0
330
0
330
0
330
0
330
0
330
0
330
0
330
0
330
0
330
0
330
0
330
0
330
0
330
0
330
0
330
0
330
0
330
0
330
0
330
0
330
0
330
0
330
0
330
0
330
0
330
0
330
0
330
0
330
0
330
0
330
0
330
0
330
0
330
0
330
0
330
0
330
0
330
0
330
0
330
0
330
0
330
0
330
0
330
0
330
0
330
0
330
0
330
0
330
0
330
0
330
0
330
0
330
0
330
0
330
0
330
0
330
0
330
0
330
0
330
0
330
0
330
0
330
0
330
0
330
0
330
0
330
0
330
0
330
0
330
0
330
0
330
0
330
0
330
0
330
0
330
0
330
0
330
0
330
0
330
0
330
0
330
0
330
0
330
0
330
0
330
0
330
0
330
0
330
0
330
0
330
0
330
0
330
0
330
0
330
0
330
0
330
0
330
0
330
0
330
0
330
0
330
0
330
0
330
0
330
0
330
0
330
0
330
0
330
0
330
0
330
0
330
0
330
0
330
0
330
0
330
0
330
0
330
0
330
0
330
0
330
0
330
0
330
0
330
0
330
0
330
0
330
0
330
0
330
0
330
0
330
0
330
0
330
0
330
0
330
0
330
0
330
0
330
0
330
0
330
0
330
0
330
0
330
0
330
0
330
0
330
0
330
0
330
0
330
0
330
0
330
0
330
0
330
0
330
0
330
0
330
0
330
0
330
0
330
0
330
0
330
0
330
0
330
0
330
0
330
0
330
0
330
0
330
0
330
0
330
0
330
0
330
0
330
0
330
0
330
0
330
0
330
0
330
0
330
0
330
0
330
0
330
0
330
0
330
0
330
0
330
0
330
0
330
0
330
0
330
0
330
0
330
0
330
0
330
0
330
0
330
0
330
0
330
0
330
0
330
0
330
0
330
0
330
0
330
0
330
0
330
0
330
0
330
0
330
0
330
0
330
0
330
0
330
0
330
0
330
0
330
0
330
0
330
0
330
0
330
0
330
0
330
0
330
0
330
0
330
0
330
0
330
0
330
0
330
0
330
0
330
0
330
0
330
0
330
0
330
0
330
0
330
0
330
0
330
0
330
0
330
0
330
0
330
0
330
0
330
0
330
0
330
0
330
0
330
0
330
0
330
0
330
0
330
0
330
0
330
0
330
0
330
0
330
0
330
0
330
0
330
0
330
0
330
0
330
0
330
0
330
0
330
0
330
0
330
0
330
0
330
0
330
0
330
0
330
0
330
0
330
0
330
0
330
0
330
0
330
0
330
0
330
0
330
0
330
0
330
0
330
0
330
0
330
0
330
0
330
0
330
0
330
0
330
0
330
0
330
0
330
0
330
0
330
0
330
0
330
0
330
0
330
0
330
0
330
0
330
0
330
0
330
0
330
0
330
0
330
0
330
0
330
0
330
0
330
0
330
0
  0
XRECORD
  5
49EF4
102
{ACAD_REACTORS
330
22
102
}
330
22
100
AcDbXrecord
280
     1
 91
     1023
301

290
     0
302
0-dimension
330
6
 90
        8
 62
     7
370
     0
331
11
  1
Color_7
330
29F
 90
        0
 62
     7
370
     0
331
11
  1
Color_7
330
918
 90
        8
 62
     7
370
     0
331
11
  1
Color_7
330
191CD
 90
        8
 62
   140
370
     5
331
11
  1
Color_140
330
49CB1
 90
        8
 62
     3
370
    -3
331
11
  1
Color_3
  0
XRECORD
  5
49EF5
102
{ACAD_REACTORS
330
22
102
}
330
22
100
AcDbXrecord
280
     1
 91
     1023
301

290
     0
302
0-dimension
330
6
 90
        8
 62
     7
370
     0
331
11
  1
Color_7
330
29F
 90
        0
 62
     7
370
     0
331
11
  1
Color_7
330
918
 90
        9
 62
     7
370
     0
331
11
  1
Color_7
330
191CD
 90
        8
 62
   140
370
     5
331
11
  1
Color_140
330
49CB1
 90
        8
 62
     3
370
    -3
331
11
  1
Color_3
  0
XRECORD
  5
49EF6
102
{ACAD_REACTORS
330
22
102
}
330
22
100
AcDbXrecord
280
     1
 91
     1023
301

290
     0
302
0-dimension
330
6
 90
        8
 62
     7
370
     0
331
11
  1
Color_7
330
29F
 90
        0
 62
     7
370
     0
331
11
  1
Color_7
330
918
 90
        8
 62
     7
370
     0
331
11
  1
Color_7
330
191CD
 90
        8
 62
   140
370
     5
331
11
  1
Color_140
330
49CB1
 90
        8
 62
     3
370
    -3
331
11
  1
Color_3
  0
XRECORD
  5
49EF7
102
{ACAD_REACTORS
330
22
102
}
330
22
100
AcDbXrecord
280
     1
 91
     1023
301

290
     0
302
DP
330
6
 90
        8
 62
     7
370
     0
331
11
  1
Color_7
330
29F
 90
        0
 62
     7
370
     0
331
11
  1
Color_7
330
918
 90
        8
 62
     7
370
     0
331
11
  1
Color_7
330
191CD
 90
        8
 62
   140
370
     5
331
11
  1
Color_140
330
49CB1
 90
        8
 62
     3
370
    -3
331
11
  1
Color_3
  0
XRECORD
  5
49EF8
102
{ACAD_REACTORS
330
22
102
}
330
22
100
AcDbXrecord
280
     1
 91
     1023
301

290
     0
302
DP
330
6
 90
        9
 62
     7
370
     0
331
11
  1
Color_7
330
29F
 90
        0
 62
     7
370
     0
331
11
  1
Color_7
330
918
 90
        8
 62
     7
370
     0
331
11
  1
Color_7
330
191CD
 90
        8
 62
   140
370
     5
331
11
  1
Color_140
330
49CB1
 90
        8
 62
     3
370
    -3
331
11
  1
Color_3
  0
XRECORD
  5
49EF9
102
{ACAD_REACTORS
330
22
102
}
330
22
100
AcDbXrecord
280
     1
 91
     1023
301

290
     0
302
DP
330
6
 90
        9
 62
     7
370
     0
331
11
  1
Color_7
330
29F
 90
        0
 62
     7
370
     0
331
11
  1
Color_7
330
918
 90
        8
 62
     7
370
     0
331
11
  1
Color_7
330
191CD
 90
        9
 62
   140
370
     5
331
11
  1
Color_140
330
49CB1
 90
        8
 62
     3
370
    -3
331
11
  1
Color_3
  0
XRECORD
  5
49EFA
102
{ACAD_REACTORS
330
22
102
}
330
22
100
AcDbXrecord
280
     1
 91
     1023
301

290
     0
302
DP
330
6
 90
        9
 62
     7
370
     0
331
11
  1
Color_7
330
29F
 90
        1
 62
     7
370
     0
331
11
  1
Color_7
330
918
 90
        8
 62
     7
370
     0
331
11
  1
Color_7
330
191CD
 90
        9
 62
   140
370
     5
331
11
  1
Color_140
330
49CB1
 90
        8
 62
     3
370
    -3
331
11
  1
Color_3
  0
ENDSEC
  0
EOF
