  0
SECTION
  2
HEADER
  9
$ACADVER
  1
AC1015
  9
$ACADMAINTVER
 70
     6
  9
$DWGCODEPAGE
  3
ANSI_1252
  9
$INSBASE
 10
0.0
 20
0.0
 30
0.0
  9
$EXTMIN
 10
-50.0
 20
-50.0
 30
0.0
  9
$EXTMAX
 10
50.0
 20
50.0
 30
0.0
  9
$LIMMIN
 10
-0.5
 20
-0.5
  9
$LIMMAX
 10
5.0
 20
5.0
  9
$ORTHOMODE
 70
     0
  9
$REGENMODE
 70
     1
  9
$FILLMODE
 70
     1
  9
$QTEXTMODE
 70
     0
  9
$MIRRTEXT
 70
     1
  9
$LTSCALE
 40
1.0
  9
$ATTMODE
 70
     1
  9
$TEXTSIZE
 40
0.2
  9
$TRACEWID
 40
0.05
  9
$TEXTSTYLE
  7
Standard
  9
$CLAYER
  8
0
  9
$CELTYPE
  6
ByLayer
  9
$CECOLOR
 62
   256
  9
$CELTSCALE
 40
1.0
  9
$DISPSILH
 70
     0
  9
$DIMSCALE
 40
1.0
  9
$DIMASZ
 40
0.18
  9
$DIMEXO
 40
0.0625
  9
$DIMDLI
 40
0.38
  9
$DIMRND
 40
0.0
  9
$DIMDLE
 40
0.0
  9
$DIMEXE
 40
0.18
  9
$DIMTP
 40
0.0
  9
$DIMTM
 40
0.0
  9
$DIMTXT
 40
0.18
  9
$DIMCEN
 40
0.09
  9
$DIMTSZ
 40
0.0
  9
$DIMTOL
 70
     0
  9
$DIMLIM
 70
     0
  9
$DIMTIH
 70
     1
  9
$DIMTOH
 70
     1
  9
$DIMSE1
 70
     0
  9
$DIMSE2
 70
     0
  9
$DIMTAD
 70
     0
  9
$DIMZIN
 70
     0
  9
$DIMBLK
  1

  9
$DIMASO
 70
     1
  9
$DIMSHO
 70
     1
  9
$DIMPOST
  1

  9
$DIMAPOST
  1

  9
$DIMALT
 70
     0
  9
$DIMALTD
 70
     2
  9
$DIMALTF
 40
25.4
  9
$DIMLFAC
 40
1.0
  9
$DIMTOFL
 70
     0
  9
$DIMTVP
 40
0.0
  9
$DIMTIX
 70
     0
  9
$DIMSOXD
 70
     0
  9
$DIMSAH
 70
     0
  9
$DIMBLK1
  1

  9
$DIMBLK2
  1

  9
$DIMSTYLE
  2
Standard
  9
$DIMCLRD
 70
     0
  9
$DIMCLRE
 70
     0
  9
$DIMCLRT
 70
     0
  9
$DIMTFAC
 40
1.0
  9
$DIMGAP
 40
0.09
  9
$DIMJUST
 70
     0
  9
$DIMSD1
 70
     0
  9
$DIMSD2
 70
     0
  9
$DIMTOLJ
 70
     1
  9
$DIMTZIN
 70
     0
  9
$DIMALTZ
 70
     0
  9
$DIMALTTZ
 70
     0
  9
$DIMUPT
 70
     0
  9
$DIMDEC
 70
     4
  9
$DIMTDEC
 70
     4
  9
$DIMALTU
 70
     2
  9
$DIMALTTD
 70
     2
  9
$DIMTXSTY
  7
Standard
  9
$DIMAUNIT
 70
     0
  9
$DIMADEC
 70
     0
  9
$DIMALTRND
 40
0.0
  9
$DIMAZIN
 70
     0
  9
$DIMDSEP
 70
    46
  9
$DIMATFIT
 70
     3
  9
$DIMFRAC
 70
     0
  9
$DIMLDRBLK
  1

  9
$DIMLUNIT
 70
     2
  9
$DIMLWD
 70
    -2
  9
$DIMLWE
 70
    -2
  9
$DIMTMOVE
 70
     0
  9
$LUNITS
 70
     2
  9
$LUPREC
 70
     4
  9
$SKETCHINC
 40
0.1
  9
$FILLETRAD
 40
0.5
  9
$AUNITS
 70
     0
  9
$AUPREC
 70
     0
  9
$MENU
  1
.
  9
$ELEVATION
 40
0.0
  9
$PELEVATION
 40
0.0
  9
$THICKNESS
 40
0.0
  9
$LIMCHECK
 70
     0
  9
$CHAMFERA
 40
0.0
  9
$CHAMFERB
 40
0.0
  9
$CHAMFERC
 40
0.0
  9
$CHAMFERD
 40
0.0
  9
$SKPOLY
 70
     0
  9
$TDCREATE
 40
2457163.472015347
  9
$TDUCREATE
 40
2457163.138682014
  9
$TDUPDATE
 40
2457168.618156782
  9
$TDUUPDATE
 40
2457168.284823449
  9
$TDINDWG
 40
0.0037096412
  9
$TDUSRTIMER
 40
2457168.281113819
  9
$USRTIMER
 70
     1
  9
$ANGBASE
 50
0.0
  9
$ANGDIR
 70
     0
  9
$PDMODE
 70
     0
  9
$PDSIZE
 40
0.0
  9
$PLINEWID
 40
0.0
  9
$SPLFRAME
 70
     0
  9
$SPLINETYPE
 70
     6
  9
$SPLINESEGS
 70
     8
  9
$HANDSEED
  5
150
  9
$SURFTAB1
 70
     6
  9
$SURFTAB2
 70
     6
  9
$SURFTYPE
 70
     6
  9
$SURFU
 70
     6
  9
$SURFV
 70
     6
  9
$UCSBASE
  2

  9
$UCSNAME
  2

  9
$UCSORG
 10
0.0
 20
0.0
 30
0.0
  9
$UCSXDIR
 10
1.0
 20
0.0
 30
0.0
  9
$UCSYDIR
 10
0.0
 20
1.0
 30
0.0
  9
$UCSORTHOREF
  2

  9
$UCSORTHOVIEW
 70
     1
  9
$UCSORGTOP
 10
0.0
 20
0.0
 30
0.0
  9
$UCSORGBOTTOM
 10
0.0
 20
0.0
 30
0.0
  9
$UCSORGLEFT
 10
0.0
 20
0.0
 30
0.0
  9
$UCSORGRIGHT
 10
0.0
 20
0.0
 30
0.0
  9
$UCSORGFRONT
 10
0.0
 20
0.0
 30
0.0
  9
$UCSORGBACK
 10
0.0
 20
0.0
 30
0.0
  9
$PUCSBASE
  2

  9
$PUCSNAME
  2

  9
$PUCSORG
 10
0.0
 20
0.0
 30
0.0
  9
$PUCSXDIR
 10
1.0
 20
0.0
 30
0.0
  9
$PUCSYDIR
 10
0.0
 20
1.0
 30
0.0
  9
$PUCSORTHOREF
  2

  9
$PUCSORTHOVIEW
 70
     0
  9
$PUCSORGTOP
 10
0.0
 20
0.0
 30
0.0
  9
$PUCSORGBOTTOM
 10
0.0
 20
0.0
 30
0.0
  9
$PUCSORGLEFT
 10
0.0
 20
0.0
 30
0.0
  9
$PUCSORGRIGHT
 10
0.0
 20
0.0
 30
0.0
  9
$PUCSORGFRONT
 10
0.0
 20
0.0
 30
0.0
  9
$PUCSORGBACK
 10
0.0
 20
0.0
 30
0.0
  9
$USERI1
 70
     0
  9
$USERI2
 70
     0
  9
$USERI3
 70
     0
  9
$USERI4
 70
     0
  9
$USERI5
 70
     0
  9
$USERR1
 40
0.0
  9
$USERR2
 40
0.0
  9
$USERR3
 40
0.0
  9
$USERR4
 40
0.0
  9
$USERR5
 40
0.0
  9
$WORLDVIEW
 70
     1
  9
$SHADEDGE
 70
     3
  9
$SHADEDIF
 70
    70
  9
$TILEMODE
 70
     1
  9
$MAXACTVP
 70
    64
  9
$PINSBASE
 10
0.0
 20
0.0
 30
0.0
  9
$PLIMCHECK
 70
     0
  9
$PEXTMIN
 10
-0.5
 20
-0.5
 30
-0.5
  9
$PEXTMAX
 10
5.0
 20
5.0
 30
5.0
  9
$PLIMMIN
 10
-7.5
 20
-20.0
  9
$PLIMMAX
 10
412.5
 20
277.0
  9
$UNITMODE
 70
     0
  9
$VISRETAIN
 70
     1
  9
$PLINEGEN
 70
     0
  9
$PSLTSCALE
 70
     1
  9
$TREEDEPTH
 70
  3020
  9
$CMLSTYLE
  2
Standard
  9
$CMLJUST
 70
     0
  9
$CMLSCALE
 40
1.0
  9
$PROXYGRAPHICS
 70
     1
  9
$MEASUREMENT
 70
     1
  9
$CELWEIGHT
370
    18
  9
$ENDCAPS
280
     0
  9
$JOINSTYLE
280
     0
  9
$LWDISPLAY
290
     1
  9
$INSUNITS
 70
     4
  9
$HYPERLINKBASE
  1

  9
$STYLESHEET
  1

  9
$XEDIT
290
     1
  9
$CEPSNTYPE
380
     0
  9
$PSTYLEMODE
290
     1
  9
$FINGERPRINTGUID
  2
{FBA57E00-D2D6-40FA-8250-C716D541E4BB}
  9
$VERSIONGUID
  2
{FAEB1C32-E019-11D5-929B-00C0DF256EC4}
  9
$EXTNAMES
290
     1
  9
$PSVPSCALE
 40
0.0
  9
$OLESTARTUP
290
     0
  0
ENDSEC
  0
SECTION
  2
CLASSES
  0
CLASS
  1
ACDBDICTIONARYWDFLT
  2
AcDbDictionaryWithDefault
  3
ObjectDBX Classes
 90
        0
280
     0
281
     0
  0
CLASS
  1
VISUALSTYLE
  2
AcDbVisualStyle
  3
ObjectDBX Classes
 90
     4095
280
     0
281
     0
  0
CLASS
  1
MATERIAL
  2
AcDbMaterial
  3
ObjectDBX Classes
 90
     1153
280
     0
281
     0
  0
CLASS
  1
SCALE
  2
AcDbScale
  3
ObjectDBX Classes
 90
     1153
280
     0
281
     0
  0
CLASS
  1
SUN
  2
AcDbSun
  3
SCENEOE
 90
     1153
280
     0
281
     0
  0
CLASS
  1
DICTIONARYVAR
  2
AcDbDictionaryVar
  3
ObjectDBX Classes
 90
        0
280
     0
281
     0
  0
CLASS
  1
TABLESTYLE
  2
AcDbTableStyle
  3
ObjectDBX Classes
 90
     4095
280
     0
281
     0
  0
CLASS
  1
RASTERVARIABLES
  2
AcDbRasterVariables
  3
ISM
 90
        0
280
     0
281
     0
  0
CLASS
  1
DIMASSOC
  2
AcDbDimAssoc
  3
"AcDbDimAssoc|Product Desc:     AcDim ARX App For Dimension|Company:          Autodesk, Inc.|WEB Address:      www.autodesk.com"
 90
        0
280
     0
281
     0
  0
CLASS
  1
ACDBPLACEHOLDER
  2
AcDbPlaceHolder
  3
ObjectDBX Classes
 90
        0
280
     0
281
     0
  0
CLASS
  1
LAYOUT
  2
AcDbLayout
  3
ObjectDBX Classes
 90
        0
280
     0
281
     0
  0
ENDSEC
  0
SECTION
  2
TABLES
  0
TABLE
  2
VPORT
  5
8
330
0
100
AcDbSymbolTable
 70
    17
  0
VPORT
  5
29
330
8
100
AcDbSymbolTableRecord
100
AcDbViewportTableRecord
  2
DUMMY
 70
     0
 10
0.0
 20
0.0
 11
1.0
 21
1.0
 12
10.429907
 22
4.5
 13
0.0
 23
0.0
 14
0.5
 24
0.5
 15
0.5
 25
0.5
 16
0.0
 26
0.0
 36
1.0
 17
0.0
 27
0.0
 37
0.0
 40
9.0
 41
1.972973
 42
50.0
 43
0.0
 44
0.0
 50
0.0
 51
0.0
 71
     0
 72
   100
 73
     1
 74
     3
 75
     0
 76
     0
 77
     0
 78
     0
281
     0
 65
     1
110
0.0
120
0.0
130
0.0
111
1.0
121
0.0
131
0.0
112
0.0
122
1.0
132
0.0
 79
     0
146
0.0
  0
VPORT
  5
A2
330
8
100
AcDbSymbolTableRecord
100
AcDbViewportTableRecord
  2
*ACTIVE
 70
     0
 10
0.0
 20
0.0
 11
1.0
 21
1.0
 12
38.49724852520639
 22
-6.738660539738589
 13
0.0
 23
0.0
 14
0.5
 24
0.5
 15
0.5
 25
0.5
 16
0.0
 26
0.0
 36
1.0
 17
0.0
 27
0.0
 37
68.48290593851848
 40
199.2187499999999
 41
2.358895705521472
 42
50.0
 43
218.353539
 44
-218.353539
 50
0.0
 51
0.0
 71
    16
 72
   100
 73
     1
 74
     3
 75
     0
 76
     0
 77
     0
 78
     0
281
     0
 65
     1
110
0.0
120
0.0
130
0.0
111
1.0
121
0.0
131
0.0
112
0.0
122
1.0
132
0.0
 79
     1
146
0.0
  0
VPORT
  5
A4
330
8
100
AcDbSymbolTableRecord
100
AcDbViewportTableRecord
  2
L1
 70
     0
 10
0.0
 20
0.0
 11
1.0
 21
1.0
 12
-7.086873
 22
-3.997885
 13
0.0
 23
0.0
 14
0.5
 24
0.5
 15
0.5
 25
0.5
 16
0.7188730927569434
 26
-0.5850486126764431
 36
0.3754192287502549
 17
0.0
 27
0.0
 37
0.0
 40
736.918381
 41
0.024096
 42
50.0
 43
218.353539
 44
-218.353539
 50
0.0
 51
0.0
 71
     0
 72
   100
 73
     1
 74
     3
 75
     0
 76
     0
 77
     0
 78
     0
281
     0
 65
     1
110
0.0
120
0.0
130
0.0
111
1.0
121
0.0
131
0.0
112
0.0
122
1.0
132
0.0
 79
     0
146
0.0
  0
VPORT
  5
A5
330
8
100
AcDbSymbolTableRecord
100
AcDbViewportTableRecord
  2
L2
 70
     0
 10
0.0
 20
0.0
 11
0.5
 21
1.0
 12
0.0
 22
0.0
 13
0.0
 23
0.0
 14
0.5
 24
0.5
 15
0.5
 25
0.5
 16
0.0
 26
-1.0
 36
0.0
 17
0.0
 27
0.0
 37
0.0
 40
709.544593
 41
0.025026
 42
50.0
 43
370.346108
 44
-370.346108
 50
0.0
 51
0.0
 71
     0
 72
   100
 73
     1
 74
     3
 75
     0
 76
     0
 77
     0
 78
     0
281
     0
 65
     1
110
0.0
120
0.0
130
0.0
111
1.0
121
0.0
131
0.0
112
0.0
122
1.0
132
0.0
 79
     0
146
0.0
  0
VPORT
  5
A6
330
8
100
AcDbSymbolTableRecord
100
AcDbViewportTableRecord
  2
L2
 70
     0
 10
0.5
 20
0.0
 11
1.0
 21
1.0
 12
0.0
 22
0.0
 13
0.0
 23
0.0
 14
0.5
 24
0.5
 15
0.5
 25
0.5
 16
1.0
 26
0.0
 36
0.0
 17
0.0
 27
0.0
 37
0.0
 40
709.544593
 41
0.025026
 42
50.0
 43
356.664217
 44
-356.664217
 50
0.0
 51
0.0
 71
     0
 72
   100
 73
     1
 74
     3
 75
     0
 76
     0
 77
     0
 78
     0
281
     0
 65
     1
110
0.0
120
0.0
130
0.0
111
1.0
121
0.0
131
0.0
112
0.0
122
1.0
132
0.0
 79
     0
146
0.0
  0
VPORT
  5
A7
330
8
100
AcDbSymbolTableRecord
100
AcDbViewportTableRecord
  2
L3
 70
     0
 10
0.0
 20
0.5
 11
1.0
 21
1.0
 12
0.0
 22
0.0
 13
0.0
 23
0.0
 14
0.5
 24
0.5
 15
0.5
 25
0.5
 16
0.0
 26
0.0
 36
1.0
 17
0.0
 27
0.0
 37
0.0
 40
73.375238
 41
0.241999
 42
50.0
 43
354.772296
 44
-354.772296
 50
0.0
 51
0.0
 71
     0
 72
   100
 73
     1
 74
     3
 75
     0
 76
     0
 77
     0
 78
     0
281
     0
 65
     1
110
0.0
120
0.0
130
0.0
111
1.0
121
0.0
131
0.0
112
0.0
122
1.0
132
0.0
 79
     0
146
0.0
  0
VPORT
  5
A8
330
8
100
AcDbSymbolTableRecord
100
AcDbViewportTableRecord
  2
L3
 70
     0
 10
0.0
 20
0.0
 11
1.0
 21
0.5
 12
0.0
 22
0.0
 13
0.0
 23
0.0
 14
0.5
 24
0.5
 15
0.5
 25
0.5
 16
0.0
 26
-1.0
 36
0.0
 17
0.0
 27
0.0
 37
0.0
 40
709.544593
 41
0.025026
 42
50.0
 43
370.346108
 44
-370.346108
 50
0.0
 51
0.0
 71
     0
 72
   100
 73
     1
 74
     3
 75
     0
 76
     0
 77
     0
 78
     0
281
     0
 65
     1
110
0.0
120
0.0
130
0.0
111
1.0
121
0.0
131
0.0
112
0.0
122
1.0
132
0.0
 79
     0
146
0.0
  0
VPORT
  5
A9
330
8
100
AcDbSymbolTableRecord
100
AcDbViewportTableRecord
  2
L4
 70
     0
 10
0.0
 20
0.5
 11
0.5
 21
1.0
 12
0.0
 22
0.0
 13
0.0
 23
0.0
 14
0.5
 24
0.5
 15
0.5
 25
0.5
 16
0.0
 26
0.0
 36
1.0
 17
0.0
 27
0.0
 37
0.0
 40
73.375238
 41
0.241999
 42
50.0
 43
354.772296
 44
-354.772296
 50
0.0
 51
0.0
 71
     0
 72
   100
 73
     1
 74
     3
 75
     0
 76
     0
 77
     0
 78
     0
281
     0
 65
     1
110
0.0
120
0.0
130
0.0
111
1.0
121
0.0
131
0.0
112
0.0
122
1.0
132
0.0
 79
     0
146
0.0
  0
VPORT
  5
AA
330
8
100
AcDbSymbolTableRecord
100
AcDbViewportTableRecord
  2
L4
 70
     0
 10
0.0
 20
0.0
 11
0.5
 21
0.5
 12
0.0
 22
0.0
 13
0.0
 23
0.0
 14
0.5
 24
0.5
 15
0.5
 25
0.5
 16
0.0
 26
-1.0
 36
0.0
 17
0.0
 27
0.0
 37
0.0
 40
709.544593
 41
0.025026
 42
50.0
 43
370.346108
 44
-370.346108
 50
0.0
 51
0.0
 71
     0
 72
   100
 73
     1
 74
     3
 75
     0
 76
     0
 77
     0
 78
     0
281
     0
 65
     1
110
0.0
120
0.0
130
0.0
111
1.0
121
0.0
131
0.0
112
0.0
122
1.0
132
0.0
 79
     0
146
0.0
  0
VPORT
  5
AB
330
8
100
AcDbSymbolTableRecord
100
AcDbViewportTableRecord
  2
L4
 70
     0
 10
0.5
 20
0.0
 11
1.0
 21
0.5
 12
0.0
 22
0.0
 13
0.0
 23
0.0
 14
0.5
 24
0.5
 15
0.5
 25
0.5
 16
1.0
 26
0.0
 36
0.0
 17
0.0
 27
0.0
 37
0.0
 40
709.544593
 41
0.025026
 42
50.0
 43
356.664217
 44
-356.664217
 50
0.0
 51
0.0
 71
     0
 72
   100
 73
     1
 74
     3
 75
     0
 76
     0
 77
     0
 78
     0
281
     0
 65
     1
110
0.0
120
0.0
130
0.0
111
1.0
121
0.0
131
0.0
112
0.0
122
1.0
132
0.0
 79
     0
146
0.0
  0
VPORT
  5
AC
330
8
100
AcDbSymbolTableRecord
100
AcDbViewportTableRecord
  2
L4
 70
     0
 10
0.5
 20
0.5
 11
1.0
 21
1.0
 12
0.0
 22
0.0
 13
0.0
 23
0.0
 14
0.5
 24
0.5
 15
0.5
 25
0.5
 16
0.5773502691896258
 26
-0.5773502691896258
 36
0.5773502691896258
 17
0.0
 27
0.0
 37
0.0
 40
696.063391
 41
0.02551
 42
50.0
 43
362.414397
 44
-362.414397
 50
0.0
 51
0.0
 71
     0
 72
   100
 73
     1
 74
     3
 75
     0
 76
     0
 77
     0
 78
     0
281
     0
 65
     1
110
0.0
120
0.0
130
0.0
111
1.0
121
0.0
131
0.0
112
0.0
122
1.0
132
0.0
 79
     0
146
0.0
  0
VPORT
  5
AD
330
8
100
AcDbSymbolTableRecord
100
AcDbViewportTableRecord
  2
L6
 70
     0
 10
0.0
 20
0.5
 11
0.333333
 21
1.0
 12
-7.086873
 22
-3.997885
 13
0.0
 23
0.0
 14
0.5
 24
0.5
 15
0.5
 25
0.5
 16
0.7188730927569434
 26
-0.5850486126764431
 36
0.3754192287502549
 17
0.0
 27
0.0
 37
0.0
 40
736.918381
 41
0.024096
 42
50.0
 43
218.353539
 44
-218.353539
 50
0.0
 51
0.0
 71
     0
 72
   100
 73
     1
 74
     3
 75
     0
 76
     0
 77
     0
 78
     0
281
     0
 65
     1
110
0.0
120
0.0
130
0.0
111
1.0
121
0.0
131
0.0
112
0.0
122
1.0
132
0.0
 79
     0
146
0.0
  0
VPORT
  5
AE
330
8
100
AcDbSymbolTableRecord
100
AcDbViewportTableRecord
  2
L6
 70
     0
 10
0.0
 20
0.0
 11
0.333333
 21
0.5
 12
0.0
 22
0.0
 13
0.0
 23
0.0
 14
0.5
 24
0.5
 15
0.5
 25
0.5
 16
-1.0
 26
0.0
 36
0.0
 17
0.0
 27
0.0
 37
0.0
 40
709.544593
 41
0.025026
 42
50.0
 43
356.664217
 44
-356.664217
 50
0.0
 51
0.0
 71
     0
 72
   100
 73
     1
 74
     3
 75
     0
 76
     0
 77
     0
 78
     0
281
     0
 65
     1
110
0.0
120
0.0
130
0.0
111
1.0
121
0.0
131
0.0
112
0.0
122
1.0
132
0.0
 79
     0
146
0.0
  0
VPORT
  5
AF
330
8
100
AcDbSymbolTableRecord
100
AcDbViewportTableRecord
  2
L6
 70
     0
 10
0.333333
 20
0.5
 11
0.666667
 21
1.0
 12
0.0
 22
0.0
 13
0.0
 23
0.0
 14
0.5
 24
0.5
 15
0.5
 25
0.5
 16
0.0
 26
0.0
 36
1.0
 17
0.0
 27
0.0
 37
0.0
 40
73.375238
 41
0.241999
 42
50.0
 43
354.772296
 44
-354.772296
 50
0.0
 51
0.0
 71
     0
 72
   100
 73
     1
 74
     3
 75
     0
 76
     0
 77
     0
 78
     0
281
     0
 65
     1
110
0.0
120
0.0
130
0.0
111
1.0
121
0.0
131
0.0
112
0.0
122
1.0
132
0.0
 79
     0
146
0.0
  0
VPORT
  5
B0
330
8
100
AcDbSymbolTableRecord
100
AcDbViewportTableRecord
  2
L6
 70
     0
 10
0.333333
 20
0.0
 11
0.666667
 21
0.5
 12
0.0
 22
0.0
 13
0.0
 23
0.0
 14
0.5
 24
0.5
 15
0.5
 25
0.5
 16
0.0
 26
-1.0
 36
0.0
 17
0.0
 27
0.0
 37
0.0
 40
709.544593
 41
0.025026
 42
50.0
 43
370.346108
 44
-370.346108
 50
0.0
 51
0.0
 71
     0
 72
   100
 73
     1
 74
     3
 75
     0
 76
     0
 77
     0
 78
     0
281
     0
 65
     1
110
0.0
120
0.0
130
0.0
111
1.0
121
0.0
131
0.0
112
0.0
122
1.0
132
0.0
 79
     0
146
0.0
  0
VPORT
  5
B1
330
8
100
AcDbSymbolTableRecord
100
AcDbViewportTableRecord
  2
L6
 70
     0
 10
0.666667
 20
0.5
 11
1.0
 21
1.0
 12
0.0
 22
0.0
 13
0.0
 23
0.0
 14
0.5
 24
0.5
 15
0.5
 25
0.5
 16
0.5773502691896258
 26
-0.5773502691896258
 36
0.5773502691896258
 17
0.0
 27
0.0
 37
0.0
 40
696.063391
 41
0.02551
 42
50.0
 43
362.414397
 44
-362.414397
 50
0.0
 51
0.0
 71
     0
 72
   100
 73
     1
 74
     3
 75
     0
 76
     0
 77
     0
 78
     0
281
     0
 65
     1
110
0.0
120
0.0
130
0.0
111
1.0
121
0.0
131
0.0
112
0.0
122
1.0
132
0.0
 79
     0
146
0.0
  0
VPORT
  5
B2
330
8
100
AcDbSymbolTableRecord
100
AcDbViewportTableRecord
  2
L6
 70
     0
 10
0.0
 20
0.0
 11
1.0
 21
1.0
 12
0.0
 22
0.0
 13
0.0
 23
0.0
 14
0.5
 24
0.5
 15
0.5
 25
0.5
 16
1.0
 26
0.0
 36
0.0
 17
0.0
 27
0.0
 37
0.0
 40
709.544593
 41
0.025026
 42
50.0
 43
356.664217
 44
-356.664217
 50
0.0
 51
0.0
 71
     0
 72
   100
 73
     1
 74
     3
 75
     0
 76
     0
 77
     0
 78
     0
281
     0
 65
     1
110
0.0
120
0.0
130
0.0
111
1.0
121
0.0
131
0.0
112
0.0
122
1.0
132
0.0
 79
     0
146
0.0
  0
ENDTAB
  0
TABLE
  2
LTYPE
  5
5
330
0
100
AcDbSymbolTable
 70
     6
  0
LTYPE
  5
14
330
5
100
AcDbSymbolTableRecord
100
AcDbLinetypeTableRecord
  2
ByBlock
 70
     0
  3

 72
    65
 73
     0
 40
0.0
  0
LTYPE
  5
15
330
5
100
AcDbSymbolTableRecord
100
AcDbLinetypeTableRecord
  2
ByLayer
 70
     0
  3

 72
    65
 73
     0
 40
0.0
  0
LTYPE
  5
16
330
5
100
AcDbSymbolTableRecord
100
AcDbLinetypeTableRecord
  2
Continuous
 70
     0
  3
Solid line
 72
    65
 73
     0
 40
0.0
  0
LTYPE
  5
6A
330
5
100
AcDbSymbolTableRecord
100
AcDbLinetypeTableRecord
  2
CENTER
 70
     0
  3
____ _ ____ _ ____ _ ____
 72
    65
 73
     4
 40
47.4
 49
22.0
 74
     4
 75
     0
340
0
 46
0.0
 50
0.0
 44
0.0
 45
0.0
 49
-8.5
 74
     4
 75
     0
340
0
 46
0.0
 50
0.0
 44
0.0
 45
0.0
 49
8.5
 74
     4
 75
     0
340
0
 46
0.0
 50
0.0
 44
0.0
 45
0.0
 49
-8.5
 74
     4
 75
     0
340
0
 46
0.0
 50
0.0
 44
0.0
 45
0.0
  0
LTYPE
  5
6B
330
5
100
AcDbSymbolTableRecord
100
AcDbLinetypeTableRecord
  2
DASHDOT
 70
     0
  3
_._._._._._._._._._._._._._._._.
 72
    65
 73
     4
 40
70.0
 49
31.0
 74
     4
 75
     0
340
0
 46
0.0
 50
0.0
 44
0.0
 45
0.0
 49
-13.0
 74
     4
 75
     0
340
0
 46
0.0
 50
0.0
 44
0.0
 45
0.0
 49
13.0
 74
     4
 75
     0
340
0
 46
0.0
 50
0.0
 44
0.0
 45
0.0
 49
-13.0
 74
     4
 75
     0
340
0
 46
0.0
 50
0.0
 44
0.0
 45
0.0
  0
LTYPE
  5
6C
330
5
100
AcDbSymbolTableRecord
100
AcDbLinetypeTableRecord
  2
DASHED
 70
     0
  3
__ __ __ __ __ __ __ __ __
 72
    65
 73
     2
 40
25.72
 49
12.86
 74
     4
 75
     0
340
0
 46
0.0
 50
0.0
 44
0.0
 45
0.0
 49
-12.86
 74
     4
 75
     0
340
0
 46
0.0
 50
0.0
 44
0.0
 45
0.0
  0
LTYPE
  5
6D
330
5
100
AcDbSymbolTableRecord
100
AcDbLinetypeTableRecord
  2
DOT
 70
     0
  3
.........................
 72
    65
 73
     2
 40
10.0
 49
0.0
 74
     4
 75
     0
340
0
 46
0.0
 50
0.0
 44
0.0
 45
0.0
 49
-10.0
 74
     4
 75
     0
340
0
 46
0.0
 50
0.0
 44
0.0
 45
0.0
  0
LTYPE
  5
6E
330
5
100
AcDbSymbolTableRecord
100
AcDbLinetypeTableRecord
  2
PHANTOM
 70
     0
  3
____ _ _ ____ _ _ _____ _ _ ____
 72
    65
 73
     6
 40
50.5
 49
18.0
 74
     4
 75
     0
340
0
 46
0.0
 50
0.0
 44
0.0
 45
0.0
 49
-6.5
 74
     4
 75
     0
340
0
 46
0.0
 50
0.0
 44
0.0
 45
0.0
 49
6.5
 74
     4
 75
     0
340
0
 46
0.0
 50
0.0
 44
0.0
 45
0.0
 49
-6.5
 74
     4
 75
     0
340
0
 46
0.0
 50
0.0
 44
0.0
 45
0.0
 49
6.5
 74
     4
 75
     0
340
0
 46
0.0
 50
0.0
 44
0.0
 45
0.0
 49
-6.5
 74
     4
 75
     0
340
0
 46
0.0
 50
0.0
 44
0.0
 45
0.0
  0
ENDTAB
  0
TABLE
  2
LAYER
  5
2
102
{ACAD_XDICTIONARY
360
F4
102
}
330
0
100
AcDbSymbolTable
 70
     4
  0
LAYER
  5
10
330
2
100
AcDbSymbolTableRecord
100
AcDbLayerTableRecord
  2
0
 70
     0
 62
     7
  6
Continuous
370
    -3
390
F
  0
LAYER
  5
70
330
2
100
AcDbSymbolTableRecord
100
AcDbLayerTableRecord
  2
61
 70
     0
 62
     7
  6
Continuous
370
    -3
390
F
  0
LAYER
  5
72
330
2
100
AcDbSymbolTableRecord
100
AcDbLayerTableRecord
  2
1
 70
     0
 62
     7
  6
Continuous
370
    -3
390
F
  0
LAYER
  5
11E
330
2
100
AcDbSymbolTableRecord
100
AcDbLayerTableRecord
  2
Defpoints
 70
     0
 62
     7
  6
Continuous
290
     0
370
    -3
390
F
  0
ENDTAB
  0
TABLE
  2
STYLE
  5
3
330
0
100
AcDbSymbolTable
 70
     1
  0
STYLE
  5
11
330
3
100
AcDbSymbolTableRecord
100
AcDbTextStyleTableRecord
  2
Standard
 70
     0
 40
0.0
 41
1.0
 50
0.0
 71
     0
 42
0.2
  3
txt
  4

  0
ENDTAB
  0
TABLE
  2
VIEW
  5
6
330
0
100
AcDbSymbolTable
 70
     8
  0
VIEW
  5
9A
102
{ACAD_XDICTIONARY
360
100
102
}
330
6
100
AcDbSymbolTableRecord
100
AcDbViewTableRecord
  2
Top
 70
     0
 40
73.375238
 10
0.0
 20
0.0
 41
212.535714
 11
0.0
 21
0.0
 31
1.0
 12
0.0
 22
0.0
 32
0.0
 42
50.0
 43
354.772296
 44
-354.772296
 50
0.0
 71
     0
281
     0
 72
     0
  0
VIEW
  5
9B
102
{ACAD_XDICTIONARY
360
104
102
}
330
6
100
AcDbSymbolTableRecord
100
AcDbViewTableRecord
  2
Front
 70
     0
 40
709.544593
 10
0.0
 20
0.0
 41
212.535714
 11
0.0
 21
-1.0
 31
0.0
 12
0.0
 22
0.0
 32
0.0
 42
50.0
 43
370.346108
 44
-370.346108
 50
0.0
 71
     0
281
     0
 72
     0
  0
VIEW
  5
9C
102
{ACAD_XDICTIONARY
360
108
102
}
330
6
100
AcDbSymbolTableRecord
100
AcDbViewTableRecord
  2
Right
 70
     0
 40
709.544593
 10
0.0
 20
0.0
 41
73.375238
 11
1.0
 21
0.0
 31
0.0
 12
0.0
 22
0.0
 32
0.0
 42
50.0
 43
356.664217
 44
-356.664217
 50
0.0
 71
     0
281
     0
 72
     0
  0
VIEW
  5
9D
102
{ACAD_XDICTIONARY
360
10C
102
}
330
6
100
AcDbSymbolTableRecord
100
AcDbViewTableRecord
  2
Back
 70
     0
 40
709.544593
 10
0.0
 20
0.0
 41
212.535714
 11
0.0
 21
1.0
 31
0.0
 12
0.0
 22
0.0
 32
0.0
 42
50.0
 43
370.346108
 44
-370.346108
 50
0.0
 71
     0
281
     0
 72
     0
  0
VIEW
  5
9E
102
{ACAD_XDICTIONARY
360
110
102
}
330
6
100
AcDbSymbolTableRecord
100
AcDbViewTableRecord
  2
Bottom
 70
     0
 40
73.375238
 10
0.0
 20
0.0
 41
212.535714
 11
0.0
 21
0.0
 31
-1.0
 12
0.0
 22
0.0
 32
0.0
 42
50.0
 43
354.772296
 44
-354.772296
 50
180.0
 71
     0
281
     0
 72
     0
  0
VIEW
  5
9F
102
{ACAD_XDICTIONARY
360
114
102
}
330
6
100
AcDbSymbolTableRecord
100
AcDbViewTableRecord
  2
Left
 70
     0
 40
709.544593
 10
0.0
 20
0.0
 41
73.375238
 11
-1.0
 21
0.0
 31
0.0
 12
0.0
 22
0.0
 32
0.0
 42
50.0
 43
356.664217
 44
-356.664217
 50
0.0
 71
     0
281
     0
 72
     0
  0
VIEW
  5
A0
102
{ACAD_XDICTIONARY
360
118
102
}
330
6
100
AcDbSymbolTableRecord
100
AcDbViewTableRecord
  2
Isometric
 70
     0
 40
696.063391
 10
0.0
 20
0.0
 41
202.169573
 11
0.5773502691896258
 21
-0.5773502691896258
 31
0.5773502691896258
 12
0.0
 22
0.0
 32
0.0
 42
50.0
 43
362.414397
 44
-362.414397
 50
0.0
 71
     0
281
     0
 72
     0
  0
VIEW
  5
A1
102
{ACAD_XDICTIONARY
360
11C
102
}
330
6
100
AcDbSymbolTableRecord
100
AcDbViewTableRecord
  2
Trimetric
 70
     0
 40
736.918381
 10
-7.086873
 20
-3.997885
 41
191.066766
 11
0.0
 21
0.0
 31
1.0
 12
0.0
 22
0.0
 32
0.0
 42
50.0
 43
218.353539
 44
-218.353539
 50
0.0
 71
     0
281
     0
 72
     0
  0
ENDTAB
  0
TABLE
  2
UCS
  5
7
330
0
100
AcDbSymbolTable
 70
     0
  0
ENDTAB
  0
TABLE
  2
APPID
  5
9
330
0
100
AcDbSymbolTable
 70
     1
  0
APPID
  5
12
330
9
100
AcDbSymbolTableRecord
100
AcDbRegAppTableRecord
  2
ACAD
 70
     0
  0
ENDTAB
  0
TABLE
  2
DIMSTYLE
  5
A
330
0
100
AcDbSymbolTable
 70
     1
100
AcDbDimStyleTable
  0
DIMSTYLE
105
27
330
A
100
AcDbSymbolTableRecord
100
AcDbDimStyleTableRecord
  2
Standard
 70
     0
178
     0
340
11
  0
ENDTAB
  0
TABLE
  2
BLOCK_RECORD
  5
1
330
0
100
AcDbSymbolTable
 70
     4
  0
BLOCK_RECORD
  5
1F
330
1
100
AcDbSymbolTableRecord
100
AcDbBlockTableRecord
  2
*Model_Space
340
22
  0
BLOCK_RECORD
  5
1B
330
1
100
AcDbSymbolTableRecord
100
AcDbBlockTableRecord
  2
*Paper_Space
340
1E
  0
BLOCK_RECORD
  5
23
330
1
100
AcDbSymbolTableRecord
100
AcDbBlockTableRecord
  2
*Paper_Space0
340
26
  0
BLOCK_RECORD
  5
122
330
1
100
AcDbSymbolTableRecord
100
AcDbBlockTableRecord
  2
*D1
340
0
  0
BLOCK_RECORD
  5
132
330
1
100
AcDbSymbolTableRecord
100
AcDbBlockTableRecord
  2
*D2
340
0
  0
BLOCK_RECORD
  5
142
330
1
100
AcDbSymbolTableRecord
100
AcDbBlockTableRecord
  2
*D3
340
0
  0
ENDTAB
  0
ENDSEC
  0
SECTION
  2
BLOCKS
  0
BLOCK
  5
20
330
1F
100
AcDbEntity
  8
0
100
AcDbBlockBegin
  2
*Model_Space
 70
     0
 10
0.0
 20
0.0
 30
0.0
  3
*Model_Space
  1
*Model_Space
  0
ENDBLK
  5
21
330
1F
100
AcDbEntity
  8
0
100
AcDbBlockEnd
  0
BLOCK
  5
1C
330
1B
100
AcDbEntity
 67
     1
  8
0
100
AcDbBlockBegin
  2
*Paper_Space
 70
     0
 10
0.0
 20
0.0
 30
0.0
  3
*Paper_Space
  1
*Paper_Space
  0
ENDBLK
  5
1D
330
1B
100
AcDbEntity
 67
     1
  8
0
100
AcDbBlockEnd
  0
BLOCK
  5
24
330
23
100
AcDbEntity
  8
0
100
AcDbBlockBegin
  2
*Paper_Space0
 70
     0
 10
0.0
 20
0.0
 30
0.0
  3
*Paper_Space0
  1
*Paper_Space0
  0
VIEWPORT
  5
FB
330
23
100
AcDbEntity
  8
0
100
AcDbViewport
 10
202.5
 20
128.5
 30
0.0
 40
486.0
 41
308.4
 68
     1
 69
     1
 12
202.5
 22
128.5
 13
0.0
 23
0.0
 14
0.5
 24
0.5
 15
0.0
 25
0.0
 16
0.0
 26
0.0
 36
1.0
 17
0.0
 27
0.0
 37
0.0
 42
50.0
 43
0.0
 44
0.0
 45
308.4
 50
0.0
 51
0.0
 72
   100
 90
   557152
  1

281
     0
 71
     1
 74
     0
110
0.0
120
0.0
130
0.0
111
1.0
121
0.0
131
0.0
112
0.0
122
1.0
132
0.0
 79
     0
146
0.0
  0
VIEWPORT
  5
FC
330
23
100
AcDbEntity
  8
0
100
AcDbViewport
 10
202.5
 20
128.5
 30
0.0
 40
324.0
 41
205.6
 68
     2
 69
     2
 12
0.0
 22
0.0
 13
0.0
 23
0.0
 14
0.5
 24
0.5
 15
0.0
 25
0.0
 16
0.0
 26
0.0
 36
1.0
 17
0.0
 27
0.0
 37
0.0
 42
50.0
 43
0.0
 44
0.0
 45
102.0
 50
0.0
 51
0.0
 72
   100
 90
   557152
  1

281
     0
 71
     1
 74
     0
110
0.0
120
0.0
130
0.0
111
1.0
121
0.0
131
0.0
112
0.0
122
1.0
132
0.0
 79
     0
146
0.0
  0
ENDBLK
  5
25
330
23
100
AcDbEntity
  8
0
100
AcDbBlockEnd
  0
BLOCK
  5
123
330
122
100
AcDbEntity
  8
0
100
AcDbBlockBegin
  2
*D1
 70
     1
 10
0.0
 20
0.0
 30
0.0
  3
*D1
  1
*D1
  0
LINE
  5
125
330
122
100
AcDbEntity
  8
0
 62
     0
370
    -2
100
AcDbLine
 10
50.0
 20
50.0625
 30
0.0
 11
50.0
 21
59.71794128834355
 31
0.0
  0
LINE
  5
126
330
122
100
AcDbEntity
  8
0
 62
     0
370
    -2
100
AcDbLine
 10
-50.0
 20
50.0625
 30
0.0
 11
-50.0
 21
59.71794128834355
 31
0.0
  0
LINE
  5
127
330
122
100
AcDbEntity
  8
0
 62
     0
370
    -2
100
AcDbLine
 10
49.82
 20
59.53794128834355
 30
0.0
 11
0.6000000000000014
 21
59.53794128834355
 31
0.0
  0
LINE
  5
128
330
122
100
AcDbEntity
  8
0
 62
     0
370
    -2
100
AcDbLine
 10
-49.82
 20
59.53794128834355
 30
0.0
 11
-0.6000000000000014
 21
59.53794128834355
 31
0.0
  0
SOLID
  5
129
330
122
100
AcDbEntity
  8
0
 62
     0
100
AcDbTrace
 10
49.82
 20
59.50794128834355
 30
0.0
 11
49.82
 21
59.56794128834355
 31
0.0
 12
50.0
 22
59.53794128834355
 32
0.0
 13
50.0
 23
59.53794128834355
 33
0.0
  0
SOLID
  5
12A
330
122
100
AcDbEntity
  8
0
 62
     0
100
AcDbTrace
 10
-49.82
 20
59.56794128834355
 30
0.0
 11
-49.82
 21
59.50794128834355
 31
0.0
 12
-50.0
 22
59.53794128834355
 32
0.0
 13
-50.0
 23
59.53794128834355
 33
0.0
  0
MTEXT
  5
12B
330
122
100
AcDbEntity
  8
0
 62
     0
370
    18
100
AcDbMText
 10
0.0
 20
59.53794128834355
 30
0.0
 40
0.18
 41
0.0
 71
     5
 72
     1
  1
\A1;100.0000
 73
     1
 44
1.0
  0
POINT
  5
12C
330
122
100
AcDbEntity
  8
Defpoints
 62
     0
100
AcDbPoint
 10
50.0
 20
50.0
 30
0.0
  0
POINT
  5
12D
330
122
100
AcDbEntity
  8
Defpoints
 62
     0
100
AcDbPoint
 10
-50.0
 20
50.0
 30
0.0
  0
POINT
  5
12E
330
122
100
AcDbEntity
  8
Defpoints
 62
     0
100
AcDbPoint
 10
-50.0
 20
59.53794128834355
 30
0.0
  0
ENDBLK
  5
124
330
122
100
AcDbEntity
  8
0
100
AcDbBlockEnd
  0
BLOCK
  5
133
330
132
100
AcDbEntity
  8
0
100
AcDbBlockBegin
  2
*D2
 70
     1
 10
0.0
 20
0.0
 30
0.0
  3
*D2
  1
*D2
  0
LINE
  5
135
330
132
100
AcDbEntity
  8
0
 62
     0
370
    -2
100
AcDbLine
 10
-50.0
 20
50.0625
 30
0.0
 11
-50.0
 21
60.62424886772752
 31
0.0
  0
LINE
  5
136
330
132
100
AcDbEntity
  8
0
 62
     0
370
    -2
100
AcDbLine
 10
50.0
 20
50.0625
 30
0.0
 11
50.0
 21
60.62424886772752
 31
0.0
  0
LINE
  5
137
330
132
100
AcDbEntity
  8
0
 62
     0
370
    -2
100
AcDbLine
 10
-49.82
 20
60.44424886772752
 30
0.0
 11
-0.6000000000000014
 21
60.44424886772752
 31
0.0
  0
LINE
  5
138
330
132
100
AcDbEntity
  8
0
 62
     0
370
    -2
100
AcDbLine
 10
49.82
 20
60.44424886772752
 30
0.0
 11
0.6000000000000014
 21
60.44424886772752
 31
0.0
  0
SOLID
  5
139
330
132
100
AcDbEntity
  8
0
 62
     0
100
AcDbTrace
 10
-49.82
 20
60.47424886772752
 30
0.0
 11
-49.82
 21
60.41424886772752
 31
0.0
 12
-50.0
 22
60.44424886772752
 32
0.0
 13
-50.0
 23
60.44424886772752
 33
0.0
  0
SOLID
  5
13A
330
132
100
AcDbEntity
  8
0
 62
     0
100
AcDbTrace
 10
49.82
 20
60.41424886772752
 30
0.0
 11
49.82
 21
60.47424886772752
 31
0.0
 12
50.0
 22
60.44424886772752
 32
0.0
 13
50.0
 23
60.44424886772752
 33
0.0
  0
MTEXT
  5
13B
330
132
100
AcDbEntity
  8
0
 62
     0
370
    18
100
AcDbMText
 10
0.0
 20
60.44424886772752
 30
0.0
 40
0.18
 41
0.0
 71
     5
 72
     1
  1
\A1;100.0000
 73
     1
 44
1.0
  0
POINT
  5
13C
330
132
100
AcDbEntity
  8
Defpoints
 62
     0
100
AcDbPoint
 10
-50.0
 20
50.0
 30
0.0
  0
POINT
  5
13D
330
132
100
AcDbEntity
  8
Defpoints
 62
     0
100
AcDbPoint
 10
50.0
 20
50.0
 30
0.0
  0
POINT
  5
13E
330
132
100
AcDbEntity
  8
Defpoints
 62
     0
100
AcDbPoint
 10
50.0
 20
60.44424886772752
 30
0.0
  0
ENDBLK
  5
134
330
132
100
AcDbEntity
  8
0
100
AcDbBlockEnd
  0
BLOCK
  5
143
330
142
100
AcDbEntity
  8
0
100
AcDbBlockBegin
  2
*D3
 70
     1
 10
0.0
 20
0.0
 30
0.0
  3
*D3
  1
*D3
  0
LINE
  5
145
330
142
100
AcDbEntity
  8
0
 62
     0
370
    -2
100
AcDbLine
 10
-40.0
 20
-2.086084
 30
0.0
 11
-40.0
 21
-6.697465503933749
 31
0.0
  0
LINE
  5
146
330
142
100
AcDbEntity
  8
0
 62
     0
370
    -2
100
AcDbLine
 10
-19.84434
 20
-2.086084
 30
0.0
 11
-19.84434
 21
-6.697465503933749
 31
0.0
  0
LINE
  5
147
330
142
100
AcDbEntity
  8
0
 62
     0
370
    -2
100
AcDbLine
 10
-39.82
 20
-6.517465503933749
 30
0.0
 11
-30.50717
 21
-6.517465503933749
 31
0.0
  0
LINE
  5
148
330
142
100
AcDbEntity
  8
0
 62
     0
370
    -2
100
AcDbLine
 10
-20.02434
 20
-6.517465503933749
 30
0.0
 11
-29.33717
 21
-6.517465503933749
 31
0.0
  0
SOLID
  5
149
330
142
100
AcDbEntity
  8
0
 62
     0
100
AcDbTrace
 10
-39.82
 20
-6.487465503933749
 30
0.0
 11
-39.82
 21
-6.54746550393375
 31
0.0
 12
-40.0
 22
-6.517465503933749
 32
0.0
 13
-40.0
 23
-6.517465503933749
 33
0.0
  0
SOLID
  5
14A
330
142
100
AcDbEntity
  8
0
 62
     0
100
AcDbTrace
 10
-20.02434
 20
-6.54746550393375
 30
0.0
 11
-20.02434
 21
-6.487465503933749
 31
0.0
 12
-19.84434
 22
-6.517465503933749
 32
0.0
 13
-19.84434
 23
-6.517465503933749
 33
0.0
  0
MTEXT
  5
14B
330
142
100
AcDbEntity
  8
0
 62
     0
370
    18
100
AcDbMText
 10
-29.92217
 20
-6.517465503933749
 30
0.0
 40
0.18
 41
0.0
 71
     5
 72
     1
  1
\A1;20.1557
 73
     1
 44
1.0
  0
POINT
  5
14C
330
142
100
AcDbEntity
  8
Defpoints
 62
     0
100
AcDbPoint
 10
-40.0
 20
-2.023584
 30
0.0
  0
POINT
  5
14D
330
142
100
AcDbEntity
  8
Defpoints
 62
     0
100
AcDbPoint
 10
-19.84434
 20
-2.023584
 30
0.0
  0
POINT
  5
14E
330
142
100
AcDbEntity
  8
Defpoints
 62
     0
100
AcDbPoint
 10
-19.84434
 20
-6.517465503933749
 30
0.0
  0
ENDBLK
  5
144
330
142
100
AcDbEntity
  8
0
100
AcDbBlockEnd
  0
ENDSEC
  0
SECTION
  2
ENTITIES
  0
POINT
  5
6F
330
1F
100
AcDbEntity
  8
61
  6
Continuous
 62
    23
370
    18
100
AcDbPoint
 10
0.0
 20
0.0
 30
0.0
  0
LINE
  5
71
102
{ACAD_REACTORS
330
131
102
}
330
1F
100
AcDbEntity
  8
1
  6
Continuous
 62
   163
370
    18
100
AcDbLine
 10
-50.0
 20
50.0
 30
0.0
 11
-50.0
 21
-50.0
 31
0.0
  0
LINE
  5
73
330
1F
100
AcDbEntity
  8
1
  6
Continuous
 62
   163
370
    18
100
AcDbLine
 10
-50.0
 20
-50.0
 30
0.0
 11
50.0
 21
-50.0
 31
0.0
  0
LINE
  5
74
102
{ACAD_REACTORS
330
131
102
}
330
1F
100
AcDbEntity
  8
1
  6
Continuous
 62
   163
370
    18
100
AcDbLine
 10
50.0
 20
-50.0
 30
0.0
 11
50.0
 21
50.0
 31
0.0
  0
LINE
  5
75
102
{ACAD_REACTORS
330
121
102
}
330
1F
100
AcDbEntity
  8
1
  6
Continuous
 62
   163
370
    18
100
AcDbLine
 10
50.0
 20
50.0
 30
0.0
 11
-50.0
 21
50.0
 31
0.0
  0
LINE
  5
76
330
1F
100
AcDbEntity
  8
1
  6
Continuous
 62
   163
370
    18
100
AcDbLine
 10
-40.0
 20
17.976416
 30
0.0
 11
-19.84434
 21
17.976416
 31
0.0
  0
LINE
  5
77
330
1F
100
AcDbEntity
  8
1
  6
Continuous
 62
   163
370
    18
100
AcDbLine
 10
-19.84434
 20
17.976416
 30
0.0
 11
-19.84434
 21
-2.023584
 31
0.0
  0
LINE
  5
78
102
{ACAD_REACTORS
330
141
102
}
330
1F
100
AcDbEntity
  8
1
  6
Continuous
 62
   163
370
    18
100
AcDbLine
 10
-19.84434
 20
-2.023584
 30
0.0
 11
-40.0
 21
-2.023584
 31
0.0
  0
LINE
  5
79
330
1F
100
AcDbEntity
  8
1
  6
Continuous
 62
   163
370
    18
100
AcDbLine
 10
-40.0
 20
-2.023584
 30
0.0
 11
-40.0
 21
17.976416
 31
0.0
  0
LINE
  5
7A
330
1F
100
AcDbEntity
  8
1
  6
Continuous
 62
   163
370
    18
100
AcDbLine
 10
-9.84434
 20
-2.023584
 30
0.0
 11
10.15566
 21
-2.023584
 31
0.0
  0
LINE
  5
7B
330
1F
100
AcDbEntity
  8
1
  6
Continuous
 62
   163
370
    18
100
AcDbLine
 10
0.15566
 20
17.976416
 30
0.0
 11
-9.84434
 21
-2.023584
 31
0.0
  0
LINE
  5
7C
330
1F
100
AcDbEntity
  8
1
  6
Continuous
 62
   163
370
    18
100
AcDbLine
 10
0.15566
 20
17.976416
 30
0.0
 11
10.15566
 21
-2.023584
 31
0.0
  0
LINE
  5
7D
330
1F
100
AcDbEntity
  8
1
  6
Continuous
 62
   163
370
    18
100
AcDbLine
 10
-40.0
 20
-31.168083
 30
0.0
 11
-32.0
 21
-31.168083
 31
0.0
  0
LINE
  5
7E
330
1F
100
AcDbEntity
  8
1
  6
Continuous
 62
   163
370
    18
100
AcDbLine
 10
-32.0
 20
-31.168083
 30
0.0
 11
-32.0
 21
-40.0
 31
0.0
  0
LINE
  5
7F
330
1F
100
AcDbEntity
  8
1
  6
Continuous
 62
   163
370
    18
100
AcDbLine
 10
-40.0
 20
-40.0
 30
0.0
 11
-40.0
 21
-31.168083
 31
0.0
  0
LINE
  5
80
330
1F
100
AcDbEntity
  8
1
  6
Continuous
 62
   163
370
    18
100
AcDbLine
 10
-32.0
 20
-40.0
 30
0.0
 11
-24.0
 21
-40.0
 31
0.0
  0
LINE
  5
81
330
1F
100
AcDbEntity
  8
1
  6
Continuous
 62
   163
370
    18
100
AcDbLine
 10
-16.0
 20
-40.0
 30
0.0
 11
-8.0
 21
-40.0
 31
0.0
  0
LINE
  5
82
330
1F
100
AcDbEntity
  8
1
  6
Continuous
 62
   163
370
    18
100
AcDbLine
 10
0.0
 20
-40.0
 30
0.0
 11
8.0
 21
-40.0
 31
0.0
  0
LINE
  5
83
330
1F
100
AcDbEntity
  8
1
  6
Continuous
 62
   163
370
    18
100
AcDbLine
 10
16.0
 20
-40.0
 30
0.0
 11
24.0
 21
-40.0
 31
0.0
  0
LINE
  5
84
330
1F
100
AcDbEntity
  8
1
  6
Continuous
 62
   163
370
    18
100
AcDbLine
 10
32.0
 20
-40.0
 30
0.0
 11
40.0
 21
-40.0
 31
0.0
  0
LINE
  5
85
330
1F
100
AcDbEntity
  8
1
  6
Continuous
 62
   163
370
    18
100
AcDbLine
 10
-16.0
 20
-31.168083
 30
0.0
 11
-16.0
 21
-40.0
 31
0.0
  0
LINE
  5
86
330
1F
100
AcDbEntity
  8
1
  6
Continuous
 62
   163
370
    18
100
AcDbLine
 10
0.0
 20
-31.168083
 30
0.0
 11
0.0
 21
-40.0
 31
0.0
  0
LINE
  5
87
330
1F
100
AcDbEntity
  8
1
  6
Continuous
 62
   163
370
    18
100
AcDbLine
 10
16.0
 20
-31.168083
 30
0.0
 11
16.0
 21
-40.0
 31
0.0
  0
LINE
  5
88
330
1F
100
AcDbEntity
  8
1
  6
Continuous
 62
   163
370
    18
100
AcDbLine
 10
32.0
 20
-31.168083
 30
0.0
 11
32.0
 21
-40.0
 31
0.0
  0
LINE
  5
89
330
1F
100
AcDbEntity
  8
1
  6
Continuous
 62
   163
370
    18
100
AcDbLine
 10
-24.0
 20
-31.168083
 30
0.0
 11
-16.0
 21
-31.168083
 31
0.0
  0
LINE
  5
8A
330
1F
100
AcDbEntity
  8
1
  6
Continuous
 62
   163
370
    18
100
AcDbLine
 10
-8.0
 20
-31.168083
 30
0.0
 11
0.0
 21
-31.168083
 31
0.0
  0
LINE
  5
8B
330
1F
100
AcDbEntity
  8
1
  6
Continuous
 62
   163
370
    18
100
AcDbLine
 10
8.0
 20
-31.168083
 30
0.0
 11
16.0
 21
-31.168083
 31
0.0
  0
LINE
  5
8C
330
1F
100
AcDbEntity
  8
1
  6
Continuous
 62
   163
370
    18
100
AcDbLine
 10
24.0
 20
-31.168083
 30
0.0
 11
32.0
 21
-31.168083
 31
0.0
  0
LINE
  5
8D
330
1F
100
AcDbEntity
  8
1
  6
Continuous
 62
   163
370
    18
100
AcDbLine
 10
-24.0
 20
-40.0
 30
0.0
 11
-24.0
 21
-31.168083
 31
0.0
  0
LINE
  5
8E
330
1F
100
AcDbEntity
  8
1
  6
Continuous
 62
   163
370
    18
100
AcDbLine
 10
-8.0
 20
-40.0
 30
0.0
 11
-8.0
 21
-31.168083
 31
0.0
  0
LINE
  5
8F
330
1F
100
AcDbEntity
  8
1
  6
Continuous
 62
   163
370
    18
100
AcDbLine
 10
8.0
 20
-40.0
 30
0.0
 11
8.0
 21
-31.168083
 31
0.0
  0
LINE
  5
90
330
1F
100
AcDbEntity
  8
1
  6
Continuous
 62
   163
370
    18
100
AcDbLine
 10
24.0
 20
-40.0
 30
0.0
 11
24.0
 21
-31.168083
 31
0.0
  0
CIRCLE
  5
91
330
1F
100
AcDbEntity
  8
1
  6
Continuous
 62
   163
370
    18
100
AcDbCircle
 10
30.15566
 20
7.976416
 30
0.0
 40
9.999999999999996
  0
ARC
  5
92
330
1F
100
AcDbEntity
  8
1
  6
Continuous
 62
   163
370
    18
100
AcDbCircle
 10
-15.531909
 20
-48.338467
 30
0.0
 40
34.34493970902712
100
AcDbArc
 50
63.11296999999999
 51
135.43232
  0
ARC
  5
93
330
1F
100
AcDbEntity
  8
1
  6
Continuous
 62
   163
370
    18
100
AcDbCircle
 10
15.511586
 20
12.88595
 30
0.0
 40
34.3
100
AcDbArc
 50
243.11297
 51
314.331633
  0
SPLINE
  5
94
330
1F
100
AcDbEntity
  8
1
  6
Continuous
 62
   163
370
    18
100
AcDbSpline
210
0.0
220
0.0
230
1.0
 70
    11
 71
     3
 72
    19
 73
    15
 74
     0
 42
0.000000001
 43
0.0000000001
 40
0.0
 40
0.0
 40
0.0
 40
0.0
 40
0.2197289114816023
 40
0.2197289114816023
 40
0.2197289114816023
 40
0.4576480801999501
 40
0.4576480801999501
 40
0.4576480801999501
 40
0.6652606861511643
 40
0.6652606861511643
 40
0.8546239789492326
 40
0.8546239789492326
 40
0.8546239789492326
 40
1.0
 40
1.0
 40
1.0
 40
1.0
 10
-33.34131326949393
 20
35.0512995896033
 30
0.0
 10
-33.95348837209311
 20
33.41769265845875
 30
0.0
 10
-34.56566347469229
 20
31.78408572731421
 30
0.0
 10
-35.17783857729147
 20
30.15047879616966
 30
0.0
 10
-33.28887368901057
 20
30.15047879616966
 30
0.0
 10
-31.39990880072967
 20
30.15047879616966
 30
0.0
 10
-29.51094391244878
 20
30.15047879616966
 30
0.0
 10
-30.09233926128599
 20
31.69288645690837
 30
0.0
 10
-30.67373461012319
 20
33.23529411764708
 30
0.0
 10
-31.78542019431908
 20
36.18453057924907
 30
0.0
 10
-32.18194254445972
 20
37.33926128590972
 30
0.0
 10
-32.44186046511636
 20
38.24213406292751
 30
0.0
 10
-32.65389876880993
 20
37.171682626539
 30
0.0
 10
-32.9548563611492
 20
36.10807113543093
 30
0.0
 10
-33.34131326949393
 20
35.0512995896033
 30
0.0
  0
SPLINE
  5
95
330
1F
100
AcDbEntity
  8
1
  6
Continuous
 62
   163
370
    18
100
AcDbSpline
210
0.0
220
0.0
230
1.0
 70
    11
 71
     3
 72
    29
 73
    25
 74
     0
 42
0.000000001
 43
0.0000000001
 40
0.0
 40
0.0
 40
0.0
 40
0.0
 40
0.0385091921280205
 40
0.0385091921280205
 40
0.0385091921280205
 40
0.3319562024674582
 40
0.3319562024674582
 40
0.3319562024674582
 40
0.3709698818285968
 40
0.3709698818285968
 40
0.3709698818285968
 40
0.6669801511970169
 40
0.6669801511970169
 40
0.6669801511970169
 40
0.7082920501756939
 40
0.7082920501756939
 40
0.7082920501756939
 40
0.7971922149941238
 40
0.7971922149941238
 40
0.7971922149941238
 40
0.9117668710489619
 40
0.9117668710489619
 40
0.9117668710489619
 40
1.0
 40
1.0
 40
1.0
 40
1.0
 10
-37.65047879616972
 20
23.2865937072504
 30
0.0
 10
-38.43365253077985
 20
23.2865937072504
 30
0.0
 10
-39.21682626538998
 20
23.2865937072504
 30
0.0
 10
-40.0000000000001
 20
23.2865937072504
 30
0.0
 10
-37.86023711810315
 20
28.85772913816693
 30
0.0
 10
-35.7204742362062
 20
34.42886456908347
 30
0.0
 10
-33.58071135430925
 20
40.0
 30
0.0
 10
-32.78727770177846
 20
40.0
 30
0.0
 10
-31.99384404924768
 20
40.0
 30
0.0
 10
-31.2004103967169
 20
40.0
 30
0.0
 10
-28.91928864569091
 20
34.42886456908347
 30
0.0
 10
-26.63816689466491
 20
28.85772913816693
 30
0.0
 10
-24.35704514363891
 20
23.2865937072504
 30
0.0
 10
-25.19721842225269
 20
23.2865937072504
 30
0.0
 10
-26.03739170086646
 20
23.2865937072504
 30
0.0
 10
-26.87756497948023
 20
23.2865937072504
 30
0.0
 10
-27.52735978112182
 20
24.97378020975837
 30
0.0
 10
-28.17715458276341
 20
26.66096671226634
 30
0.0
 10
-28.826949384405
 20
28.34815321477432
 30
0.0
 10
-31.15709074327414
 20
28.34815321477432
 30
0.0
 10
-33.48723210214327
 20
28.34815321477432
 30
0.0
 10
-35.8173734610124
 20
28.34815321477432
 30
0.0
 10
-36.42840857273151
 20
26.66096671226634
 30
0.0
 10
-37.03944368445062
 20
24.97378020975837
 30
0.0
 10
-37.65047879616972
 20
23.2865937072504
 30
0.0
  0
SPLINE
  5
96
330
1F
100
AcDbEntity
  8
1
  6
Continuous
 62
   163
370
    18
100
AcDbSpline
210
0.0
220
0.0
230
1.0
 70
    11
 71
     3
 72
    23
 73
    19
 74
     0
 42
0.000000001
 43
0.0000000001
 40
0.0
 40
0.0
 40
0.0
 40
0.0
 40
0.1589338465260952
 40
0.1589338465260952
 40
0.1589338465260952
 40
0.2955560151539701
 40
0.2955560151539701
 40
0.382836940147893
 40
0.382836940147893
 40
0.4701178651418152
 40
0.4701178651418152
 40
0.557398790135738
 40
0.557398790135738
 40
0.6863744245216623
 40
0.6863744245216623
 40
0.8157315741492637
 40
0.8157315741492637
 40
1.0
 40
1.0
 40
1.0
 40
1.0
 10
-15.14705882352946
 20
38.15321477428181
 30
0.0
 10
-15.14705882352946
 20
36.30984952120385
 30
0.0
 10
-15.14705882352946
 20
34.46648426812587
 30
0.0
 10
-15.14705882352946
 20
32.62311901504791
 30
0.0
 10
-13.56247150022804
 20
32.62311901504791
 30
0.0
 10
-11.97788417692662
 20
32.62311901504791
 30
0.0
 10
-9.38098495212041
 20
32.62311901504791
 30
0.0
 10
-8.590971272229847
 20
32.72913816689469
 30
0.0
 10
-7.448700410396748
 20
33.1463748290014
 30
0.0
 10
-7.017783857729157
 20
33.48153214774284
 30
0.0
 10
-6.422708618331084
 20
34.3980848153215
 30
0.0
 10
-6.275649794801666
 20
34.90082079343367
 30
0.0
 10
-6.275649794801666
 20
36.23119015047881
 30
0.0
 10
-6.562927496580052
 20
36.88098495212039
 30
0.0
 10
-7.713737862255076
 20
37.8947940837865
 30
0.0
 10
-8.6183310533516
 20
38.15321477428181
 30
0.0
 10
-11.61992704058371
 20
38.15321477428181
 30
0.0
 10
-13.38349293205658
 20
38.15321477428181
 30
0.0
 10
-15.14705882352946
 20
38.15321477428181
 30
0.0
  0
SPLINE
  5
97
330
1F
100
AcDbEntity
  8
1
  6
Continuous
 62
   163
370
    18
100
AcDbSpline
210
0.0
220
0.0
230
1.0
 70
    11
 71
     3
 72
    52
 73
    48
 74
     0
 42
0.000000001
 43
0.0000000001
 40
0.0
 40
0.0
 40
0.0
 40
0.0
 40
0.0226657651429509
 40
0.0226657651429509
 40
0.0226657651429509
 40
0.1941326293126109
 40
0.1941326293126109
 40
0.1941326293126109
 40
0.2701296065566226
 40
0.2701296065566226
 40
0.3160225180225354
 40
0.3160225180225354
 40
0.3619154294884489
 40
0.3619154294884489
 40
0.4079003621857438
 40
0.4079003621857438
 40
0.4670482681830077
 40
0.4670482681830077
 40
0.5264525776920472
 40
0.5264525776920472
 40
0.5264525776920472
 40
0.5461356931424304
 40
0.5461356931424304
 40
0.5461356931424304
 40
0.582232553026572
 40
0.582232553026572
 40
0.6434775212294825
 40
0.6434775212294825
 40
0.6434775212294825
 40
0.6779057173830638
 40
0.6779057173830638
 40
0.6779057173830638
 40
0.7288639188530038
 40
0.7288639188530038
 40
0.7731048569057396
 40
0.7731048569057396
 40
0.8171700387598713
 40
0.8171700387598713
 40
0.8607083479718597
 40
0.8607083479718597
 40
0.8607083479718597
 40
0.8772097254436966
 40
0.8772097254436966
 40
0.9019123863296801
 40
0.9019123863296801
 40
0.9019123863296801
 40
1.0
 40
1.0
 40
1.0
 40
1.0
 10
-15.14705882352946
 20
23.2865937072504
 30
0.0
 10
-15.88349293205659
 20
23.2865937072504
 30
0.0
 10
-16.61992704058372
 20
23.2865937072504
 30
0.0
 10
-17.35636114911085
 20
23.2865937072504
 30
0.0
 10
-17.35636114911085
 20
28.85772913816693
 30
0.0
 10
-17.35636114911085
 20
34.42886456908347
 30
0.0
 10
-17.35636114911085
 20
40.0
 30
0.0
 10
-14.88714090287282
 20
40.0
 30
0.0
 10
-12.41792065663478
 20
40.0
 30
0.0
 10
-8.457592339261314
 20
40.0
 30
0.0
 10
-7.325581395348856
 20
39.84952120383037
 30
0.0
 10
-5.772913816689482
 20
39.24760601915185
 30
0.0
 10
-5.153898768809867
 20
38.71751025991793
 30
0.0
 10
-4.22958039505905
 20
37.19752004530548
 30
0.0
 10
-3.994528043775667
 20
36.35772913816691
 30
0.0
 10
-3.994528043775667
 20
34.25444596443231
 30
0.0
 10
-4.3809849521204
 20
33.25239398084818
 30
0.0
 10
-5.916453590709795
 20
31.62781332305495
 30
0.0
 10
-7.099863201094415
 20
31.11149110807117
 30
0.0
 10
-8.703830369357071
 20
30.88919288645694
 30
0.0
 10
-8.119015047879643
 20
30.60875512995899
 30
0.0
 10
-7.674418604651187
 20
30.33173734610126
 30
0.0
 10
-7.370041039671705
 20
30.05813953488376
 30
0.0
 10
-6.723666210670338
 20
29.46648426812589
 30
0.0
 10
-6.111491108071149
 20
28.7243502051984
 30
0.0
 10
-4.552874101248514
 20
26.32647788700973
 30
0.0
 10
-3.59553123575013
 20
24.80278157774744
 30
0.0
 10
-2.626538987688114
 20
23.2865937072504
 30
0.0
 10
-3.554491564067504
 20
23.2865937072504
 30
0.0
 10
-4.482444140446894
 20
23.2865937072504
 30
0.0
 10
-5.410396716826284
 20
23.2865937072504
 30
0.0
 10
-6.146830825353419
 20
24.4459644322846
 30
0.0
 10
-6.883264933880554
 20
25.60533515731879
 30
0.0
 10
-8.259057081652655
 20
27.77124942091665
 30
0.0
 10
-8.799589603283199
 20
28.53283173734614
 30
0.0
 10
-9.632405369296496
 20
29.59774370044509
 30
0.0
 10
-10.01025991792068
 20
29.96922024623807
 30
0.0
 10
-10.66976813762302
 20
30.39756063635401
 30
0.0
 10
-11.0088919288646
 20
30.54377564979483
 30
0.0
 10
-11.35088919288649
 20
30.62927496580031
 30
0.0
 10
-11.60054719562247
 20
30.68057455540359
 30
0.0
 10
-12.01094391244873
 20
30.70793433652534
 30
0.0
 10
-13.43707250342001
 20
30.70793433652534
 30
0.0
 10
-14.29206566347473
 20
30.70793433652534
 30
0.0
 10
-15.14705882352946
 20
30.70793433652534
 30
0.0
 10
-15.14705882352946
 20
28.23415412676703
 30
0.0
 10
-15.14705882352946
 20
25.76037391700872
 30
0.0
 10
-15.14705882352946
 20
23.2865937072504
 30
0.0
  0
SPLINE
  5
98
330
1F
100
AcDbEntity
  8
1
  6
Continuous
 62
   163
370
    18
100
AcDbSpline
210
0.0
220
0.0
230
1.0
 70
    11
 71
     3
 72
    29
 73
    25
 74
     0
 42
0.000000001
 43
0.0000000001
 40
0.0
 40
0.0
 40
0.0
 40
0.0
 40
0.0369250085606667
 40
0.0369250085606667
 40
0.0369250085606667
 40
0.2829014952630972
 40
0.2829014952630972
 40
0.2829014952630972
 40
0.3747859833352354
 40
0.3747859833352354
 40
0.3747859833352354
 40
0.4077160141536351
 40
0.4077160141536351
 40
0.4077160141536351
 40
0.6288094966328048
 40
0.6288094966328048
 40
0.6288094966328048
 40
0.6617395274512046
 40
0.6617395274512046
 40
0.6617395274512046
 40
0.7540235132975693
 40
0.7540235132975693
 40
0.7540235132975693
 40
1.0
 40
1.0
 40
1.0
 40
1.0
 10
12.00068399452807
 20
23.2865937072504
 30
0.0
 10
11.26310989512086
 20
23.2865937072504
 30
0.0
 10
10.52553579571365
 20
23.2865937072504
 30
0.0
 10
9.787961696306446
 20
23.2865937072504
 30
0.0
 10
9.787961696306446
 20
28.19995440036483
 30
0.0
 10
9.787961696306446
 20
33.11331509347928
 30
0.0
 10
9.787961696306446
 20
38.02667578659371
 30
0.0
 10
7.952576379388977
 20
38.02667578659371
 30
0.0
 10
6.117191062471508
 20
38.02667578659371
 30
0.0
 10
4.281805745554038
 20
38.02667578659371
 30
0.0
 10
4.281805745554038
 20
38.68445052439581
 30
0.0
 10
4.281805745554038
 20
39.34222526219791
 30
0.0
 10
4.281805745554038
 20
40.0
 30
0.0
 10
8.698130414956694
 20
40.0
 30
0.0
 10
13.11445508435935
 20
40.0
 30
0.0
 10
17.530779753762
 20
40.0
 30
0.0
 10
17.530779753762
 20
39.34222526219791
 30
0.0
 10
17.530779753762
 20
38.68445052439581
 30
0.0
 10
17.530779753762
 20
38.02667578659371
 30
0.0
 10
15.68741450068402
 20
38.02667578659371
 30
0.0
 10
13.84404924760605
 20
38.02667578659371
 30
0.0
 10
12.00068399452807
 20
38.02667578659371
 30
0.0
 10
12.00068399452807
 20
33.11331509347928
 30
0.0
 10
12.00068399452807
 20
28.19995440036484
 30
0.0
 10
12.00068399452807
 20
23.2865937072504
 30
0.0
  0
SPLINE
  5
99
330
1F
100
AcDbEntity
  8
1
  6
Continuous
 62
   163
370
    18
100
AcDbSpline
210
0.0
220
0.0
230
1.0
 70
    11
 71
     3
 72
    54
 73
    50
 74
     0
 42
0.000000001
 43
0.0000000001
 40
0.0
 40
0.0
 40
0.0
 40
0.0
 40
0.0342212976850692
 40
0.0342212976850692
 40
0.0342212976850692
 40
0.0553172944953851
 40
0.0553172944953851
 40
0.0553172944953851
 40
0.1010426334438198
 40
0.1010426334438198
 40
0.1468477965526578
 40
0.1468477965526578
 40
0.1942727886123001
 40
0.1942727886123001
 40
0.2417634941868475
 40
0.2417634941868475
 40
0.2892122944211085
 40
0.2892122944211085
 40
0.3409284385736541
 40
0.3409284385736541
 40
0.3925891833641131
 40
0.3925891833641131
 40
0.444249928154572
 40
0.444249928154572
 40
0.5028626989261135
 40
0.5028626989261135
 40
0.5615884232645254
 40
0.5615884232645254
 40
0.5615884232645254
 40
0.5862510005954515
 40
0.5862510005954515
 40
0.5862510005954515
 40
0.6214525432408221
 40
0.6214525432408221
 40
0.6568372215756193
 40
0.6568372215756193
 40
0.6974159811338733
 40
0.6974159811338733
 40
0.737994740692127
 40
0.737994740692127
 40
0.77869381198417
 40
0.77869381198417
 40
0.8309851884120267
 40
0.8309851884120267
 40
0.8833339051268806
 40
0.8833339051268806
 40
0.9358336478197845
 40
0.9358336478197845
 40
1.0
 40
1.0
 40
1.0
 40
1.0
 10
36.04651162790705
 20
25.96443228454177
 30
0.0
 10
36.90492476060199
 20
26.67920656634752
 30
0.0
 10
37.48632010943921
 20
27.73939808481536
 30
0.0
 10
37.79069767441869
 20
29.14500683994532
 30
0.0
 10
38.52713178294582
 20
28.95918832649342
 30
0.0
 10
39.26356589147296
 20
28.77336981304153
 30
0.0
 10
40.00000000000009
 20
28.58755129958964
 30
0.0
 10
39.53830369357053
 20
26.77154582763342
 30
0.0
 10
38.70383036935714
 20
25.38645690834478
 30
0.0
 10
36.29406806615575
 20
23.47644644643236
 30
0.0
 10
34.82216142270869
 20
23.00273597811223
 30
0.0
 10
31.27906976744192
 20
23.00273597811223
 30
0.0
 10
29.81532147742824
 20
23.36867305061565
 30
0.0
 10
27.55657572482517
 20
24.83343544775824
 30
0.0
 10
26.69972640218884
 20
25.89603283173739
 30
0.0
 10
25.51693793957068
 20
28.67866233627837
 30
0.0
 10
25.2257181942545
 20
30.17099863201098
 30
0.0
 10
25.2257181942545
 20
33.50889192886459
 30
0.0
 10
25.55745554035573
 20
35.02735978112177
 30
0.0
 10
26.8905304792137
 20
37.61831055972261
 30
0.0
 10
27.83515731874151
 20
38.60123119015049
 30
0.0
 10
30.29069767441867
 20
39.94870041039673
 30
0.0
 10
31.64158686730512
 20
40.28385772913816
 30
0.0
 10
34.7879616963065
 20
40.28385772913816
 30
0.0
 10
36.19357045143647
 20
39.85978112175103
 30
0.0
 10
38.47346692678631
 20
38.15499366721016
 30
0.0
 10
39.26812585499324
 20
36.95964432284543
 30
0.0
 10
39.71614227086191
 20
35.41723666210672
 30
0.0
 10
38.98996808025543
 20
35.24623803009577
 30
0.0
 10
38.26379388964896
 20
35.07523939808483
 30
0.0
 10
37.53761969904248
 20
34.90424076607389
 30
0.0
 10
37.15116279069775
 20
36.11833105335159
 30
0.0
 10
36.58686730506163
 20
37.00410396716828
 30
0.0
 10
35.11245370914278
 20
38.115057467349
 30
0.0
 10
34.18604651162798
 20
38.39261285909713
 30
0.0
 10
31.78522571819433
 20
38.39261285909713
 30
0.0
 10
30.7113543091656
 20
38.08481532147744
 30
0.0
 10
28.98768809849527
 20
36.85362517099864
 30
0.0
 10
28.37893296853632
 20
36.02599179206568
 30
0.0
 10
27.68022428447066
 20
33.95041599528243
 30
0.0
 10
27.50683994528049
 20
32.88303693570454
 30
0.0
 10
27.50683994528049
 20
30.35909712722302
 30
0.0
 10
27.71203830369363
 20
29.11764705882357
 30
0.0
 10
28.54012545472746
 20
26.99610146526584
 30
0.0
 10
29.18604651162796
 20
26.20383036935709
 30
0.0
 10
30.93274854535099
 20
25.15580914912328
 30
0.0
 10
31.88098495212044
 20
24.89398084815327
 30
0.0
 10
34.13816689466492
 20
24.89398084815327
 30
0.0
 10
35.1846785225719
 20
25.24965800273603
 30
0.0
 10
36.04651162790705
 20
25.96443228454177
 30
0.0
  0
VIEWPORT
  5
F8
330
1B
100
AcDbEntity
 67
     1
  8
0
100
AcDbViewport
 10
202.5
 20
128.5
 30
0.0
 40
486.0
 41
308.4
 68
     1
 69
     1
 12
202.5
 22
128.5
 13
0.0
 23
0.0
 14
0.5
 24
0.5
 15
0.0
 25
0.0
 16
0.0
 26
0.0
 36
1.0
 17
0.0
 27
0.0
 37
0.0
 42
50.0
 43
0.0
 44
0.0
 45
308.4
 50
0.0
 51
0.0
 72
   100
 90
   557152
  1

281
     0
 71
     1
 74
     0
110
0.0
120
0.0
130
0.0
111
1.0
121
0.0
131
0.0
112
0.0
122
1.0
132
0.0
 79
     0
146
0.0
  0
VIEWPORT
  5
F9
330
1B
100
AcDbEntity
 67
     1
  8
0
100
AcDbViewport
 10
202.5
 20
128.5
 30
0.0
 40
324.0
 41
205.6
 68
     2
 69
     2
 12
0.0
 22
0.0
 13
0.0
 23
0.0
 14
0.5
 24
0.5
 15
0.0
 25
0.0
 16
0.0
 26
0.0
 36
1.0
 17
0.0
 27
0.0
 37
0.0
 42
50.0
 43
0.0
 44
0.0
 45
102.0
 50
0.0
 51
0.0
 72
   100
 90
   557152
  1

281
     0
 71
     1
 74
     0
110
0.0
120
0.0
130
0.0
111
1.0
121
0.0
131
0.0
112
0.0
122
1.0
132
0.0
 79
     0
146
0.0
  0
ENDSEC
  0
SECTION
  2
OBJECTS
  0
DICTIONARY
  5
C
330
0
100
AcDbDictionary
281
     1
  3
ACAD_DETAILVIEWSTYLE
350
EE
  3
ACAD_GROUP
350
D
  3
ACAD_IMAGE_VARS
350
F3
  3
ACAD_LAYOUT
350
1A
  3
ACAD_MLINESTYLE
350
17
  3
ACAD_PLOTSETTINGS
350
19
  3
ACAD_PLOTSTYLENAME
350
E
  3
ACAD_SCALELIST
350
47
  3
ACAD_SECTIONVIEWSTYLE
350
EF
  3
AcDbVariableDictionary
350
B3
  3
APPDATA
350
F1
  3
DWGPROPS
350
14F
  0
DICTIONARY
  5
F4
330
2
100
AcDbDictionary
280
     1
281
     1
  3
ACAD_LAYERSTATES
360
F5
  0
DICTIONARY
  5
100
330
9A
100
AcDbDictionary
280
     1
281
     1
  3
ADSK_XREC_VTRVIEWINFO
360
101
  0
DICTIONARY
  5
104
330
9B
100
AcDbDictionary
280
     1
281
     1
  3
ADSK_XREC_VTRVIEWINFO
360
105
  0
DICTIONARY
  5
108
330
9C
100
AcDbDictionary
280
     1
281
     1
  3
ADSK_XREC_VTRVIEWINFO
360
109
  0
DICTIONARY
  5
10C
330
9D
100
AcDbDictionary
280
     1
281
     1
  3
ADSK_XREC_VTRVIEWINFO
360
10D
  0
DICTIONARY
  5
110
330
9E
100
AcDbDictionary
280
     1
281
     1
  3
ADSK_XREC_VTRVIEWINFO
360
111
  0
DICTIONARY
  5
114
330
9F
100
AcDbDictionary
280
     1
281
     1
  3
ADSK_XREC_VTRVIEWINFO
360
115
  0
DICTIONARY
  5
118
330
A0
100
AcDbDictionary
280
     1
281
     1
  3
ADSK_XREC_VTRVIEWINFO
360
119
  0
DICTIONARY
  5
11C
330
A1
100
AcDbDictionary
280
     1
281
     1
  3
ADSK_XREC_VTRVIEWINFO
360
11D
  0
DICTIONARY
  5
EE
102
{ACAD_REACTORS
330
C
102
}
330
C
100
AcDbDictionary
281
     1
  0
DICTIONARY
  5
D
102
{ACAD_REACTORS
330
C
102
}
330
C
100
AcDbDictionary
281
     1
  0
RASTERVARIABLES
  5
F3
102
{ACAD_REACTORS
330
C
102
}
330
C
100
AcDbRasterVariables
 90
        0
 70
     1
 71
     1
 72
     1
  0
DICTIONARY
  5
1A
102
{ACAD_REACTORS
330
C
102
}
330
C
100
AcDbDictionary
281
     1
  3
Layout1
350
1E
  3
Layout2
350
26
  3
Model
350
22
  0
DICTIONARY
  5
17
102
{ACAD_REACTORS
330
C
102
}
330
C
100
AcDbDictionary
281
     1
  3
Standard
350
18
  0
DICTIONARY
  5
19
102
{ACAD_REACTORS
330
C
102
}
330
C
100
AcDbDictionary
281
     1
  0
ACDBDICTIONARYWDFLT
  5
E
102
{ACAD_REACTORS
330
C
102
}
330
C
100
AcDbDictionary
281
     1
  3
Normal
350
F
100
AcDbDictionaryWithDefault
340
F
  0
DICTIONARY
  5
47
102
{ACAD_REACTORS
330
C
102
}
330
C
100
AcDbDictionary
281
     1
  3
A0
350
48
  3
A1
350
49
  3
A2
350
4A
  3
A3
350
4B
  3
A4
350
4C
  3
A5
350
4D
  3
A6
350
4E
  3
A7
350
4F
  3
A8
350
50
  3
A9
350
51
  3
B0
350
52
  3
B1
350
53
  3
B2
350
54
  3
B3
350
55
  3
B4
350
56
  3
B5
350
57
  3
B6
350
58
  3
B7
350
59
  3
B8
350
5A
  3
B9
350
5B
  3
C0
350
5C
  3
C1
350
5D
  3
C2
350
5E
  3
C3
350
5F
  3
C4
350
60
  3
C5
350
61
  3
C6
350
62
  3
C7
350
63
  3
C8
350
64
  3
C9
350
65
  3
D0
350
66
  3
D1
350
67
  3
D2
350
68
  0
DICTIONARY
  5
EF
102
{ACAD_REACTORS
330
C
102
}
330
C
100
AcDbDictionary
281
     1
  0
DICTIONARY
  5
B3
102
{ACAD_REACTORS
330
C
102
}
330
C
100
AcDbDictionary
281
     1
  0
DICTIONARY
  5
F1
102
{ACAD_REACTORS
330
C
102
}
330
C
100
AcDbDictionary
281
     1
  0
XRECORD
  5
14F
102
{ACAD_REACTORS
330
C
102
}
330
C
100
AcDbXrecord
280
     1
  1
DWGPROPS COOKIE
  2

  3

  4

  6

  7

  8
Francis
  9

300
=
301
=
302
=
303
=
304
=
305
=
306
=
307
=
308
=
309
=
 40
0.0
 41
2457163.138682014
 42
2457168.284823449
  1

 90
        0
  0
DICTIONARY
  5
F5
102
{ACAD_REACTORS
330
F4
102
}
330
F4
100
AcDbDictionary
281
     1
  3
ARGON_LAYERP_1
350
F6
  3
ARGON_LAYERP_2
350
F7
  0
XRECORD
  5
101
102
{ACAD_REACTORS
330
100
102
}
330
100
100
AcDbXrecord
280
     1
300

292
     0
293
     0
294
     0
  0
XRECORD
  5
105
102
{ACAD_REACTORS
330
104
102
}
330
104
100
AcDbXrecord
280
     1
300

292
     0
293
     0
294
     0
  0
XRECORD
  5
109
102
{ACAD_REACTORS
330
108
102
}
330
108
100
AcDbXrecord
280
     1
300

292
     0
293
     0
294
     0
  0
XRECORD
  5
10D
102
{ACAD_REACTORS
330
10C
102
}
330
10C
100
AcDbXrecord
280
     1
300

292
     0
293
     0
294
     0
  0
XRECORD
  5
111
102
{ACAD_REACTORS
330
110
102
}
330
110
100
AcDbXrecord
280
     1
300

292
     0
293
     0
294
     0
  0
XRECORD
  5
115
102
{ACAD_REACTORS
330
114
102
}
330
114
100
AcDbXrecord
280
     1
300

292
     0
293
     0
294
     0
  0
XRECORD
  5
119
102
{ACAD_REACTORS
330
118
102
}
330
118
100
AcDbXrecord
280
     1
300

292
     0
293
     0
294
     0
  0
XRECORD
  5
11D
102
{ACAD_REACTORS
330
11C
102
}
330
11C
100
AcDbXrecord
280
     1
300

292
     0
293
     0
294
     0
  0
LAYOUT
  5
1E
102
{ACAD_REACTORS
330
1A
102
}
330
1A
100
AcDbPlotSettings
  1

  2
none_device
  4
ISO_A3_(420.00_x_297.00_MM)
  6

 40
7.5
 41
20.0
 42
7.5
 43
20.0
 44
420.0
 45
297.0
 46
0.0
 47
0.0
 48
0.0
 49
0.0
140
0.0
141
0.0
142
1.0
143
1.0
 70
   688
 72
     1
 73
     0
 74
     5
  7

 75
    16
147
1.0
148
0.0
149
0.0
100
AcDbLayout
  1
Layout1
 70
     1
 71
     1
 10
-7.5
 20
-20.0
 11
412.5
 21
277.0
 12
0.0
 22
0.0
 32
0.0
 14
-0.5
 24
-0.5
 34
-0.5
 15
5.0
 25
5.0
 35
5.0
146
0.0
 13
0.0
 23
0.0
 33
0.0
 16
1.0
 26
0.0
 36
0.0
 17
0.0
 27
1.0
 37
0.0
 76
     0
330
1B
331
F8
  0
LAYOUT
  5
26
102
{ACAD_REACTORS
330
1A
102
}
330
1A
100
AcDbPlotSettings
  1

  2
none_device
  4
ISO_A3_(420.00_x_297.00_MM)
  6

 40
7.5
 41
20.0
 42
7.5
 43
20.0
 44
420.0
 45
297.0
 46
0.0
 47
0.0
 48
0.0
 49
0.0
140
0.0
141
0.0
142
1.0
143
1.0
 70
   688
 72
     1
 73
     0
 74
     5
  7

 75
    16
147
1.0
148
0.0
149
0.0
100
AcDbLayout
  1
Layout2
 70
     1
 71
     2
 10
0.0
 20
0.0
 11
0.0
 21
0.0
 12
0.0
 22
0.0
 32
0.0
 14
0.0
 24
0.0
 34
0.0
 15
0.0
 25
0.0
 35
0.0
146
0.0
 13
0.0
 23
0.0
 33
0.0
 16
1.0
 26
0.0
 36
0.0
 17
0.0
 27
1.0
 37
0.0
 76
     0
330
23
331
FB
  0
LAYOUT
  5
22
102
{ACAD_REACTORS
330
1A
102
}
330
1A
100
AcDbPlotSettings
  1

  2
none_device
  4
Letter_(8.50_x_11.00_Inches)
  6

 40
6.35
 41
6.35
 42
6.350005
 43
6.350005
 44
215.9
 45
279.4
 46
0.0
 47
0.0
 48
0.0
 49
0.0
140
0.0
141
0.0
142
1.0
143
1.0
 70
  1712
 72
     0
 73
     0
 74
     0
  7

 75
     0
147
1.0
148
0.0
149
0.0
100
AcDbLayout
  1
Model
 70
     1
 71
     0
 10
-0.5
 20
-0.5
 11
5.0
 21
5.0
 12
0.0
 22
0.0
 32
0.0
 14
-50.0
 24
-50.0
 34
0.0
 15
50.0
 25
50.0
 35
0.0
146
0.0
 13
0.0
 23
0.0
 33
0.0
 16
1.0
 26
0.0
 36
0.0
 17
0.0
 27
1.0
 37
0.0
 76
     0
330
1F
331
A2
  0
MLINESTYLE
  5
18
102
{ACAD_REACTORS
330
17
102
}
330
17
100
AcDbMlineStyle
  2
Standard
 70
     0
  3

 62
   256
 51
90.0
 52
90.0
 71
     2
 49
0.5
 62
   256
  6
BYLAYER
 49
-0.5
 62
   256
  6
BYLAYER
  0
ACDBPLACEHOLDER
  5
F
102
{ACAD_REACTORS
330
E
102
}
330
E
  0
SCALE
  5
48
102
{ACAD_REACTORS
330
47
102
}
330
47
100
AcDbScale
 70
     0
300
1:1
140
1.0
141
1.0
290
     1
  0
SCALE
  5
49
102
{ACAD_REACTORS
330
47
102
}
330
47
100
AcDbScale
 70
     0
300
1:2
140
1.0
141
2.0
290
     0
  0
SCALE
  5
4A
102
{ACAD_REACTORS
330
47
102
}
330
47
100
AcDbScale
 70
     0
300
1:4
140
1.0
141
4.0
290
     0
  0
SCALE
  5
4B
102
{ACAD_REACTORS
330
47
102
}
330
47
100
AcDbScale
 70
     0
300
1:5
140
1.0
141
5.0
290
     0
  0
SCALE
  5
4C
102
{ACAD_REACTORS
330
47
102
}
330
47
100
AcDbScale
 70
     0
300
1:8
140
1.0
141
8.0
290
     0
  0
SCALE
  5
4D
102
{ACAD_REACTORS
330
47
102
}
330
47
100
AcDbScale
 70
     0
300
1:10
140
1.0
141
10.0
290
     0
  0
SCALE
  5
4E
102
{ACAD_REACTORS
330
47
102
}
330
47
100
AcDbScale
 70
     0
300
1:16
140
1.0
141
16.0
290
     0
  0
SCALE
  5
4F
102
{ACAD_REACTORS
330
47
102
}
330
47
100
AcDbScale
 70
     0
300
1:20
140
1.0
141
20.0
290
     0
  0
SCALE
  5
50
102
{ACAD_REACTORS
330
47
102
}
330
47
100
AcDbScale
 70
     0
300
1:30
140
1.0
141
30.0
290
     0
  0
SCALE
  5
51
102
{ACAD_REACTORS
330
47
102
}
330
47
100
AcDbScale
 70
     0
300
1:40
140
1.0
141
40.0
290
     0
  0
SCALE
  5
52
102
{ACAD_REACTORS
330
47
102
}
330
47
100
AcDbScale
 70
     0
300
1:50
140
1.0
141
50.0
290
     0
  0
SCALE
  5
53
102
{ACAD_REACTORS
330
47
102
}
330
47
100
AcDbScale
 70
     0
300
1:100
140
1.0
141
100.0
290
     0
  0
SCALE
  5
54
102
{ACAD_REACTORS
330
47
102
}
330
47
100
AcDbScale
 70
     0
300
2:1
140
2.0
141
1.0
290
     0
  0
SCALE
  5
55
102
{ACAD_REACTORS
330
47
102
}
330
47
100
AcDbScale
 70
     0
300
4:1
140
4.0
141
1.0
290
     0
  0
SCALE
  5
56
102
{ACAD_REACTORS
330
47
102
}
330
47
100
AcDbScale
 70
     0
300
8:1
140
8.0
141
1.0
290
     0
  0
SCALE
  5
57
102
{ACAD_REACTORS
330
47
102
}
330
47
100
AcDbScale
 70
     0
300
10:1
140
10.0
141
1.0
290
     0
  0
SCALE
  5
58
102
{ACAD_REACTORS
330
47
102
}
330
47
100
AcDbScale
 70
     0
300
100:1
140
100.0
141
1.0
290
     0
  0
SCALE
  5
59
102
{ACAD_REACTORS
330
47
102
}
330
47
100
AcDbScale
 70
     0
300
1/128" = 1'-0"
140
0.007812
141
12.0
290
     0
  0
SCALE
  5
5A
102
{ACAD_REACTORS
330
47
102
}
330
47
100
AcDbScale
 70
     0
300
1/64" = 1'-0"
140
0.015625
141
12.0
290
     0
  0
SCALE
  5
5B
102
{ACAD_REACTORS
330
47
102
}
330
47
100
AcDbScale
 70
     0
300
1/32" = 1'-0"
140
0.03125
141
12.0
290
     0
  0
SCALE
  5
5C
102
{ACAD_REACTORS
330
47
102
}
330
47
100
AcDbScale
 70
     0
300
1/16" = 1'-0"
140
0.0625
141
12.0
290
     0
  0
SCALE
  5
5D
102
{ACAD_REACTORS
330
47
102
}
330
47
100
AcDbScale
 70
     0
300
3/32" = 1'-0"
140
0.09375
141
12.0
290
     0
  0
SCALE
  5
5E
102
{ACAD_REACTORS
330
47
102
}
330
47
100
AcDbScale
 70
     0
300
1/8" = 1'-0"
140
0.125
141
12.0
290
     0
  0
SCALE
  5
5F
102
{ACAD_REACTORS
330
47
102
}
330
47
100
AcDbScale
 70
     0
300
3/16" = 1'-0"
140
0.1875
141
12.0
290
     0
  0
SCALE
  5
60
102
{ACAD_REACTORS
330
47
102
}
330
47
100
AcDbScale
 70
     0
300
1/4" = 1'-0"
140
0.25
141
12.0
290
     0
  0
SCALE
  5
61
102
{ACAD_REACTORS
330
47
102
}
330
47
100
AcDbScale
 70
     0
300
3/8" = 1'-0"
140
0.375
141
12.0
290
     0
  0
SCALE
  5
62
102
{ACAD_REACTORS
330
47
102
}
330
47
100
AcDbScale
 70
     0
300
1/2" = 1'-0"
140
0.5
141
12.0
290
     0
  0
SCALE
  5
63
102
{ACAD_REACTORS
330
47
102
}
330
47
100
AcDbScale
 70
     0
300
3/4" = 1'-0"
140
0.75
141
12.0
290
     0
  0
SCALE
  5
64
102
{ACAD_REACTORS
330
47
102
}
330
47
100
AcDbScale
 70
     0
300
1" = 1'-0"
140
1.0
141
12.0
290
     0
  0
SCALE
  5
65
102
{ACAD_REACTORS
330
47
102
}
330
47
100
AcDbScale
 70
     0
300
1-1/2" = 1'-0"
140
1.5
141
12.0
290
     0
  0
SCALE
  5
66
102
{ACAD_REACTORS
330
47
102
}
330
47
100
AcDbScale
 70
     0
300
3" = 1'-0"
140
3.0
141
12.0
290
     0
  0
SCALE
  5
67
102
{ACAD_REACTORS
330
47
102
}
330
47
100
AcDbScale
 70
     0
300
6" = 1'-0"
140
6.0
141
12.0
290
     0
  0
SCALE
  5
68
102
{ACAD_REACTORS
330
47
102
}
330
47
100
AcDbScale
 70
     0
300
1'-0" = 1'-0"
140
12.0
141
12.0
290
     0
  0
XRECORD
  5
F6
102
{ACAD_REACTORS
330
F5
102
}
330
F5
100
AcDbXrecord
280
     1
 91
     1023
301

290
     0
302
0
330
10
 90
        8
 62
     7
370
    -3
331
16
  1
Color_7
330
70
 90
        8
 62
     7
370
    -3
331
16
  1
Color_7
 92
-1023410177
330
72
 90
        8
 62
     7
370
    -3
331
16
  1
Color_7
 92
-1023410177
  0
XRECORD
  5
F7
102
{ACAD_REACTORS
330
F5
102
}
330
F5
100
AcDbXrecord
280
     1
 91
     1023
301

290
     0
302
1
330
10
 90
        8
 62
     7
370
    -3
331
16
  1
Color_7
330
70
 90
        8
 62
     7
370
    -3
331
16
  1
Color_7
 92
-1023410177
330
72
 90
        8
 62
     7
370
    -3
331
16
  1
Color_7
 92
-1023410177
  0
ENDSEC
  0
EOF
